<?xml version="1.0" encoding="UTF-8" standalone="no"?><!DOCTYPE svg PUBLIC "-//W3C//DTD SVG 1.1//EN" "http://www.w3.org/Graphics/SVG/1.1/DTD/svg11.dtd"><svg width="100%" height="100%" viewBox="0 0 1920 3840" version="1.1" xmlns="http://www.w3.org/2000/svg" xmlns:xlink="http://www.w3.org/1999/xlink" xml:space="preserve" xmlns:serif="http://www.serif.com/" style="fill-rule:evenodd;clip-rule:evenodd;stroke-linejoin:round;stroke-miterlimit:2;"><g id="Layer-1" serif:id="Layer 1"><path d="M0,3542.34c10.378,35.376 21.233,57.329 22.018,59.531c1.588,3.266 4.005,1.454 5.692,-4.216c1.695,-5.7 2.156,-13.616 1.066,-18.654c-17.146,-78.823 -12.228,-163.664 -7.075,-208.188c6.05,-53.533 16.769,-92.304 24.029,-105.36c4.884,-8.839 6.535,-4.511 7.557,1.444c4.944,28.744 -0.813,68.559 -6.83,114.614c-6.161,46.64 -12.418,99.332 -8.503,147.735c7.42,94.327 54.441,125.409 56.834,127.901c1.92,1.334 4.195,-1.531 5.626,-7.052c1.428,-5.53 1.672,-12.442 0.58,-17.04c-8.702,-37.434 -27.739,-140.934 -9.144,-187.148c1.287,-3.179 2.489,-5.671 3.56,-7.429c2.215,-3.623 3.403,-3.362 4.188,-2.729c6.172,4.965 10.149,51.503 14.493,101.191c3.816,43.742 8.254,93.545 15.651,140.615c21.201,136.031 97.336,159.626 101.186,162.34c2.078,0.71 4.27,-2.202 5.566,-7.37c1.288,-5.183 1.43,-11.646 0.338,-16.365c-30.965,-135.06 -70.68,-352.812 -48.475,-413.618c1.704,-4.7 3.283,-7.994 4.697,-9.81c1.137,-1.469 2.587,-2.662 4.598,-0.329c13.762,15.751 22.452,148.164 25.546,229.055c0.225,6.245 2.023,10.563 4.411,10.621c2.383,0.073 4.802,-4.135 5.942,-10.336c36.336,-193.152 22.299,-313.109 -17.901,-432.785c-17.016,-50.856 -10.99,-103.007 -7.402,-123.274c2.89,-16.577 6.773,-28.957 10.318,-36.632c0.067,1.753 0.088,3.507 0.189,5.279c2.371,41.728 9.12,73.24 17.16,97.076c11.379,63.502 35.424,85.822 36.78,87.107c2.115,1.893 4.882,0.111 6.953,-4.487c2.071,-4.603 3.005,-11.042 2.33,-16.172c-0.016,-0.135 -0.031,-0.26 -0.048,-0.405c0.723,-0.821 1.426,-1.812 2.062,-3.135c2.074,-4.275 3.199,-10.337 2.914,-15.65c-1.656,-29.381 -2.012,-115.961 16.315,-133.273c1.32,-1.251 2.765,-2.212 4.296,-2.835c7.903,-3.284 18.189,-3.096 21.984,15.572c6.197,30.208 -6.895,94.898 -32.424,175.672c-21.648,68.912 -23.767,144.899 -7.625,209.497c19.838,78.833 59.954,118.768 99.005,97.458c2.625,-1.411 4.879,-6.574 5.673,-12.935c0.8,-6.371 -0.019,-12.694 -2.076,-15.969c-0.417,-1.405 -46.262,-73.147 -40.833,-158.133c2.762,-42.37 18.333,-83.89 47.299,-121.251c50.033,-64.144 83.477,-149.536 92.191,-243.762c8.664,-93.217 -9.194,-180.637 -46.07,-217.699c-14.381,-14.466 -20.086,-36.216 -15.888,-61.444c4.099,-24.677 17.268,-47.48 32.736,-56.585c0.002,-0.014 0.005,0 0.007,0c23.494,-13.741 45.48,4.657 60.192,51.345c17.496,103.756 -7.337,201.624 -7.466,202.469c-1.793,6.878 -0.843,14.225 2.193,17.05c3.041,2.826 7.191,0.242 9.667,-6.013c2.189,-5.763 45.245,-116.769 50.837,-247.288c5.208,-34.826 15.703,-57.233 29.683,-62.951c10.808,-4.401 21.824,2.758 27.399,17.803c6.281,16.993 4.485,40.356 -4.793,64.483c-42.598,111.281 33.684,230.17 36.629,236.43c2.013,3.216 5.165,2.854 7.471,-0.831c2.304,-3.686 3.084,-9.646 1.846,-14.094c-0.147,-0.773 -17.043,-61.271 -7.256,-101.047c3.257,-13.283 9.152,-22.783 18.015,-28.995c15.741,-10.969 26.265,-10.597 31.375,1.005c7.74,17.963 8.875,66.235 -22.872,225.069c-44.057,230.716 83.021,390.13 83.345,393.941c2.143,2.801 4.944,1.922 6.801,-2.135c1.865,-4.087 2.312,-10.289 1.076,-15.09c-13.844,-55.348 -47.7,-204.092 -33.003,-262.131c3.346,-13.365 9.175,-21.368 17.801,-24.382c59.683,-21.064 69.382,136.688 69.754,143.826c0.295,5.106 2.107,9.091 4.5,9.912c2.38,0.811 4.824,-1.681 6.052,-6.25c24.632,-91.304 7.313,-200.132 -8.558,-290.813c-11.791,-68.08 -23.04,-129.099 -10.836,-163.031c7.738,-21.513 18.547,-27.474 26.234,-28.715c17.446,-2.826 36.531,15.49 45.315,43.78c7.937,25.532 6.475,55.059 -3.951,83.301c-40.917,111.402 24.903,246.611 25.21,248.756c1.759,3.666 4.498,4.536 6.766,2.12c2.263,-2.4 3.506,-7.51 3.06,-12.563c-6.555,-73.722 4.514,-102.065 29.431,-161.819c9.989,-23.783 22.488,-53.03 36.552,-90.226c27.211,-71.718 4.161,-148.015 -13.083,-200.755c-8.539,-26.392 -17.424,-52.702 -13.766,-63.241c1.824,-5.279 7.766,-8.675 17.179,-9.679c1.486,-0.15 2.935,-0.242 4.368,-0.252c64.037,-1.772 77.549,142.291 77.611,144.919c0.411,4.849 2.748,8.694 5.571,9.177c0.845,0.159 1.656,-0.039 2.405,-0.469c0.379,1.391 0.64,2.343 0.748,2.72c1.57,5.574 5.199,8.568 8.53,7.057c3.338,-1.522 5.407,-7.096 4.858,-13.114c-8.626,-94.753 13.605,-148.705 27.775,-173.001c17.09,-29.227 36.585,-40.104 47.441,-38.443c7.332,1.15 8.628,6.811 8.935,12.761c1.476,28.769 -11.676,49.659 -26.849,74.727c-15.362,25.397 -32.717,55.093 -36.17,100.539c-6.596,89 48.7,199.639 50.81,205.02c2.174,4.419 5.496,5.902 8.201,3.637c2.705,-2.26 4.157,-7.733 3.571,-13.495c-4.594,-47.278 -10.829,-164.471 19.123,-170.344c2.055,-0.44 3.891,-0.493 5.458,-0.15c3.23,0.681 4.615,2.845 5.462,4.627c6.612,14.032 4.191,58.261 1.536,106.987c-2.34,42.8 -5.023,92.483 -3.849,145.436c4.219,154.781 87.112,297.825 90.014,304.718c2.172,3.835 5.045,4.632 7.291,2.038c2.244,-2.599 3.43,-8.09 2.995,-13.92c-11.86,-168.05 -24.144,-417.125 8.717,-432.05c2.527,-1.305 4.716,-1.633 6.511,-0.986c1.452,0.532 3.195,1.754 5.069,6.806c12.905,33.946 3.823,159.65 -5.035,234.865c-0.684,5.753 0.622,12.288 3.202,16.031c2.577,3.739 5.812,3.83 7.958,0.213c66.931,-111.214 66.864,-235.614 39.706,-392.709c-11.715,-66.385 0.852,-99.11 6.945,-110.47c0.641,-1.193 1.299,-2.227 1.961,-3.265c5.196,91.951 22.519,157.037 37.483,216.109c17.691,70.414 32.153,132.544 23.563,241.999c-0.429,5.42 0.881,11.496 3.269,15.201c2.393,3.714 5.364,4.289 7.459,1.463c1.64,-2.526 43.767,-60.255 34.942,-183.361c-1.872,-25.107 1.056,-31.961 2.014,-33.502c0.571,-0.913 1.579,-2.004 3.708,-0.739c4.708,2.802 12.081,15.206 17.832,36.84c4.92,18.364 14.385,67.148 -0.584,125.718c-35.292,137.809 -44.052,265.227 4.589,445.42c1.536,5.787 4.327,8.965 6.871,7.82c2.537,-1.159 4.229,-6.371 4.145,-12.824c-0.917,-83.909 1.15,-222.094 14.904,-244.332c2.019,-3.308 3.627,-2.787 4.93,-1.835c1.608,1.173 3.485,3.758 5.568,7.704c27.398,50.595 -3.617,291.474 -29.832,443.164c-0.919,5.299 -0.444,11.814 1.207,16.543c1.642,4.695 4.133,6.7 6.317,5.048c3.636,-4.149 84.938,-63.101 101.414,-213.415c5.607,-51.822 7.719,-104.939 9.413,-151.419c1.939,-52.823 3.521,-101.989 10.063,-110.2c0.835,-1.053 2.143,-1.946 4.827,0.58c1.3,1.222 2.791,3.125 4.418,5.661c23.741,36.883 8.549,152.521 0.835,195.33c-0.957,5.26 -0.29,12.206 1.625,17.137c1.925,4.927 4.651,6.671 6.732,4.319c2.302,-3.478 54.473,-60.759 57.343,-161.549c1.452,-51.552 -9.348,-101.365 -19.495,-144.87c-9.977,-42.998 -19.128,-79.678 -15.61,-111.001c0.728,-6.482 2.264,-11.67 8.386,-5.589c1.906,1.904 4.085,4.884 6.422,8.796c0.399,2.246 0.802,4.511 1.246,6.806c9.36,48.069 17.616,86.676 24.077,117.792c8.237,39.767 13.833,68.704 16.044,95.762c-0.55,24.658 -2.686,50.828 -7.171,77.809c-0.963,5.781 0.079,13.626 2.433,18.485c1.901,3.907 4.2,4.893 5.902,2.883c0.621,0.073 1.226,-0.058 1.761,-0.7c0.468,-2.164 60.852,-70.283 38.024,-212.555c-0.209,-1.26 -0.387,-2.492 -0.579,-3.738c-0.264,-8.424 -0.761,-16.911 -1.581,-25.484c-0.473,-4.951 -1.02,-9.94 -1.618,-14.94c0.178,-16.441 2.568,-30.265 7.19,-40.437c7.632,-16.8 20.376,-20.983 32.021,-11.622c4.097,9.289 6.847,15.109 7.373,16.191c2.129,4.439 4.682,5.54 6.386,2.937c4.157,8.974 8.235,21.841 10.719,39.916c6.007,44.244 -7.755,93.516 -21.9,147.488c-19.102,71.8 -39.864,157.554 -28.599,259.764c0.55,5.11 2.139,9.351 3.922,10.554c1.788,1.193 3.386,-0.913 3.984,-5.251c0.42,-5.772 20.496,-141.001 59.82,-72.026c5.587,9.935 8.803,22.01 9.941,36.796c4.901,64.404 -28.649,167.571 -42.199,205.333c-1.196,3.246 -1.352,9.037 -0.392,14.046c0.968,5.019 2.796,7.975 4.45,7.182c1.382,-3.873 70.457,-30.685 82.824,-191.683l0,-1608.37l-1920,0l0,1627.35Z" style="fill:#7a171d;fill-rule:nonzero;"/><path d="M833.911,2458.57c0.101,0.058 0.199,0.13 0.295,0.203c1.532,1.13 2.72,3.767 3.192,7.081c0.502,3.477 12.022,86.266 -13.905,151.067c-1.111,2.777 -2.801,4.168 -4.493,3.728c-1.706,-0.444 -3.178,-2.685 -3.941,-5.96c-7.987,-34.347 -15.221,-110.885 14.59,-154.617c1.248,-1.831 2.813,-2.372 4.262,-1.502" style="fill:#e97f3c;fill-rule:nonzero;"/><path d="M1338.29,2515.81c0.168,0 0.343,0.015 0.514,0.053c1.526,0.343 2.894,2.155 3.712,4.918c0.432,1.463 42.893,148.004 2.657,296.536c-0.926,3.434 -2.664,5.491 -4.521,5.327c-1.851,-0.15 -3.514,-2.482 -4.316,-6.047c-1.852,-8.235 -44.8,-202.566 -1.634,-297.546c0.948,-2.086 2.244,-3.241 3.588,-3.241" style="fill:#e97f3c;fill-rule:nonzero;"/><path d="M1920,3191.26c-10.378,35.366 -21.233,57.319 -22.018,59.532c-1.588,3.255 -4.005,1.453 -5.692,-4.227c-1.695,-5.69 -2.158,-13.616 -1.066,-18.659c17.146,-78.808 12.228,-163.659 7.075,-208.183c-6.05,-53.532 -16.769,-92.304 -24.029,-105.359c-4.884,-8.83 -6.535,-4.502 -7.557,1.439c-4.944,28.744 0.811,68.573 6.83,114.619c6.161,46.64 12.418,99.341 8.503,147.734c-7.42,94.328 -54.441,125.419 -56.834,127.912c-1.92,1.323 -4.195,-1.532 -5.626,-7.062c-1.428,-5.526 -1.672,-12.433 -0.58,-17.031c8.702,-37.434 27.739,-140.943 9.144,-187.148c-1.287,-3.188 -2.489,-5.68 -3.56,-7.434c-2.215,-3.627 -3.403,-3.357 -4.188,-2.738c-6.172,4.979 -10.149,51.508 -14.493,101.196c-3.816,43.751 -8.254,93.554 -15.651,140.624c-21.201,136.031 -97.339,159.626 -101.186,162.331c-2.078,0.719 -4.27,-2.193 -5.566,-7.376c-1.288,-5.168 -1.43,-11.64 -0.338,-16.35c30.965,-135.055 70.68,-352.821 48.473,-413.618c-1.702,-4.71 -3.281,-8.004 -4.695,-9.82c-1.137,-1.468 -2.587,-2.652 -4.598,-0.319c-13.762,15.742 -22.452,148.15 -25.546,229.055c-0.225,6.245 -2.023,10.549 -4.411,10.621c-2.383,0.058 -4.802,-4.149 -5.942,-10.336c-36.336,-193.162 -22.299,-313.108 17.901,-432.789c17.016,-50.866 10.988,-103.013 7.402,-123.27c-2.89,-16.577 -6.773,-28.966 -10.315,-36.641c-0.07,1.753 -0.091,3.506 -0.192,5.279c-2.371,41.737 -9.12,73.239 -17.16,97.076c-11.379,63.511 -35.424,85.822 -36.78,87.106c-2.115,1.894 -4.882,0.107 -6.955,-4.492c-2.069,-4.598 -3.005,-11.041 -2.328,-16.156c0.016,-0.136 0.031,-0.261 0.048,-0.406c-0.723,-0.821 -1.426,-1.811 -2.062,-3.135c-2.074,-4.275 -3.199,-10.346 -2.914,-15.659c1.656,-29.387 2.009,-115.952 -16.315,-133.273c-1.32,-1.251 -2.765,-2.217 -4.296,-2.835c-7.903,-3.275 -18.189,-3.097 -21.984,15.572c-6.197,30.203 6.895,94.907 32.424,175.681c21.651,68.902 23.767,144.885 7.625,209.488c-19.838,78.832 -59.954,118.768 -99.005,97.467c-2.625,-1.42 -4.879,-6.574 -5.673,-12.935c-0.8,-6.371 0.019,-12.694 2.076,-15.973c0.417,-1.401 46.262,-73.143 40.833,-158.129c-2.762,-42.37 -18.333,-83.899 -47.299,-121.251c-50.033,-64.144 -83.477,-149.545 -92.191,-243.762c-8.664,-93.226 9.194,-180.642 46.068,-217.699c14.383,-14.475 20.088,-36.225 15.89,-61.444c-4.099,-24.677 -17.268,-47.489 -32.738,-56.599l-0.005,0c-23.494,-13.732 -45.48,4.661 -60.192,51.349c-17.496,103.766 7.337,201.624 7.466,202.474c1.793,6.883 0.843,14.22 -2.193,17.055c-3.039,2.816 -7.191,0.237 -9.667,-6.023c-2.189,-5.757 -45.245,-116.773 -50.837,-247.293c-5.208,-34.82 -15.703,-57.222 -29.683,-62.936c-10.808,-4.4 -21.824,2.743 -27.399,17.794c-6.281,17.002 -4.485,40.356 4.793,64.482c42.598,111.291 -33.684,230.165 -36.629,236.44c-2.013,3.207 -5.165,2.854 -7.471,-0.831c-2.304,-3.7 -3.084,-9.66 -1.846,-14.094c0.147,-0.773 17.043,-61.271 7.256,-101.056c-3.257,-13.273 -9.152,-22.784 -18.015,-28.986c-15.741,-10.969 -26.265,-10.597 -31.375,1.005c-7.74,17.953 -8.875,66.235 22.872,225.055c44.057,230.73 -83.021,390.144 -83.345,393.95c-2.143,2.806 -4.944,1.922 -6.801,-2.14c-1.863,-4.081 -2.312,-10.293 -1.076,-15.089c13.844,-55.349 47.7,-204.083 33.003,-262.131c-3.348,-13.365 -9.175,-21.359 -17.801,-24.373c-59.683,-21.074 -69.382,136.678 -69.754,143.827c-0.295,5.105 -2.107,9.08 -4.5,9.911c-2.38,0.802 -4.824,-1.691 -6.052,-6.26c-24.632,-91.294 -7.311,-200.131 8.558,-290.812c11.791,-68.081 23.04,-129.09 10.836,-163.031c-7.738,-21.514 -18.547,-27.465 -26.234,-28.716c-17.446,-2.816 -36.531,15.5 -45.315,43.781c-7.937,25.532 -6.475,55.068 3.951,83.3c40.917,111.402 -24.903,246.622 -25.21,248.761c-1.759,3.662 -4.498,4.531 -6.766,2.116c-2.263,-2.396 -3.506,-7.516 -3.06,-12.563c6.555,-73.713 -4.514,-102.066 -29.431,-161.81c-9.989,-23.793 -22.488,-53.039 -36.552,-90.241c-27.211,-71.708 -4.164,-148.009 13.083,-200.74c8.539,-26.401 17.424,-52.711 13.766,-63.25c-1.826,-5.27 -7.766,-8.675 -17.179,-9.68c-1.486,-0.15 -2.935,-0.232 -4.368,-0.251c-64.037,-1.763 -77.549,142.3 -77.611,144.928c-0.411,4.84 -2.748,8.684 -5.571,9.177c-0.845,0.15 -1.656,-0.048 -2.405,-0.483c-0.379,1.396 -0.64,2.347 -0.748,2.734c-1.57,5.564 -5.199,8.559 -8.53,7.047c-3.338,-1.512 -5.407,-7.086 -4.858,-13.114c8.626,-94.743 -13.605,-148.705 -27.775,-172.996c-17.088,-29.222 -36.585,-40.099 -47.441,-38.438c-7.332,1.15 -8.628,6.811 -8.935,12.752c-1.476,28.768 11.676,49.653 26.849,74.722c15.362,25.402 32.717,55.097 36.17,100.544c6.596,89 -48.7,199.648 -50.812,205.019c-2.172,4.43 -5.494,5.903 -8.201,3.637c-2.703,-2.265 -4.155,-7.723 -3.569,-13.485c4.594,-47.278 10.829,-164.476 -19.123,-170.344c-2.055,-0.445 -3.891,-0.503 -5.458,-0.16c-3.23,0.681 -4.615,2.845 -5.462,4.637c-6.612,14.027 -4.191,58.261 -1.536,106.978c2.34,42.809 5.023,92.482 3.847,145.435c-4.217,154.781 -87.11,297.826 -90.012,304.728c-2.172,3.825 -5.045,4.632 -7.291,2.038c-2.244,-2.598 -3.43,-8.1 -2.995,-13.93c11.86,-168.04 24.144,-417.125 -8.717,-432.04c-2.527,-1.304 -4.716,-1.633 -6.511,-0.986c-1.452,0.522 -3.195,1.744 -5.072,6.796c-12.902,33.951 -3.82,159.651 5.038,234.865c0.684,5.763 -0.622,12.283 -3.202,16.032c-2.577,3.748 -5.812,3.825 -7.956,0.222c-66.933,-111.224 -66.866,-235.614 -39.705,-392.709c11.712,-66.39 -0.855,-99.119 -6.948,-110.47c-0.641,-1.203 -1.299,-2.236 -1.961,-3.275c-5.196,91.961 -22.519,157.037 -37.483,216.12c-17.691,70.404 -32.153,132.533 -23.563,241.999c0.429,5.419 -0.881,11.495 -3.269,15.2c-2.393,3.714 -5.364,4.275 -7.459,1.454c-1.64,-2.526 -43.767,-60.256 -34.942,-183.361c1.872,-25.098 -1.056,-31.961 -2.014,-33.502c-0.571,-0.913 -1.579,-1.995 -3.708,-0.73c-4.708,2.792 -12.081,15.196 -17.829,36.83c-4.925,18.364 -14.386,67.153 0.581,125.719c35.292,137.808 44.052,265.222 -4.587,445.415c-1.538,5.791 -4.329,8.969 -6.873,7.834c-2.537,-1.164 -4.229,-6.371 -4.145,-12.833c0.917,-83.9 -1.15,-222.085 -14.904,-244.328c-2.019,-3.313 -3.627,-2.782 -4.93,-1.84c-1.608,1.169 -3.485,3.753 -5.568,7.714c-27.398,50.586 3.617,291.464 29.83,443.154c0.921,5.299 0.446,11.825 -1.205,16.539c-1.642,4.709 -4.133,6.714 -6.319,5.052c-3.634,-4.149 -84.936,-63.101 -101.412,-213.419c-5.607,-51.818 -7.719,-104.939 -9.413,-151.405c-1.942,-52.823 -3.521,-101.988 -10.063,-110.209c-0.835,-1.053 -2.143,-1.937 -4.827,0.579c-1.3,1.232 -2.791,3.125 -4.418,5.661c-23.741,36.878 -8.549,152.531 -0.835,195.331c0.957,5.269 0.29,12.21 -1.625,17.132c-1.925,4.932 -4.651,6.685 -6.732,4.323c-2.302,-3.478 -54.473,-60.758 -57.346,-161.539c-1.449,-51.552 9.351,-101.365 19.498,-144.879c9.977,-42.998 19.128,-79.678 15.61,-110.992c-0.728,-6.482 -2.264,-11.679 -8.386,-5.588c-1.906,1.893 -4.085,4.878 -6.422,8.786c-0.399,2.255 -0.802,4.506 -1.246,6.805c-9.362,48.079 -17.616,86.672 -24.077,117.802c-8.237,39.767 -13.833,68.69 -16.044,95.753c0.55,24.667 2.686,50.827 7.171,77.818c0.963,5.782 -0.079,13.616 -2.436,18.475c-1.898,3.917 -4.197,4.903 -5.901,2.884c-0.619,0.072 -1.224,-0.058 -1.759,-0.691c-0.468,-2.164 -60.852,-70.283 -38.026,-212.555c0.209,-1.26 0.389,-2.492 0.581,-3.748c0.264,-8.424 0.761,-16.91 1.581,-25.479c0.473,-4.946 1.023,-9.935 1.618,-14.934c-0.178,-16.442 -2.568,-30.281 -7.19,-40.438c-7.632,-16.804 -20.376,-20.982 -32.021,-11.631c-4.097,9.288 -6.85,15.108 -7.373,16.2c-2.129,4.424 -4.682,5.531 -6.386,2.922c-4.157,8.989 -8.235,21.847 -10.719,39.926c-6.007,44.234 7.755,93.511 21.9,147.493c19.102,71.79 39.864,157.554 28.601,259.764c-0.552,5.11 -2.141,9.337 -3.924,10.539c-1.788,1.194 -3.386,-0.912 -3.982,-5.235c-0.422,-5.772 -20.498,-141.001 -59.822,-72.042c-5.587,9.941 -8.803,22.026 -9.941,36.801c-4.901,64.415 28.649,167.581 42.199,205.343c1.196,3.236 1.352,9.028 0.392,14.046c-0.968,5.009 -2.796,7.965 -4.45,7.183c-1.382,-3.889 -70.459,-30.686 -82.824,-191.694l0,-1257.27l1920,0l0,1276.27Z" style="fill:#e97f3c;fill-rule:nonzero;"/><path d="M1876.55,2827.04c-0.915,0.613 -1.884,0.85 -2.856,0.652c-1.32,-0.28 -2.652,-0.42 -3.982,-0.42c-17.429,0 -32.757,23.643 -39.048,60.222c-4.797,27.927 -5.498,58.594 -2.203,96.515c0.391,4.497 -0.194,9.139 -1.565,12.655c-1.368,3.517 -3.42,5.55 -5.561,5.55c-4.91,0 -9.794,1.903 -14.486,5.651c-9.358,7.545 -16.229,19.606 -21.619,37.96c-1.486,5.043 -4.203,7.835 -6.96,7.096c-2.765,-0.71 -5.091,-4.772 -5.971,-10.419c-2.393,-15.36 -5.748,-28.826 -10.28,-41.23c-4.692,-12.983 -9.66,-22.745 -15.201,-29.86c-7.779,-10.046 -15.245,-12.809 -20.139,-13.365c-2.472,-0.27 -4.706,-3.255 -5.913,-7.873c-1.205,-4.627 -1.215,-10.249 -0.022,-14.896c4.025,-15.669 8.88,-31.922 14.835,-49.658c19.452,-58.121 23.997,-132.742 12.153,-199.678c-4.5,-25.807 -11.059,-48.494 -18.969,-65.622l-58.69,-127.114l-5.724,147.372c-0.238,6.139 -2.162,11.379 -4.896,13.321c-2.734,1.966 -5.741,0.242 -7.658,-4.366c-5.4,-12.984 -11.938,-23.156 -19.443,-30.237c-3.967,-3.767 -8.297,-6.666 -12.549,-8.385c-4.98,-2.077 -9.891,-3.125 -14.595,-3.125c-22.793,0 -41.438,24.764 -49.881,66.303c-7.114,34.675 -6.149,76.244 2.947,127.081c1.116,6.226 0.228,13.278 -2.199,17.465c-2.424,4.188 -5.834,4.56 -8.452,0.933c-2.069,-2.879 -4.205,-5.743 -6.394,-8.569c-41.53,-53.243 -67.91,-120.497 -74.28,-189.36c-5.294,-56.991 4.426,-107.012 24.766,-127.453c37.2,-37.433 44.743,-108.919 35.716,-163.157c-7.168,-43.176 -25.152,-80.764 -48.098,-100.582c-0.768,-0.653 -1.474,-1.594 -2.088,-2.768l-7.279,-13.824l-9.691,3.845c-0.804,0.328 -1.62,0.352 -2.424,0.082c-4.793,-1.594 -9.62,-2.405 -14.338,-2.405c-21.936,-0.01 -42.511,16.944 -59.503,49.001c-1.649,3.116 -3.864,4.449 -6.043,3.608c-2.165,-0.83 -4.035,-3.738 -5.072,-7.887c-11.292,-45.133 -29.872,-75.041 -52.317,-84.218c-4.459,-1.812 -9.015,-2.725 -13.536,-2.725c-20.381,0 -39.516,18.794 -51.178,50.277c-10.968,29.677 -14.553,66.806 -10.099,104.539c0.619,5.26 -0.098,10.819 -1.894,14.645c-1.795,3.84 -4.406,5.361 -6.854,4.038c-8.002,-4.338 -15.24,-6.444 -22.123,-6.444c-20.515,0 -33.156,18.929 -40.131,34.758l-0.3,0.691c-22.356,51.88 -19.684,128.457 9.855,282.538c1.125,5.893 0.444,12.655 -1.721,17.036c-2.165,4.356 -5.362,5.438 -8.052,2.68c-5.734,-5.859 -12.029,-10.017 -18.727,-12.36c-12.593,-4.448 -24.951,-3.951 -36.281,1.28c-2.558,1.164 -5.222,-0.71 -6.946,-4.936c-1.723,-4.231 -2.232,-10.119 -1.332,-15.389c0.843,-4.932 1.704,-9.892 2.566,-14.809l1.236,-7.115c14.136,-81.455 28.754,-165.688 4.03,-234.435c-12.761,-35.477 -31.863,-56.971 -53.775,-60.536c-2.145,-0.338 -4.322,-0.512 -6.477,-0.512c-29.559,0 -58.493,31.681 -73.719,80.702c-7.689,24.735 -11.647,53.01 -11.445,81.769c0.045,6.492 -1.82,12.341 -4.661,14.635c-2.844,2.295 -6.053,0.512 -8.019,-4.424c-3.9,-9.781 -7.545,-19.181 -11.14,-28.677c-6.634,-17.494 -6.159,-38.134 14.844,-102.365l1.197,-3.695c12.624,-38.945 31.707,-97.8 11.856,-155.052c-12.081,-34.892 -31.063,-41.225 -46.231,-42.838c-1.862,-0.188 -3.684,-0.299 -5.484,-0.338l-0.161,0l-1.725,-0.019c-26.352,0 -49.582,16.828 -69.044,50.035c-1.545,2.632 -3.54,3.796 -5.493,3.202c-1.959,-0.579 -3.72,-2.874 -4.87,-6.322c-6.331,-19.036 -14.045,-36.41 -22.917,-51.615c-20.717,-35.439 -46.584,-56.6 -69.195,-56.609c-1.704,0 -3.362,0.13 -5.054,0.391c-29.652,4.656 -42.394,49.074 -44.29,85.672c-1.905,37.144 3.456,70.307 16.38,101.375c1.819,4.366 2.323,10.568 1.296,15.987c-1.022,5.43 -3.401,9.139 -6.127,9.583c-0.427,0.068 -0.842,0.145 -1.291,0.252c-11.247,2.357 -21.185,12.056 -28.731,28.029c-19.867,42.119 -16.519,103.596 -12.64,174.773c0.36,6.521 0.722,13.196 1.077,19.997c0.418,8.018 -2.131,15.369 -5.841,16.833c-3.725,1.483 -7.325,-3.429 -8.28,-11.23c-7.628,-62.391 -22.488,-98.008 -45.497,-108.939c-7.435,-3.685 -14.679,-4.308 -21.411,-1.855c-0.424,0.15 -0.844,0.314 -1.262,0.493c-2.542,1.082 -5.165,-0.874 -6.854,-5.091c-1.688,-4.207 -2.184,-10.037 -1.304,-15.249l0.929,-5.409c20.633,-117.382 -8.301,-183.429 -17.669,-200.881c-1.812,-3.4 -3.379,-5.863 -4.416,-7.496l-53.028,-83.711l-7.905,139.886c-4.102,72.538 -17.268,124.399 -31.207,179.294l-4.824,19.146c-1.004,4.029 -2.794,6.893 -4.88,7.82c-2.085,0.947 -4.264,-0.154 -5.94,-2.98l-0.823,-1.352c-10.387,-16.534 -23.856,-21.745 -36.941,-13.988c-15.77,9.385 -30.657,36.747 -40.855,75.113c-16.797,62.681 -16.716,139.663 0.216,205.933c4.74,18.504 8.595,35.245 11.775,51.156c1,5.008 0.688,10.78 -0.821,15.166c-1.512,4.391 -3.989,6.757 -6.528,6.192c-6.149,-1.318 -12.468,0.213 -18.576,4.642c-6.492,4.729 -12.533,12.462 -18.492,23.682c-7.546,14.07 -13.356,32.212 -17.273,53.943c-1.126,6.255 -3.998,10.163 -7.145,9.829c-3.129,-0.391 -5.779,-5.066 -6.552,-11.558c-4.154,-34.859 -11.184,-56.909 -22.8,-71.505c-6.451,-8.12 -13.817,-12.419 -21.305,-12.419l-0.693,0.02c-2.455,-0.068 -4.69,-2.411 -6.058,-6.661c-1.37,-4.251 -1.651,-9.689 -0.749,-14.466c7.906,-42.032 9.752,-75.727 5.981,-109.267c-4.778,-42.621 -21.338,-71.25 -41.208,-71.25c-6.83,0 -13.809,3.497 -20.743,10.395c-4.56,4.545 -9.228,10.785 -13.87,18.552l-8.443,14.128l-3.943,22.263c-0.211,1.193 -0.422,2.381 -0.641,3.497l-1.32,6.762c-1.032,5.25 -3.333,8.853 -5.985,9.365c-2.66,0.556 -5.223,-2.135 -6.682,-6.902c-2.174,-7.1 -4.692,-13.829 -7.49,-19.968c-12.132,-26.71 -28.899,-41.418 -47.24,-41.418c-4.795,0 -9.576,1.092 -14.292,3.115c-0.146,3.918 -16.072,0.599 -31.168,28.102l-6.188,13.38c-2.085,5.269 -4.108,11.239 -6.014,18.103c-23.604,85.039 -51,233.406 -51,233.406l0,-995.18l1920,0l0,942.599c-13.637,-32.27 -35.642,-31.854 -43.447,-30.55" style="fill:#f8a43c;fill-rule:nonzero;"/><path d="M1886.3,2090.32c-22.263,-44.949 -49.378,-117.213 -59.407,-175.324l-472.143,0c-3.062,212.004 48.963,400.799 51.706,410.599c1.421,5.048 4.512,7.004 7.135,4.458c2.609,-2.555 3.85,-8.713 2.846,-14.166c-8.702,-47.36 -11.32,-98.665 -5.961,-116.831c1.195,-4.038 2.397,-4.869 3.312,-5.13c2.167,-0.613 8.69,0.821 22.303,27.493c40.121,78.581 32.299,183.25 32.218,184.289c-0.452,5.496 1.149,10.79 3.763,12.423c2.604,1.613 5.438,-0.908 6.638,-5.961c19.582,-82.218 9.449,-150.265 -2.277,-229.054c-3.579,-24.039 -7.277,-48.895 -10.536,-76.239c-4.827,-40.452 3.105,-72.234 8.265,-87.584c6.687,-19.91 16.03,-34.193 23.806,-36.419c3.485,-0.991 6.103,0.579 8.004,4.81c2.133,4.729 6.545,20.63 1.433,65.951c-18.423,163.495 51.688,309.413 54.684,315.533c1.888,3.878 4.893,4.352 7.108,1.14c2.208,-3.203 2.974,-9.173 1.805,-14.095c-14.433,-60.666 -13.121,-225.629 7.942,-304.921c6.818,-25.667 14.688,-38.462 23.611,-38.071c10.872,0.483 18.809,10.54 23.585,29.875c11.738,47.543 2.486,141.402 -20.621,209.231c-35.647,104.606 29.614,345.939 32.41,356.159c1.293,4.739 4.07,6.84 6.621,4.999c2.537,-1.835 4.078,-7.095 3.658,-12.461c-3.022,-38.767 -7.714,-147.967 6.662,-187.303c4.039,-11.066 9.13,-15.215 15.936,-13.21c30.3,8.926 34.335,194.789 29.767,309.847c-0.225,5.608 1.625,10.641 4.332,11.752c2.712,1.111 5.424,-2.024 6.36,-7.347c2.028,-11.51 49.121,-283.465 7.397,-413.343c-29.981,-93.327 -36.17,-232.686 -22.97,-299.381c2.717,-13.736 7.593,-30.917 15.403,-34.805c1.778,-0.889 3.562,-1.585 5.273,-2.073c8.306,-2.366 19.881,-1.222 27.866,17.688c10.515,24.934 11.374,72.472 2.412,133.887c-19.557,133.978 70.668,380.87 74.518,391.317c1.637,4.42 4.627,5.69 7.039,3.005c2.412,-2.696 3.514,-8.535 2.59,-13.747c-0.401,-2.265 -39.838,-227.533 -16.282,-306.249c4.162,-13.906 10.056,-21.784 18.002,-24.05l0.507,-0.14c10.754,-2.714 19.293,2.71 26.095,16.582c26.328,53.682 16.963,209.483 16.867,211.043c-0.348,5.632 1.411,10.863 4.111,12.172c2.703,1.323 5.492,-1.652 6.507,-6.96c1.737,-9.091 42.122,-223.761 -0.3,-309.389" style="fill:#f8cb53;fill-rule:nonzero;"/><path d="M33.703,2090.32c22.265,-44.949 49.378,-117.213 59.407,-175.324l472.145,0c3.06,212.004 -48.965,400.799 -51.708,410.599c-1.421,5.048 -4.512,7.004 -7.135,4.458c-2.609,-2.555 -3.85,-8.713 -2.846,-14.166c8.702,-47.36 11.32,-98.665 5.961,-116.831c-1.195,-4.038 -2.397,-4.869 -3.312,-5.13c-2.169,-0.613 -8.69,0.821 -22.303,27.493c-40.121,78.581 -32.299,183.25 -32.218,184.289c0.452,5.496 -1.149,10.79 -3.763,12.423c-2.604,1.613 -5.438,-0.908 -6.638,-5.961c-19.582,-82.218 -9.449,-150.265 2.277,-229.054c3.579,-24.039 7.277,-48.895 10.536,-76.239c4.827,-40.452 -3.105,-72.234 -8.265,-87.584c-6.687,-19.91 -16.03,-34.193 -23.803,-36.419c-3.485,-0.991 -6.106,0.579 -8.007,4.81c-2.133,4.729 -6.545,20.63 -1.433,65.951c18.423,163.495 -51.688,309.413 -54.684,315.533c-1.888,3.878 -4.893,4.352 -7.108,1.14c-2.208,-3.203 -2.974,-9.173 -1.805,-14.095c14.436,-60.666 13.121,-225.629 -7.942,-304.921c-6.816,-25.667 -14.688,-38.462 -23.609,-38.071c-10.876,0.483 -18.811,10.54 -23.589,29.875c-11.736,47.543 -2.487,141.402 20.623,209.231c35.647,104.606 -29.614,345.939 -32.41,356.159c-1.293,4.739 -4.07,6.84 -6.621,4.999c-2.537,-1.835 -4.08,-7.095 -3.658,-12.461c3.022,-38.767 7.714,-147.967 -6.662,-187.303c-4.039,-11.066 -9.13,-15.215 -15.936,-13.21c-30.3,8.926 -34.332,194.789 -29.767,309.847c0.225,5.608 -1.625,10.641 -4.332,11.752c-2.712,1.111 -5.424,-2.024 -6.358,-7.347c-2.03,-11.51 -49.123,-283.465 -7.399,-413.343c29.981,-93.327 36.17,-232.686 22.97,-299.381c-2.717,-13.736 -7.593,-30.917 -15.403,-34.805c-1.778,-0.889 -3.559,-1.585 -5.273,-2.073c-8.306,-2.366 -19.879,-1.222 -27.864,17.688c-10.517,24.934 -11.376,72.472 -2.414,133.887c19.557,133.978 -70.666,380.87 -74.518,391.317c-1.637,4.42 -4.627,5.69 -7.039,3.005c-2.412,-2.696 -3.514,-8.535 -2.59,-13.747c0.401,-2.265 39.838,-227.533 16.282,-306.249c-4.162,-13.906 -10.056,-21.784 -18.002,-24.05l-0.507,-0.14c-10.754,-2.714 -19.293,2.71 -26.095,16.582c-26.33,53.682 -16.963,209.483 -16.867,211.043c0.348,5.632 -1.411,10.863 -4.111,12.172c-2.703,1.323 -5.492,-1.652 -6.507,-6.96c-1.737,-9.091 -42.122,-223.761 0.3,-309.389" style="fill:#f8cb53;fill-rule:nonzero;"/><path d="M1154.37,1914.99c-8.064,23.015 -15.382,36.163 -16.16,37.525c-1.144,2.024 -2.755,2.633 -4.195,1.623c-1.442,-1.014 -2.491,-3.497 -2.738,-6.492c-1.018,-12.263 -2.465,-23.184 -4.267,-32.656l27.36,0Z" style="fill:#f8cb53;fill-rule:nonzero;"/><path d="M1083.86,1914.99c-0.308,13.017 2.337,26.401 7.754,38.293c34.666,76.157 -13.022,197.209 -15.07,202.32c-1.274,3.183 -3.525,4.076 -5.32,2.12c-1.8,-1.961 -2.616,-6.211 -1.935,-10.047c0.089,-0.531 9.255,-53.131 0.648,-81.223c-2.861,-9.341 -7.389,-14.77 -13.848,-16.611c-11.465,-3.26 -18.794,0.459 -21.902,11.448c-4.582,16.195 -3.84,57.99 25.709,165.205c42.82,155.37 -42.605,299.68 -43.474,301.115c-1.478,2.463 -3.607,2.603 -5.165,0.362c-1.56,-2.246 -2.15,-6.284 -1.43,-9.83c8.131,-40.075 26.364,-152.361 13.241,-190.133c-2.976,-8.563 -7.503,-12.635 -13.836,-12.423c-43.695,1.3 -45.178,113.576 -45.219,118.285c-0.033,3.584 -1.219,6.724 -2.942,7.806c-1.721,1.048 -3.607,-0.16 -4.663,-3.067c-21.192,-58.073 -12.008,-139.094 -3.905,-210.579c6.06,-53.465 11.784,-103.979 2.025,-128.395c-6.187,-15.471 -13.975,-18.089 -19.416,-17.543c-12.343,1.208 -25.168,19.403 -30.501,43.249c-4.81,21.533 -2.895,44.384 5.39,64.357c32.823,79.098 -10.195,185.974 -10.632,187.046c-1.169,2.855 -3.144,3.845 -4.86,2.44c-1.716,-1.392 -2.767,-4.845 -2.585,-8.506c2.664,-53.61 -6.228,-72.616 -25.711,-114.267c-7.809,-16.697 -17.529,-37.481 -28.517,-65.115c-21.196,-53.329 -6.739,-116.71 3.819,-162.987c5.251,-23.035 10.68,-46.848 7.8,-55.769c-1.438,-4.449 -5.707,-6.859 -12.341,-6.951c-1.044,-0.024 -2.062,0.02 -3.07,0.121c-44.853,4.405 -50.8,125.216 -50.856,126.448c-0.177,3.961 -1.747,7.124 -3.744,7.535c-2.001,0.43 -3.861,-2.014 -4.456,-5.811c-0.855,-5.472 -14.775,-97.032 -6.732,-178.893l315.744,0Z" style="fill:#f8cb53;fill-rule:nonzero;"/><path d="M1086.09,1030.35c-0.101,-0.053 -0.199,-0.121 -0.295,-0.193c-1.532,-1.14 -2.72,-3.768 -3.192,-7.081c-0.502,-3.488 -12.022,-86.266 13.905,-151.082c1.111,-2.772 2.801,-4.163 4.493,-3.724c1.706,0.449 3.178,2.686 3.941,5.961c7.987,34.356 15.221,110.88 -14.59,154.612c-1.248,1.835 -2.813,2.376 -4.262,1.507" style="fill:#7a171d;fill-rule:nonzero;"/><path d="M0,297.662c10.378,-35.376 21.233,-57.329 22.018,-59.531c1.588,-3.27 4.005,-1.454 5.692,4.216c1.695,5.7 2.156,13.617 1.066,18.654c-17.146,78.823 -12.228,163.664 -7.075,208.189c6.05,53.532 16.769,92.303 24.029,105.359c4.884,8.839 6.535,4.507 7.557,-1.444c4.944,-28.744 -0.813,-68.559 -6.83,-114.614c-6.161,-46.64 -12.418,-99.332 -8.503,-147.734c7.42,-94.328 54.441,-125.41 56.834,-127.902c1.92,-1.333 4.195,1.531 5.626,7.052c1.428,5.53 1.672,12.442 0.58,17.045c-8.702,37.429 -27.739,140.924 -9.144,187.144c1.287,3.173 2.489,5.67 3.56,7.423c2.215,3.628 3.403,3.367 4.188,2.734c6.172,-4.97 10.149,-51.503 14.493,-101.191c3.816,-43.741 8.254,-93.545 15.651,-140.615c21.201,-136.03 97.336,-159.626 101.186,-162.34c2.078,-0.715 4.27,2.202 5.566,7.371c1.288,5.182 1.43,11.645 0.338,16.364c-30.965,135.055 -70.68,352.812 -48.475,413.618c1.704,4.695 3.283,7.994 4.697,9.806c1.137,1.473 2.587,2.666 4.598,0.333c13.762,-15.751 22.452,-148.164 25.546,-229.054c0.225,-6.246 2.023,-10.564 4.411,-10.622c2.383,-0.072 4.802,4.135 5.942,10.337c36.336,193.147 22.299,313.108 -17.901,432.784c-17.016,50.856 -10.99,103.007 -7.402,123.274c2.89,16.573 6.773,28.957 10.318,36.632c0.067,-1.753 0.088,-3.507 0.189,-5.279c2.371,-41.728 9.12,-73.239 17.16,-97.076c11.379,-63.502 35.424,-85.822 36.78,-87.107c2.115,-1.893 4.882,-0.111 6.953,4.488c2.071,4.598 3.005,11.041 2.33,16.171c-0.016,0.13 -0.031,0.261 -0.048,0.401c0.723,0.821 1.426,1.816 2.062,3.134c2.074,4.28 3.199,10.342 2.914,15.65c-1.656,29.387 -2.012,115.962 16.315,133.278c1.32,1.251 2.765,2.212 4.296,2.835c7.903,3.285 18.189,3.096 21.984,-15.572c6.197,-30.208 -6.895,-94.898 -32.424,-175.672c-21.648,-68.911 -23.767,-144.899 -7.625,-209.502c19.838,-78.828 59.954,-118.763 99.005,-97.453c2.625,1.411 4.879,6.574 5.673,12.935c0.8,6.371 -0.019,12.694 -2.076,15.969c-0.417,1.401 -46.262,73.147 -40.833,158.133c2.762,42.37 18.333,83.89 47.299,121.251c50.033,64.139 83.477,149.531 92.191,243.762c8.664,93.217 -9.194,180.632 -46.07,217.694c-14.381,14.471 -20.086,36.221 -15.888,61.449c4.099,24.677 17.268,47.48 32.736,56.585c0.002,0.01 0.005,0 0.007,0c23.494,13.737 45.48,-4.661 60.192,-51.349c17.496,-103.756 -7.337,-201.619 -7.466,-202.465c-1.793,-6.883 -0.843,-14.224 2.193,-17.05c3.041,-2.826 7.191,-0.242 9.667,6.009c2.189,5.762 45.245,116.773 50.837,247.293c5.208,34.825 15.703,57.232 29.683,62.951c10.808,4.395 21.824,-2.754 27.399,-17.804c6.281,-16.993 4.485,-40.356 -4.793,-64.482c-42.598,-111.282 33.684,-230.171 36.629,-236.43c2.013,-3.217 5.165,-2.855 7.471,0.83c2.304,3.686 3.084,9.646 1.846,14.095c-0.147,0.772 -17.043,61.27 -7.256,101.041c3.257,13.288 9.152,22.784 18.015,29c15.741,10.969 26.265,10.598 31.375,-1.004c7.74,-17.964 8.875,-66.236 -22.872,-225.065c-44.057,-230.721 83.021,-390.134 83.345,-393.945c2.143,-2.802 4.944,-1.923 6.801,2.135c1.865,4.091 2.312,10.288 1.076,15.089c-13.844,55.344 -47.7,204.092 -33.003,262.131c3.346,13.365 9.175,21.368 17.801,24.382c59.683,21.065 69.382,-136.687 69.754,-143.831c0.295,-5.101 2.107,-9.086 4.5,-9.912c2.38,-0.806 4.824,1.686 6.052,6.255c24.632,91.304 7.313,200.132 -8.558,290.813c-11.791,68.08 -23.04,129.099 -10.836,163.031c7.738,21.509 18.547,27.474 26.234,28.715c17.446,2.826 36.531,-15.49 45.315,-43.785c7.937,-25.527 6.475,-55.054 -3.951,-83.295c-40.917,-111.403 24.903,-246.612 25.21,-248.757c1.759,-3.666 4.498,-4.535 6.766,-2.125c2.263,2.405 3.506,7.516 3.06,12.563c-6.555,73.722 4.514,102.065 29.431,161.819c9.989,23.788 22.488,53.035 36.552,90.232c27.211,71.717 4.161,148.014 -13.083,200.754c-8.539,26.392 -17.424,52.702 -13.766,63.241c1.824,5.279 7.766,8.675 17.179,9.68c1.486,0.149 2.935,0.236 4.368,0.251c64.037,1.772 77.549,-142.296 77.611,-144.918c0.411,-4.85 2.748,-8.695 5.571,-9.178c0.845,-0.159 1.656,0.039 2.405,0.474c0.379,-1.396 0.64,-2.348 0.748,-2.729c1.57,-5.57 5.199,-8.564 8.53,-7.052c3.338,1.521 5.407,7.09 4.858,13.113c-8.626,94.748 13.605,148.706 27.775,173.001c17.09,29.227 36.585,40.105 47.441,38.443c7.332,-1.149 8.628,-6.81 8.935,-12.766c1.476,-28.763 -11.676,-49.654 -26.849,-74.722c-15.362,-25.397 -32.717,-55.092 -36.17,-100.539c-6.596,-89 48.7,-199.639 50.81,-205.02c2.174,-4.419 5.496,-5.902 8.201,-3.637c2.705,2.266 4.157,7.733 3.571,13.496c-4.594,47.277 -10.829,164.47 19.123,170.344c2.055,0.439 3.891,0.488 5.458,0.149c3.23,-0.681 4.615,-2.845 5.462,-4.632c6.612,-14.026 4.191,-58.256 1.536,-106.982c-2.34,-42.8 -5.023,-92.483 -3.849,-145.435c4.219,-154.787 87.112,-297.826 90.014,-304.723c2.172,-3.836 5.045,-4.628 7.291,-2.029c2.244,2.594 3.43,8.081 2.995,13.915c-11.86,168.05 -24.144,417.126 8.717,432.051c2.527,1.304 4.716,1.632 6.511,0.985c1.452,-0.536 3.195,-1.753 5.069,-6.806c12.905,-33.946 3.823,-159.655 -5.035,-234.865c-0.684,-5.752 0.622,-12.288 3.202,-16.031c2.577,-3.738 5.812,-3.83 7.958,-0.212c66.931,111.213 66.864,235.608 39.706,392.708c-11.715,66.386 0.852,99.11 6.945,110.47c0.641,1.193 1.299,2.222 1.961,3.265c5.196,-91.956 22.519,-157.037 37.483,-216.109c17.691,-70.414 32.153,-132.544 23.563,-241.999c-0.429,-5.425 0.881,-11.496 3.269,-15.201c2.393,-3.719 5.364,-4.289 7.459,-1.463c1.64,2.526 43.767,60.256 34.942,183.361c-1.872,25.102 1.056,31.961 2.014,33.502c0.571,0.913 1.579,2.004 3.708,0.739c4.708,-2.802 12.081,-15.205 17.832,-36.84c4.92,-18.364 14.385,-67.143 -0.584,-125.718c-35.292,-137.813 -44.052,-265.222 4.589,-445.42c1.536,-5.791 4.327,-8.965 6.871,-7.82c2.537,1.159 4.229,6.371 4.145,12.819c-0.917,83.914 1.15,222.094 14.904,244.337c2.019,3.309 3.627,2.787 4.93,1.835c1.608,-1.173 3.485,-3.757 5.568,-7.704c27.398,-50.595 -3.617,-291.474 -29.832,-443.164c-0.919,-5.298 -0.444,-11.814 1.207,-16.543c1.642,-4.7 4.133,-6.699 6.317,-5.047c3.636,4.149 84.938,63.1 101.414,213.414c5.607,51.817 7.719,104.939 9.413,151.42c1.939,52.817 3.521,101.983 10.063,110.199c0.835,1.053 2.143,1.942 4.827,-0.58c1.3,-1.227 2.791,-3.125 4.418,-5.661c23.741,-36.882 8.549,-152.521 0.835,-195.335c-0.957,-5.255 -0.29,-12.201 1.625,-17.132c1.925,-4.927 4.651,-6.671 6.732,-4.318c2.302,3.477 54.473,60.758 57.343,161.548c1.452,51.547 -9.348,101.365 -19.495,144.865c-9.977,43.003 -19.128,79.683 -15.61,111.001c0.728,6.482 2.264,11.675 8.386,5.594c1.906,-1.903 4.085,-4.879 6.422,-8.796c0.399,-2.246 0.802,-4.511 1.246,-6.806c9.36,-48.069 17.616,-86.676 24.077,-117.792c8.237,-39.766 13.833,-68.704 16.044,-95.762c-0.55,-24.658 -2.686,-50.827 -7.171,-77.809c-0.963,-5.781 0.079,-13.625 2.433,-18.484c1.901,-3.908 4.2,-4.889 5.902,-2.889c0.621,-0.068 1.226,0.058 1.761,0.7c0.468,2.169 60.852,70.284 38.024,212.555c-0.209,1.266 -0.387,2.497 -0.579,3.739c-0.264,8.428 -0.761,16.915 -1.581,25.488c-0.473,4.951 -1.02,9.941 -1.618,14.94c0.178,16.442 2.568,30.265 7.19,40.438c7.632,16.799 20.376,20.982 32.021,11.621c4.097,-9.288 6.847,-15.109 7.373,-16.191c2.129,-4.439 4.682,-5.54 6.386,-2.936c4.157,-8.975 8.235,-21.842 10.719,-39.917c6.007,-44.244 -7.755,-93.516 -21.9,-147.488c-19.102,-71.799 -39.864,-157.553 -28.599,-259.769c0.55,-5.105 2.139,-9.346 3.922,-10.549c1.788,-1.193 3.386,0.913 3.984,5.251c0.42,5.772 20.496,141.001 59.82,72.027c5.587,-9.936 8.803,-22.011 9.941,-36.801c4.901,-64.4 -28.649,-167.567 -42.199,-205.329c-1.196,-3.246 -1.352,-9.037 -0.392,-14.046c0.968,-5.018 2.796,-7.974 4.45,-7.182c1.382,3.873 70.457,30.685 82.824,191.683l0,1608.36l-1920,0l0,-1627.35Z" style="fill:#7a171d;fill-rule:nonzero;"/><path d="M833.911,1381.44c0.101,-0.063 0.199,-0.131 0.295,-0.203c1.532,-1.131 2.72,-3.768 3.192,-7.081c0.502,-3.478 12.022,-86.266 -13.905,-151.067c-1.111,-2.778 -2.801,-4.169 -4.493,-3.729c-1.706,0.439 -3.178,2.685 -3.941,5.96c-7.987,34.347 -15.221,110.881 14.59,154.617c1.248,1.831 2.813,2.372 4.262,1.503" style="fill:#e97f3c;fill-rule:nonzero;"/><path d="M1338.29,1324.18c0.168,0 0.343,-0.01 0.514,-0.048c1.526,-0.343 2.894,-2.155 3.712,-4.917c0.432,-1.469 42.893,-148.005 2.657,-296.536c-0.926,-3.439 -2.664,-5.492 -4.521,-5.333c-1.851,0.15 -3.514,2.488 -4.316,6.052c-1.852,8.236 -44.8,202.566 -1.634,297.546c0.948,2.086 2.244,3.236 3.588,3.236" style="fill:#e97f3c;fill-rule:nonzero;"/><path d="M1920,648.74c-10.378,-35.366 -21.233,-57.319 -22.018,-59.531c-1.588,-3.261 -4.005,-1.454 -5.692,4.226c-1.695,5.69 -2.158,13.616 -1.066,18.659c17.146,78.808 12.228,163.659 7.075,208.183c-6.05,53.532 -16.769,92.304 -24.029,105.36c-4.884,8.829 -6.535,4.497 -7.557,-1.44c-4.944,-28.744 0.811,-68.573 6.83,-114.619c6.161,-46.639 12.418,-99.341 8.503,-147.734c-7.42,-94.328 -54.441,-125.419 -56.834,-127.911c-1.92,-1.324 -4.195,1.531 -5.626,7.061c-1.428,5.521 -1.672,12.433 -0.58,17.036c8.702,37.429 27.739,140.938 9.144,187.143c-1.287,3.188 -2.489,5.681 -3.56,7.434c-2.215,3.627 -3.403,3.357 -4.188,2.739c-6.172,-4.98 -10.149,-51.509 -14.493,-101.196c-3.816,-43.752 -8.254,-93.555 -15.651,-140.625c-21.201,-136.031 -97.339,-159.626 -101.186,-162.331c-2.078,-0.719 -4.27,2.193 -5.566,7.376c-1.288,5.168 -1.43,11.641 -0.338,16.35c30.965,135.055 70.68,352.821 48.473,413.618c-1.702,4.71 -3.281,8.004 -4.695,9.82c-1.137,1.468 -2.587,2.652 -4.598,0.319c-13.762,-15.742 -22.452,-148.15 -25.546,-229.055c-0.225,-6.245 -2.023,-10.553 -4.411,-10.621c-2.383,-0.063 -4.802,4.149 -5.942,10.336c-36.336,193.162 -22.299,313.109 17.901,432.785c17.016,50.871 10.988,103.017 7.402,123.274c-2.89,16.572 -6.773,28.967 -10.315,36.642c-0.07,-1.754 -0.091,-3.507 -0.192,-5.28c-2.371,-41.737 -9.12,-73.239 -17.16,-97.076c-11.379,-63.511 -35.424,-85.826 -36.78,-87.106c-2.115,-1.894 -4.882,-0.111 -6.955,4.487c-2.069,4.603 -3.005,11.042 -2.328,16.162c0.016,0.13 0.031,0.26 0.048,0.401c-0.723,0.825 -1.426,1.816 -2.062,3.134c-2.074,4.28 -3.199,10.351 -2.914,15.664c1.656,29.382 2.009,115.948 -16.315,133.273c-1.32,1.251 -2.765,2.212 -4.296,2.836c-7.903,3.274 -18.189,3.096 -21.984,-15.568c-6.197,-30.212 6.895,-94.912 32.424,-175.686c21.651,-68.902 23.767,-144.89 7.625,-209.492c-19.838,-78.828 -59.954,-118.764 -99.005,-97.463c-2.625,1.42 -4.879,6.574 -5.673,12.935c-0.8,6.371 0.019,12.694 2.076,15.969c0.417,1.405 46.262,73.152 40.833,158.133c-2.762,42.37 -18.333,83.9 -47.299,121.251c-50.033,64.139 -83.477,149.546 -92.191,243.762c-8.664,93.226 9.194,180.642 46.068,217.694c14.383,14.481 20.088,36.231 15.89,61.449c-4.099,24.677 -17.268,47.49 -32.738,56.594l-0.005,0c-23.494,13.737 -45.48,-4.656 -60.192,-51.344c-17.496,-103.77 7.337,-201.624 7.466,-202.479c1.793,-6.883 0.843,-14.215 -2.193,-17.05c-3.039,-2.816 -7.191,-0.242 -9.667,6.023c-2.189,5.757 -45.245,116.768 -50.837,247.288c-5.208,34.83 -15.703,57.227 -29.683,62.941c-10.808,4.401 -21.824,-2.743 -27.399,-17.794c-6.281,-17.002 -4.485,-40.356 4.793,-64.482c42.598,-111.291 -33.684,-230.17 -36.629,-236.44c-2.013,-3.207 -5.165,-2.854 -7.471,0.831c-2.304,3.7 -3.084,9.656 -1.846,14.099c0.147,0.768 17.043,61.266 7.256,101.047c-3.257,13.278 -9.152,22.788 -18.015,28.99c-15.741,10.969 -26.265,10.597 -31.375,-1.005c-7.74,-17.953 -8.875,-66.235 22.872,-225.055c44.057,-230.73 -83.021,-390.144 -83.345,-393.954c-2.143,-2.802 -4.944,-1.923 -6.801,2.144c-1.863,4.082 -2.312,10.293 -1.076,15.089c13.844,55.344 47.7,204.083 33.003,262.131c-3.348,13.365 -9.175,21.359 -17.801,24.378c-59.683,21.069 -69.382,-136.683 -69.754,-143.836c-0.295,-5.101 -2.107,-9.076 -4.5,-9.912c-2.38,-0.797 -4.824,1.696 -6.052,6.265c-24.632,91.294 -7.311,200.132 8.558,290.817c11.791,68.076 23.04,129.085 10.836,163.027c-7.738,21.513 -18.547,27.464 -26.234,28.715c-17.446,2.816 -36.531,-15.5 -45.315,-43.781c-7.937,-25.532 -6.475,-55.068 3.951,-83.3c40.917,-111.402 -24.903,-246.621 -25.21,-248.766c-1.759,-3.656 -4.498,-4.526 -6.766,-2.116c-2.263,2.396 -3.506,7.516 -3.06,12.568c6.555,73.708 -4.514,102.066 -29.431,161.81c-9.989,23.793 -22.488,53.039 -36.552,90.241c-27.211,71.703 -4.164,148.01 13.083,200.74c8.539,26.402 17.424,52.711 13.766,63.251c-1.826,5.269 -7.766,8.675 -17.179,9.679c-1.486,0.15 -2.935,0.227 -4.368,0.251c-64.037,1.763 -77.549,-142.305 -77.611,-144.928c-0.411,-4.839 -2.748,-8.684 -5.571,-9.177c-0.845,-0.15 -1.656,0.048 -2.405,0.483c-0.379,-1.396 -0.64,-2.347 -0.748,-2.739c-1.57,-5.559 -5.199,-8.554 -8.53,-7.042c-3.338,1.512 -5.407,7.081 -4.858,13.114c8.626,94.743 -13.605,148.705 -27.775,172.991c-17.088,29.227 -36.585,40.104 -47.441,38.443c-7.332,-1.15 -8.628,-6.811 -8.935,-12.752c-1.476,-28.768 11.676,-49.653 26.849,-74.727c15.362,-25.396 32.717,-55.092 36.17,-100.539c6.596,-89 -48.7,-199.648 -50.812,-205.019c-2.172,-4.429 -5.494,-5.903 -8.201,-3.637c-2.703,2.265 -4.155,7.723 -3.569,13.485c4.594,47.283 10.829,164.471 -19.123,170.345c-2.055,0.439 -3.891,0.502 -5.458,0.159c-3.23,-0.681 -4.615,-2.845 -5.462,-4.637c-6.612,-14.027 -4.191,-58.261 -1.536,-106.973c2.34,-42.814 5.023,-92.487 3.847,-145.44c-4.217,-154.781 -87.11,-297.826 -90.012,-304.733c-2.172,-3.82 -5.045,-4.627 -7.291,-2.028c-2.244,2.594 -3.43,8.095 -2.995,13.925c11.86,168.04 24.144,417.125 -8.717,432.04c-2.527,1.305 -4.716,1.633 -6.511,0.986c-1.452,-0.522 -3.195,-1.744 -5.072,-6.796c-12.902,-33.951 -3.82,-159.65 5.038,-234.865c0.684,-5.763 -0.622,-12.283 -3.202,-16.031c-2.577,-3.749 -5.812,-3.826 -7.956,-0.223c-66.933,111.224 -66.866,235.609 -39.705,392.709c11.712,66.385 -0.855,99.119 -6.948,110.47c-0.641,1.203 -1.299,2.236 -1.961,3.275c-5.196,-91.961 -22.519,-157.037 -37.483,-216.119c-17.691,-70.404 -32.153,-132.534 -23.563,-241.999c0.429,-5.425 -0.881,-11.496 -3.269,-15.201c-2.393,-3.719 -5.364,-4.279 -7.459,-1.454c-1.64,2.526 -43.767,60.256 -34.942,183.357c1.872,25.102 -1.056,31.966 -2.014,33.506c-0.571,0.913 -1.579,1.995 -3.708,0.735c-4.708,-2.797 -12.081,-15.201 -17.829,-36.835c-4.925,-18.364 -14.386,-67.153 0.581,-125.714c35.292,-137.818 44.052,-265.227 -4.587,-445.42c-1.538,-5.791 -4.329,-8.969 -6.873,-7.834c-2.537,1.159 -4.229,6.371 -4.145,12.834c0.917,83.899 -1.15,222.079 -14.904,244.327c-2.019,3.313 -3.627,2.782 -4.93,1.84c-1.608,-1.174 -3.485,-3.758 -5.568,-7.714c-27.398,-50.586 3.617,-291.464 29.83,-443.154c0.921,-5.299 0.446,-11.824 -1.205,-16.543c-1.642,-4.71 -4.133,-6.71 -6.319,-5.048c-3.634,4.149 -84.936,63.101 -101.412,213.414c-5.607,51.823 -7.719,104.945 -9.413,151.41c-1.942,52.823 -3.521,101.984 -10.063,110.209c-0.835,1.053 -2.143,1.932 -4.827,-0.579c-1.3,-1.232 -2.791,-3.125 -4.418,-5.661c-23.741,-36.883 -8.549,-152.531 -0.835,-195.33c0.957,-5.27 0.29,-12.216 -1.625,-17.133c-1.925,-4.931 -4.651,-6.685 -6.732,-4.323c-2.302,3.478 -54.473,60.758 -57.346,161.539c-1.449,51.547 9.351,101.365 19.498,144.875c9.977,43.002 19.128,79.682 15.61,110.991c-0.728,6.482 -2.264,11.684 -8.386,5.594c-1.906,-1.894 -4.085,-4.879 -6.422,-8.786c-0.399,-2.256 -0.802,-4.512 -1.246,-6.806c-9.362,-48.079 -17.616,-86.677 -24.077,-117.802c-8.237,-39.767 -13.833,-68.694 -16.044,-95.753c0.55,-24.667 2.686,-50.827 7.171,-77.818c0.963,-5.781 -0.079,-13.616 -2.436,-18.475c-1.898,-3.917 -4.197,-4.898 -5.901,-2.888c-0.619,-0.068 -1.224,0.062 -1.759,0.69c-0.468,2.169 -60.852,70.288 -38.026,212.56c0.209,1.26 0.389,2.492 0.581,3.748c0.264,8.424 0.761,16.91 1.581,25.474c0.473,4.951 1.023,9.94 1.618,14.94c-0.178,16.441 -2.568,30.275 -7.19,40.437c-7.632,16.8 -20.376,20.983 -32.021,11.631c-4.097,-9.288 -6.85,-15.108 -7.373,-16.2c-2.129,-4.429 -4.682,-5.53 -6.386,-2.927c-4.157,-8.984 -8.235,-21.842 -10.719,-39.926c-6.007,-44.234 7.755,-93.506 21.9,-147.488c19.102,-71.79 39.864,-157.549 28.601,-259.764c-0.552,-5.11 -2.141,-9.337 -3.924,-10.539c-1.788,-1.193 -3.386,0.908 -3.982,5.236c-0.422,5.772 -20.498,141.001 -59.822,72.041c-5.587,-9.94 -8.803,-22.025 -9.941,-36.801c-4.901,-64.414 28.649,-167.581 42.199,-205.343c1.196,-3.236 1.352,-9.028 0.392,-14.046c-0.968,-5.009 -2.796,-7.965 -4.45,-7.182c-1.382,3.883 -70.459,30.685 -82.824,191.693l0,1257.27l1920,0l0,-1276.27Z" style="fill:#e97f3c;fill-rule:nonzero;"/><path d="M1876.55,1012.97c-0.915,-0.613 -1.884,-0.85 -2.856,-0.652c-1.32,0.28 -2.652,0.421 -3.982,0.421c-17.429,0 -32.757,-23.644 -39.048,-60.227c-4.797,-27.923 -5.498,-58.59 -2.203,-96.511c0.391,-4.502 -0.194,-9.139 -1.565,-12.655c-1.368,-3.516 -3.42,-5.55 -5.561,-5.55c-4.91,0 -9.794,-1.903 -14.486,-5.651c-9.358,-7.545 -16.229,-19.606 -21.619,-37.96c-1.486,-5.043 -4.203,-7.839 -6.96,-7.096c-2.765,0.71 -5.091,4.768 -5.971,10.419c-2.393,15.36 -5.748,28.826 -10.28,41.23c-4.692,12.983 -9.66,22.74 -15.201,29.855c-7.779,10.052 -15.245,12.814 -20.139,13.365c-2.472,0.27 -4.706,3.255 -5.913,7.878c-1.205,4.627 -1.215,10.249 -0.022,14.896c4.025,15.669 8.88,31.922 14.835,49.659c19.452,58.116 23.997,132.741 12.153,199.677c-4.5,25.807 -11.059,48.49 -18.969,65.627l-58.69,127.11l-5.724,-147.372c-0.238,-6.139 -2.162,-11.38 -4.896,-13.327c-2.734,-1.961 -5.741,-0.236 -7.658,4.372c-5.4,12.983 -11.938,23.15 -19.443,30.236c-3.967,3.768 -8.297,6.661 -12.549,8.385c-4.98,2.077 -9.891,3.125 -14.595,3.125c-22.793,0 -41.438,-24.764 -49.881,-66.303c-7.114,-34.675 -6.149,-76.243 2.947,-127.085c1.116,-6.222 0.228,-13.273 -2.199,-17.461c-2.424,-4.188 -5.834,-4.56 -8.452,-0.932c-2.069,2.873 -4.205,5.743 -6.394,8.563c-41.53,53.243 -67.91,120.502 -74.28,189.366c-5.294,56.985 4.426,107.011 24.766,127.452c37.2,37.429 44.743,108.915 35.716,163.157c-7.168,43.177 -25.152,80.765 -48.098,100.583c-0.768,0.652 -1.474,1.594 -2.088,2.767l-7.279,13.824l-9.691,-3.845c-0.804,-0.333 -1.62,-0.352 -2.424,-0.082c-4.793,1.594 -9.62,2.406 -14.338,2.406c-21.936,0.009 -42.511,-16.944 -59.503,-49.002c-1.649,-3.12 -3.864,-4.453 -6.043,-3.608c-2.165,0.831 -4.035,3.738 -5.072,7.887c-11.292,45.133 -29.872,75.041 -52.317,84.219c-4.459,1.811 -9.015,2.724 -13.536,2.724c-20.381,0 -39.516,-18.794 -51.178,-50.277c-10.968,-29.676 -14.553,-66.806 -10.099,-104.539c0.619,-5.26 -0.098,-10.819 -1.894,-14.644c-1.795,-3.84 -4.406,-5.362 -6.854,-4.038c-8.002,4.337 -15.24,6.438 -22.123,6.438c-20.515,0 -33.156,-18.924 -40.131,-34.753l-0.3,-0.695c-22.356,-51.876 -19.684,-128.453 9.855,-282.539c1.125,-5.887 0.444,-12.65 -1.721,-17.031c-2.165,-4.356 -5.362,-5.438 -8.052,-2.68c-5.734,5.859 -12.029,10.013 -18.727,12.36c-12.593,4.449 -24.951,3.946 -36.281,-1.285c-2.558,-1.159 -5.222,0.715 -6.946,4.941c-1.723,4.232 -2.232,10.12 -1.332,15.389c0.843,4.932 1.704,9.887 2.566,14.809l1.236,7.115c14.136,81.455 28.754,165.683 4.03,234.435c-12.761,35.478 -31.863,56.967 -53.775,60.536c-2.145,0.338 -4.322,0.512 -6.477,0.512c-29.559,0 -58.493,-31.681 -73.719,-80.706c-7.689,-24.735 -11.647,-53.011 -11.445,-81.765c0.045,-6.491 -1.82,-12.346 -4.661,-14.64c-2.844,-2.289 -6.053,-0.507 -8.019,4.429c-3.9,9.781 -7.545,19.181 -11.14,28.677c-6.634,17.495 -6.159,38.134 14.844,102.365l1.197,3.7c12.624,38.94 31.707,97.795 11.856,155.042c-12.081,34.898 -31.063,41.225 -46.231,42.843c-1.862,0.188 -3.684,0.3 -5.484,0.338l-0.161,0l-1.725,0.02c-26.352,0 -49.582,-16.833 -69.044,-50.036c-1.545,-2.632 -3.54,-3.796 -5.493,-3.202c-1.959,0.579 -3.72,2.874 -4.87,6.322c-6.331,19.036 -14.045,36.405 -22.917,51.615c-20.717,35.439 -46.584,56.6 -69.195,56.609c-1.704,0 -3.362,-0.13 -5.054,-0.391c-29.652,-4.661 -42.394,-49.074 -44.29,-85.672c-1.905,-37.139 3.456,-70.307 16.38,-101.375c1.819,-4.366 2.323,-10.568 1.296,-15.992c-1.022,-5.429 -3.401,-9.134 -6.127,-9.578c-0.427,-0.068 -0.842,-0.15 -1.291,-0.251c-11.247,-2.362 -21.185,-12.061 -28.731,-28.03c-19.867,-42.118 -16.519,-103.596 -12.64,-174.773c0.36,-6.521 0.722,-13.196 1.077,-19.997c0.418,-8.018 -2.131,-15.369 -5.841,-16.833c-3.725,-1.483 -7.325,3.425 -8.28,11.23c-7.628,62.391 -22.488,98.008 -45.497,108.939c-7.435,3.685 -14.679,4.308 -21.411,1.85c-0.424,-0.145 -0.844,-0.309 -1.262,-0.488c-2.542,-1.082 -5.165,0.87 -6.854,5.091c-1.688,4.207 -2.184,10.037 -1.304,15.249l0.929,5.409c20.633,117.382 -8.301,183.429 -17.669,200.881c-1.812,3.395 -3.379,5.863 -4.416,7.496l-53.028,83.711l-7.905,-139.885c-4.102,-72.544 -17.268,-124.4 -31.207,-179.295l-4.824,-19.146c-1.004,-4.029 -2.794,-6.893 -4.88,-7.825c-2.085,-0.942 -4.264,0.159 -5.94,2.985l-0.823,1.352c-10.387,16.534 -23.856,21.741 -36.941,13.988c-15.77,-9.389 -30.657,-36.747 -40.855,-75.113c-16.797,-62.681 -16.716,-139.668 0.216,-205.932c4.74,-18.505 8.595,-35.246 11.775,-51.156c1,-5.009 0.688,-10.781 -0.821,-15.172c-1.512,-4.386 -3.989,-6.752 -6.528,-6.187c-6.149,1.318 -12.468,-0.213 -18.576,-4.642c-6.492,-4.729 -12.533,-12.462 -18.492,-23.682c-7.546,-14.07 -13.356,-32.217 -17.273,-53.948c-1.126,-6.25 -3.998,-10.157 -7.145,-9.829c-3.129,0.391 -5.779,5.072 -6.552,11.563c-4.154,34.859 -11.184,56.909 -22.8,71.51c-6.451,8.11 -13.817,12.409 -21.305,12.409l-0.693,-0.019c-2.455,0.072 -4.69,2.415 -6.058,6.665c-1.37,4.246 -1.651,9.685 -0.749,14.466c7.906,42.032 9.752,75.722 5.981,109.268c-4.778,42.621 -21.338,71.249 -41.208,71.249c-6.83,0 -13.809,-3.502 -20.743,-10.395c-4.56,-4.545 -9.228,-10.79 -13.87,-18.552l-8.443,-14.128l-3.943,-22.262c-0.211,-1.193 -0.422,-2.386 -0.641,-3.497l-1.32,-6.763c-1.032,-5.25 -3.333,-8.858 -5.985,-9.37c-2.66,-0.546 -5.223,2.135 -6.682,6.907c-2.174,7.1 -4.692,13.824 -7.49,19.963c-12.132,26.715 -28.899,41.423 -47.24,41.423c-4.795,0 -9.576,-1.091 -14.292,-3.115c-0.146,-3.917 -16.072,-0.604 -31.168,-28.102l-6.188,-13.379c-2.085,-5.27 -4.108,-11.24 -6.014,-18.104c-23.604,-85.044 -51,-233.401 -51,-233.401l0,995.17l1920,0l0,-942.594c-13.637,32.27 -35.642,31.85 -43.447,30.55" style="fill:#f8a43c;fill-rule:nonzero;"/><path d="M1886.3,1749.68c-22.263,44.95 -49.378,117.213 -59.407,175.324l-472.143,0c-3.062,-212.004 48.963,-400.799 51.706,-410.599c1.421,-5.052 4.512,-7.004 7.135,-4.458c2.609,2.55 3.85,8.713 2.846,14.166c-8.702,47.36 -11.32,98.665 -5.961,116.832c1.195,4.038 2.397,4.868 3.312,5.129c2.167,0.614 8.69,-0.821 22.303,-27.493c40.121,-78.576 32.299,-183.25 32.218,-184.289c-0.452,-5.501 1.149,-10.79 3.763,-12.423c2.604,-1.613 5.438,0.908 6.638,5.961c19.582,82.213 9.449,150.265 -2.277,229.054c-3.579,24.035 -7.277,48.895 -10.536,76.234c-4.827,40.457 3.105,72.239 8.265,87.589c6.687,19.905 16.03,34.193 23.806,36.42c3.485,0.99 6.103,-0.58 8.004,-4.811c2.133,-4.729 6.545,-20.63 1.433,-65.956c-18.423,-163.49 51.688,-309.408 54.684,-315.528c1.888,-3.878 4.893,-4.352 7.108,-1.144c2.208,3.207 2.974,9.177 1.805,14.099c-14.433,60.661 -13.121,225.63 7.942,304.921c6.818,25.667 14.688,38.462 23.611,38.071c10.872,-0.483 18.809,-10.544 23.585,-29.879c11.738,-47.538 2.486,-141.397 -20.621,-209.227c-35.647,-104.611 29.614,-345.938 32.41,-356.159c1.293,-4.738 4.07,-6.844 6.621,-4.999c2.537,1.835 4.078,7.095 3.658,12.462c-3.022,38.766 -7.714,147.966 6.662,187.297c4.039,11.071 9.13,15.22 15.936,13.216c30.3,-8.926 34.335,-194.79 29.767,-309.848c-0.225,-5.613 1.625,-10.641 4.332,-11.752c2.712,-1.116 5.424,2.024 6.36,7.342c2.028,11.515 49.121,283.47 7.397,413.348c-29.981,93.327 -36.17,232.681 -22.97,299.381c2.717,13.737 7.593,30.917 15.403,34.806c1.778,0.888 3.562,1.584 5.273,2.072c8.306,2.366 19.881,1.222 27.866,-17.693c10.515,-24.928 11.374,-72.466 2.412,-133.886c-19.557,-133.974 70.668,-380.866 74.518,-391.313c1.637,-4.42 4.627,-5.69 7.039,-3.009c2.412,2.7 3.514,8.539 2.59,13.751c-0.401,2.265 -39.838,227.533 -16.282,306.249c4.162,13.906 10.056,21.784 18.002,24.05l0.507,0.14c10.754,2.714 19.293,-2.71 26.095,-16.582c26.328,-53.687 16.963,-209.478 16.867,-211.043c-0.348,-5.632 1.411,-10.863 4.111,-12.177c2.703,-1.318 5.492,1.657 6.507,6.97c1.737,9.086 42.122,223.751 -0.3,309.384" style="fill:#f5d558;fill-rule:nonzero;"/><path d="M33.703,1749.68c22.265,44.95 49.378,117.213 59.407,175.324l472.145,0c3.06,-212.004 -48.965,-400.799 -51.708,-410.599c-1.421,-5.052 -4.512,-7.004 -7.135,-4.458c-2.609,2.55 -3.85,8.713 -2.846,14.166c8.702,47.36 11.32,98.665 5.961,116.832c-1.195,4.038 -2.397,4.868 -3.312,5.129c-2.169,0.614 -8.69,-0.821 -22.303,-27.493c-40.121,-78.576 -32.299,-183.25 -32.218,-184.289c0.452,-5.501 -1.149,-10.79 -3.763,-12.423c-2.604,-1.613 -5.438,0.908 -6.638,5.961c-19.582,82.213 -9.449,150.265 2.277,229.054c3.579,24.035 7.277,48.895 10.536,76.234c4.827,40.457 -3.105,72.239 -8.265,87.589c-6.687,19.905 -16.03,34.193 -23.803,36.42c-3.485,0.99 -6.106,-0.58 -8.007,-4.811c-2.133,-4.729 -6.545,-20.63 -1.433,-65.956c18.423,-163.49 -51.688,-309.408 -54.684,-315.528c-1.888,-3.878 -4.893,-4.352 -7.108,-1.144c-2.208,3.207 -2.974,9.177 -1.805,14.099c14.436,60.661 13.121,225.63 -7.942,304.921c-6.816,25.667 -14.688,38.462 -23.609,38.071c-10.876,-0.483 -18.811,-10.544 -23.589,-29.879c-11.736,-47.538 -2.487,-141.397 20.623,-209.227c35.647,-104.611 -29.614,-345.938 -32.41,-356.159c-1.293,-4.738 -4.07,-6.844 -6.621,-4.999c-2.537,1.835 -4.08,7.095 -3.658,12.462c3.022,38.766 7.714,147.966 -6.662,187.297c-4.039,11.071 -9.13,15.22 -15.936,13.216c-30.3,-8.926 -34.332,-194.79 -29.767,-309.848c0.225,-5.613 -1.625,-10.641 -4.332,-11.752c-2.712,-1.116 -5.424,2.024 -6.358,7.342c-2.03,11.515 -49.123,283.47 -7.399,413.348c29.981,93.327 36.17,232.681 22.97,299.381c-2.717,13.737 -7.593,30.917 -15.403,34.806c-1.778,0.888 -3.559,1.584 -5.273,2.072c-8.306,2.366 -19.879,1.222 -27.864,-17.693c-10.517,-24.928 -11.376,-72.466 -2.414,-133.886c19.557,-133.974 -70.666,-380.866 -74.518,-391.313c-1.637,-4.42 -4.627,-5.69 -7.039,-3.009c-2.412,2.7 -3.514,8.539 -2.59,13.751c0.401,2.265 39.838,227.533 16.282,306.249c-4.162,13.906 -10.056,21.784 -18.002,24.05l-0.507,0.14c-10.754,2.714 -19.293,-2.71 -26.095,-16.582c-26.33,-53.687 -16.963,-209.478 -16.867,-211.043c0.348,-5.632 -1.411,-10.863 -4.111,-12.177c-2.703,-1.318 -5.492,1.657 -6.507,6.97c-1.737,9.086 -42.122,223.751 0.3,309.384" style="fill:#f5d558;fill-rule:nonzero;"/><path d="M1154.37,1925.01c-8.064,-23.01 -15.382,-36.158 -16.16,-37.52c-1.144,-2.024 -2.755,-2.637 -4.195,-1.623c-1.442,1.014 -2.491,3.497 -2.738,6.492c-1.018,12.263 -2.465,23.184 -4.267,32.651l27.36,0Z" style="fill:#f5d558;fill-rule:nonzero;"/><path d="M1083.86,1925.01c-0.308,-13.012 2.337,-26.396 7.754,-38.293c34.666,-76.152 -13.022,-197.204 -15.07,-202.315c-1.274,-3.183 -3.525,-4.076 -5.32,-2.125c-1.8,1.966 -2.616,6.217 -1.935,10.052c0.089,0.531 9.255,53.131 0.648,81.223c-2.861,9.337 -7.389,14.771 -13.848,16.611c-11.465,3.26 -18.794,-0.459 -21.902,-11.447c-4.582,-16.196 -3.84,-57.991 25.709,-165.21c42.82,-155.361 -42.605,-299.676 -43.474,-301.11c-1.478,-2.464 -3.607,-2.604 -5.165,-0.363c-1.56,2.246 -2.15,6.284 -1.43,9.83c8.131,40.075 26.364,152.361 13.241,190.133c-2.976,8.564 -7.503,12.635 -13.836,12.423c-43.695,-1.304 -45.178,-113.576 -45.219,-118.285c-0.033,-3.589 -1.219,-6.724 -2.942,-7.806c-1.721,-1.053 -3.607,0.16 -4.663,3.068c-21.192,58.067 -12.008,139.093 -3.905,210.579c6.06,53.46 11.784,103.978 2.025,128.394c-6.187,15.471 -13.975,18.084 -19.416,17.543c-12.343,-1.212 -25.168,-19.407 -30.501,-43.249c-4.81,-21.533 -2.895,-44.389 5.39,-64.356c32.823,-79.099 -10.195,-185.975 -10.632,-187.047c-1.169,-2.855 -3.144,-3.845 -4.86,-2.444c-1.716,1.396 -2.767,4.849 -2.585,8.506c2.664,53.614 -6.228,72.621 -25.711,114.271c-7.809,16.702 -17.529,37.477 -28.517,65.11c-21.196,53.334 -6.739,116.715 3.819,162.993c5.251,23.035 10.68,46.847 7.8,55.763c-1.438,4.454 -5.707,6.864 -12.341,6.956c-1.044,0.019 -2.062,-0.019 -3.07,-0.121c-44.853,-4.405 -50.8,-125.216 -50.856,-126.453c-0.177,-3.956 -1.747,-7.119 -3.744,-7.53c-2.001,-0.435 -3.861,2.014 -4.456,5.811c-0.855,5.468 -14.775,97.032 -6.732,178.888l315.744,0Z" style="fill:#f5d558;fill-rule:nonzero;"/></g></svg>