<?xml version="1.0" encoding="UTF-8" standalone="no"?><!DOCTYPE svg PUBLIC "-//W3C//DTD SVG 1.1//EN" "http://www.w3.org/Graphics/SVG/1.1/DTD/svg11.dtd"><svg width="100%" height="100%" viewBox="0 0 793 95" version="1.1" xmlns="http://www.w3.org/2000/svg" xmlns:xlink="http://www.w3.org/1999/xlink" xml:space="preserve" xmlns:serif="http://www.serif.com/" style="fill-rule:evenodd;clip-rule:evenodd;stroke-linejoin:round;stroke-miterlimit:2;"><path d="M20.009,92.554c-4.173,0 -6.259,-2.154 -6.259,-6.464l0,-37.863c0,-6.02 0.923,-9.988 2.77,-11.903l3.899,-4.104l-11.595,0c-1.368,0 -2.325,-0.291 -2.873,-0.873c-0.547,-0.581 -0.82,-1.556 -0.82,-2.924l0,-7.388c0,-1.368 0.273,-2.343 0.82,-2.924c0.548,-0.582 1.505,-0.872 2.873,-0.872l31.297,0c1.71,0 2.958,0.324 3.745,0.974c0.787,0.65 1.18,1.762 1.18,3.335l0,4.412c0,1.095 -0.137,1.95 -0.411,2.566c-0.273,0.615 -0.718,1.299 -1.334,2.052l-6.054,6.669c-1.094,1.232 -1.812,2.617 -2.154,4.156c-0.342,1.539 -0.513,3.745 -0.513,6.619l0,27.602c0,0.752 0.136,1.265 0.41,1.539c0.274,0.273 0.684,0.41 1.231,0.41l1.95,0c1.163,0 1.915,0.205 2.257,0.616c0.342,0.41 0.513,1.265 0.513,2.565l0,8.106c0,1.232 -0.188,2.104 -0.564,2.617c-0.376,0.513 -0.992,0.821 -1.847,0.923c-0.855,0.103 -2.309,0.154 -4.361,0.154l-14.16,0Z" style="fill:#2f6673;fill-rule:nonzero;"/><path d="M60.437,92.554c-1.163,0 -2.035,-0.222 -2.616,-0.667c-0.582,-0.444 -1.009,-1.282 -1.283,-2.514l-10.774,-47.2c-0.068,-0.274 -0.102,-0.684 -0.102,-1.232c0,-1.505 0.855,-2.257 2.565,-2.257l11.082,0c1.299,0 2.206,0.257 2.719,0.77c0.513,0.513 0.872,1.351 1.077,2.514l4.412,22.676l5.439,-17.854c0.342,-1.026 0.752,-1.744 1.231,-2.155c0.479,-0.41 1.231,-0.615 2.258,-0.615l6.054,0c1.026,0 1.778,0.205 2.257,0.615c0.479,0.411 0.889,1.129 1.231,2.155l6.054,17.854l8.414,-38.581c0.274,-1.231 0.65,-2.086 1.129,-2.565c0.479,-0.479 1.368,-0.719 2.668,-0.719l11.082,0c1.778,0 2.668,0.753 2.668,2.258c0,0.274 -0.069,0.684 -0.206,1.231l-15.391,63.105c-0.274,1.232 -0.684,2.07 -1.231,2.514c-0.548,0.445 -1.403,0.667 -2.566,0.667l-9.44,0c-1.026,0 -1.795,-0.188 -2.309,-0.564c-0.513,-0.376 -0.906,-1.043 -1.18,-2.001l-6.259,-21.548l-6.362,21.548c-0.273,0.958 -0.667,1.625 -1.18,2.001c-0.513,0.376 -1.248,0.564 -2.206,0.564l-9.235,0Z" style="fill:#2f6673;fill-rule:nonzero;"/><path d="M128.16,92.554c-4.173,0 -6.259,-2.154 -6.259,-6.464l0,-37.863c0,-6.02 0.923,-9.988 2.77,-11.903l3.9,-4.104l-11.595,0c-1.369,0 -2.326,-0.291 -2.874,-0.873c-0.547,-0.581 -0.82,-1.556 -0.82,-2.924l0,-7.388c0,-1.368 0.273,-2.343 0.82,-2.924c0.548,-0.582 1.505,-0.872 2.874,-0.872l31.296,0c1.71,0 2.958,0.324 3.745,0.974c0.787,0.65 1.18,1.762 1.18,3.335l0,4.412c0,1.095 -0.137,1.95 -0.41,2.566c-0.274,0.615 -0.719,1.299 -1.334,2.052l-6.054,6.669c-1.095,1.232 -1.813,2.617 -2.155,4.156c-0.342,1.539 -0.513,3.745 -0.513,6.619l0,27.602c0,0.752 0.137,1.265 0.41,1.539c0.274,0.273 0.684,0.41 1.231,0.41l1.95,0c1.163,0 1.915,0.205 2.257,0.616c0.343,0.41 0.514,1.265 0.514,2.565l0,8.106c0,1.232 -0.189,2.104 -0.565,2.617c-0.376,0.513 -0.992,0.821 -1.847,0.923c-0.855,0.103 -2.309,0.154 -4.361,0.154l-14.16,0Z" style="fill:#2f6673;fill-rule:nonzero;"/><path d="M162.124,92.554c-1.984,0 -3.369,-0.41 -4.156,-1.231c-0.786,-0.821 -1.18,-2.121 -1.18,-3.899l0,-43.507c0,-1.778 0.411,-3.095 1.232,-3.95c0.821,-0.855 2.189,-1.283 4.104,-1.283l9.851,0c1.983,0 3.403,0.428 4.258,1.283c0.855,0.855 1.283,2.172 1.283,3.95l0,10.261l7.285,0c1.915,0 3.215,-0.462 3.899,-1.385c0.684,-0.924 1.026,-2.343 1.026,-4.258l0,-4.618c0,-1.778 0.411,-3.095 1.231,-3.95c0.821,-0.855 2.224,-1.283 4.207,-1.283l9.954,0c1.983,0 3.386,0.428 4.207,1.283c0.821,0.855 1.231,2.172 1.231,3.95l0,5.131c0,6.019 -2.223,10.021 -6.67,12.005c4.447,1.984 6.67,5.986 6.67,12.005l0,14.366c0,1.778 -0.41,3.078 -1.231,3.899c-0.821,0.821 -2.224,1.231 -4.207,1.231l-9.954,0c-1.983,0 -3.386,-0.41 -4.207,-1.231c-0.82,-0.821 -1.231,-2.121 -1.231,-3.899l0,-12.826c0,-1.847 -0.342,-3.216 -1.026,-4.105c-0.684,-0.889 -1.915,-1.334 -3.694,-1.334l-7.49,0l0,18.265c0,1.778 -0.428,3.078 -1.283,3.899c-0.855,0.821 -2.275,1.231 -4.258,1.231l-9.851,0Z" style="fill:#2f6673;fill-rule:nonzero;"/><path d="M254.576,94.094c-7.251,0 -13.203,-2.395 -17.854,-7.183l-0.411,3.386c-0.205,1.505 -1.265,2.257 -3.181,2.257l-9.132,0c-3.078,0 -4.618,-1.505 -4.618,-4.514l0,-44.123c0,-1.778 0.411,-3.095 1.232,-3.95c0.821,-0.855 2.223,-1.283 4.207,-1.283l9.953,0c1.915,0 3.284,0.428 4.104,1.283c0.821,0.855 1.232,2.172 1.232,3.95l0,29.962c0,1.779 0.735,3.25 2.206,4.413c1.471,1.162 3.3,1.744 5.49,1.744c4.241,0 6.361,-1.984 6.361,-5.951l0,-30.168c0,-1.778 0.428,-3.095 1.283,-3.95c0.855,-0.855 2.274,-1.283 4.258,-1.283l9.953,0c1.916,0 3.284,0.428 4.105,1.283c0.821,0.855 1.231,2.172 1.231,3.95l0,30.988c0,6.362 -1.847,11.151 -5.541,14.366c-3.694,3.215 -8.653,4.823 -14.878,4.823Z" style="fill:#2f6673;fill-rule:nonzero;"/><path d="M251.497,32.425c-2.052,0 -3.437,-0.394 -4.155,-1.18c-0.719,-0.787 -1.078,-2.138 -1.078,-4.053l0,-3.899l-4.001,0c-1.847,0 -3.096,-0.394 -3.746,-1.181c-0.65,-0.786 -0.975,-2.035 -0.975,-3.745l0,-3.489c0,-1.71 0.325,-2.958 0.975,-3.745c0.65,-0.786 1.899,-1.18 3.746,-1.18l12.415,0c1.984,0 3.301,0.394 3.951,1.18c0.65,0.787 0.975,2.138 0.975,4.053l0,4.823c7.046,-0.752 12.313,-1.129 15.802,-1.129c1.368,0 2.308,0.274 2.821,0.821c0.513,0.547 0.77,1.471 0.77,2.771l0,5.028c0,1.778 -0.342,3.044 -1.026,3.796c-0.684,0.753 -1.95,1.129 -3.797,1.129l-22.677,0Z" style="fill:#2f6673;fill-rule:nonzero;"/><path d="M343.641,94.094c-5.267,0 -10.295,-0.616 -15.083,-1.847c-4.789,-1.232 -8.722,-2.908 -11.8,-5.028c-0.753,-0.479 -1.129,-1.095 -1.129,-1.847c0,-0.479 0.239,-1.197 0.718,-2.155l4.412,-7.593c0.479,-0.89 1.026,-1.334 1.642,-1.334c0.547,0 1.266,0.273 2.155,0.821c4.994,2.873 10.945,4.309 17.854,4.309c4.104,0 7.302,-0.889 9.594,-2.668c2.292,-1.778 3.438,-4.412 3.438,-7.901c0,-3.83 -0.958,-6.515 -2.874,-8.054c-1.915,-1.54 -4.685,-2.309 -8.311,-2.309c-2.189,0 -4.344,0.188 -6.464,0.564c-2.121,0.376 -3.9,0.872 -5.336,1.488c-1.71,0.616 -3.523,0.923 -5.438,0.923c-2.668,0 -4.857,-0.684 -6.568,-2.052c-1.71,-1.368 -2.496,-3.352 -2.36,-5.951l1.642,-26.063c0.137,-1.573 0.565,-2.736 1.283,-3.489c0.718,-0.752 2.035,-1.129 3.95,-1.129l42.686,0c1.916,0 3.232,0.394 3.951,1.18c0.718,0.787 1.077,2.104 1.077,3.951l0,4.823c0,1.847 -0.359,3.163 -1.077,3.95c-0.719,0.787 -2.035,1.18 -3.951,1.18l-31.091,0l-0.513,8.312c1.368,-0.342 3.181,-0.633 5.439,-0.873c2.257,-0.239 4.275,-0.359 6.054,-0.359c9.098,0 16.144,1.847 21.137,5.541c4.994,3.694 7.491,9.817 7.491,18.367c0,5.199 -1.385,9.697 -4.156,13.494c-2.77,3.796 -6.618,6.704 -11.544,8.722c-4.925,2.018 -10.534,3.027 -16.828,3.027Z" style="fill:#2f6673;fill-rule:nonzero;"/><path d="M437.324,94.094c-5.062,0 -9.32,-0.445 -12.775,-1.334c-3.454,-0.89 -6.652,-2.292 -9.594,-4.207c-0.82,-0.479 -1.231,-1.129 -1.231,-1.95c0,-0.684 0.24,-1.402 0.718,-2.155l4.31,-7.388c0.616,-1.026 1.231,-1.539 1.847,-1.539c0.41,0 1.06,0.274 1.95,0.821c1.778,1.094 3.591,1.881 5.438,2.36c1.847,0.479 3.933,0.718 6.259,0.718c4.241,0 7.456,-1.026 9.645,-3.078c2.19,-2.052 3.284,-5.575 3.284,-10.569c0,-4.994 -1.043,-8.551 -3.13,-10.671c-2.086,-2.121 -5.216,-3.181 -9.388,-3.181c-4.31,0 -8.209,1.026 -11.698,3.078c-0.889,0.547 -1.573,0.821 -2.052,0.821c-0.753,0 -1.368,-0.479 -1.847,-1.437l-4.207,-7.49c-0.479,-0.958 -0.718,-1.676 -0.718,-2.155c0,-0.684 0.41,-1.334 1.231,-1.95c2.873,-1.847 6.071,-3.249 9.594,-4.207c3.523,-0.957 7.747,-1.436 12.672,-1.436c9.919,0 17.444,2.411 22.575,7.234c5.13,4.823 7.695,11.954 7.695,21.394c0,9.372 -2.616,16.435 -7.849,21.189c-5.234,4.754 -12.81,7.132 -22.729,7.132Z" style="fill:#2f6673;fill-rule:nonzero;"/><path d="M445.636,32.425c-3.01,0 -5.131,-0.667 -6.362,-2.001c-1.231,-1.334 -1.847,-3.472 -1.847,-6.413l0,-7.696c0,-1.984 0.393,-3.318 1.18,-4.002c0.787,-0.684 2.104,-1.026 3.951,-1.026l5.951,0c1.847,0 3.164,0.359 3.95,1.078c0.787,0.718 1.18,2.035 1.18,3.95l0,4.207c2.874,-0.479 6.482,-0.906 10.826,-1.283c4.344,-0.376 7.85,-0.564 10.517,-0.564c1.984,0 3.284,0.308 3.9,0.924c0.615,0.615 0.923,1.812 0.923,3.591l0,4.31c0,1.983 -0.308,3.3 -0.923,3.95c-0.616,0.65 -1.916,0.975 -3.9,0.975l-29.346,0Z" style="fill:#2f6673;fill-rule:nonzero;"/><path d="M494.991,94.094c-6.156,0 -11.082,-1.608 -14.776,-4.823c-3.693,-3.215 -5.54,-8.004 -5.54,-14.366l0,-30.988c0,-1.778 0.41,-3.095 1.231,-3.95c0.821,-0.855 2.189,-1.283 4.104,-1.283l9.953,0c1.984,0 3.387,0.428 4.207,1.283c0.821,0.855 1.232,2.172 1.232,3.95l0,30.168c0,3.967 2.155,5.951 6.464,5.951c2.189,0 4.002,-0.582 5.439,-1.744c1.436,-1.163 2.154,-2.634 2.154,-4.413l0,-29.962c0,-1.778 0.411,-3.095 1.232,-3.95c0.821,-0.855 2.223,-1.283 4.207,-1.283l9.953,0c1.984,0 3.386,0.428 4.207,1.283c0.821,0.855 1.231,2.172 1.231,3.95l0,44.123c0,3.009 -1.539,4.514 -4.617,4.514l-9.235,0c-1.847,0 -2.873,-0.752 -3.078,-2.257l-0.411,-3.078c-1.984,2.189 -4.378,3.882 -7.183,5.079c-2.804,1.197 -6.396,1.796 -10.774,1.796Z" style="fill:#2f6673;fill-rule:nonzero;"/><path d="M598.935,94.094c-5.267,0 -10.295,-0.616 -15.083,-1.847c-4.789,-1.232 -8.722,-2.908 -11.8,-5.028c-0.753,-0.479 -1.129,-1.095 -1.129,-1.847c0,-0.479 0.239,-1.197 0.718,-2.155l4.412,-7.593c0.479,-0.89 1.026,-1.334 1.642,-1.334c0.547,0 1.266,0.273 2.155,0.821c4.994,2.873 10.945,4.309 17.854,4.309c4.105,0 7.303,-0.889 9.594,-2.668c2.292,-1.778 3.438,-4.412 3.438,-7.901c0,-3.83 -0.958,-6.515 -2.873,-8.054c-1.916,-1.54 -4.686,-2.309 -8.312,-2.309c-2.189,0 -4.344,0.188 -6.464,0.564c-2.121,0.376 -3.9,0.872 -5.336,1.488c-1.71,0.616 -3.523,0.923 -5.438,0.923c-2.668,0 -4.857,-0.684 -6.567,-2.052c-1.711,-1.368 -2.497,-3.352 -2.361,-5.951l1.642,-26.063c0.137,-1.573 0.565,-2.736 1.283,-3.489c0.718,-0.752 2.035,-1.129 3.95,-1.129l42.686,0c1.916,0 3.232,0.394 3.951,1.18c0.718,0.787 1.077,2.104 1.077,3.951l0,4.823c0,1.847 -0.359,3.163 -1.077,3.95c-0.719,0.787 -2.035,1.18 -3.951,1.18l-31.091,0l-0.513,8.312c1.368,-0.342 3.181,-0.633 5.439,-0.873c2.257,-0.239 4.275,-0.359 6.054,-0.359c9.098,0 16.144,1.847 21.137,5.541c4.994,3.694 7.491,9.817 7.491,18.367c0,5.199 -1.385,9.697 -4.156,13.494c-2.77,3.796 -6.618,6.704 -11.544,8.722c-4.925,2.018 -10.534,3.027 -16.828,3.027Z" style="fill:#2f6673;fill-rule:nonzero;"/><path d="M677.432,92.554c-1.984,0 -3.369,-0.41 -4.156,-1.231c-0.786,-0.821 -1.18,-2.121 -1.18,-3.899l0,-28.013c0,-7.182 2.343,-12.689 7.029,-16.52c4.686,-3.831 11.647,-5.746 20.881,-5.746c9.235,0 16.213,1.915 20.933,5.746c4.72,3.831 7.08,9.338 7.08,16.52l0,28.013c0,1.778 -0.428,3.078 -1.283,3.899c-0.855,0.821 -2.274,1.231 -4.258,1.231l-9.953,0c-1.984,0 -3.369,-0.41 -4.156,-1.231c-0.787,-0.821 -1.18,-2.121 -1.18,-3.899l0,-27.602c0,-2.737 -0.564,-4.737 -1.693,-6.003c-1.129,-1.266 -2.959,-1.898 -5.49,-1.898c-2.531,0 -4.361,0.632 -5.489,1.898c-1.129,1.266 -1.693,3.266 -1.693,6.003l0,6.054c1.368,-1.642 3.215,-2.463 5.541,-2.463l2.462,0c0.821,0 1.368,0.154 1.642,0.462c0.274,0.308 0.41,0.94 0.41,1.898l0,9.748c0,1.026 -0.153,1.727 -0.461,2.104c-0.308,0.376 -0.838,0.564 -1.591,0.564l-3.078,0c-1.437,0 -2.617,0.513 -3.54,1.539c-0.924,1.026 -1.385,2.36 -1.385,4.002l0,3.694c0,1.778 -0.411,3.078 -1.232,3.899c-0.82,0.821 -2.223,1.231 -4.207,1.231l-9.953,0Z" style="fill:#2f6673;fill-rule:nonzero;"/><path d="M685.436,32.425c-2.121,0 -3.489,-0.325 -4.105,-0.975c-0.615,-0.65 -0.923,-2.035 -0.923,-4.156l0,-3.899c0,-2.12 0.308,-3.506 0.923,-4.156c0.616,-0.649 1.984,-0.974 4.105,-0.974l11.287,0l0,-4.207c0,-1.847 0.393,-3.113 1.18,-3.797c0.787,-0.684 2.035,-1.026 3.745,-1.026l3.489,0c1.71,0 2.959,0.342 3.745,1.026c0.787,0.684 1.18,1.95 1.18,3.797l0,4.207l4.618,0l0,-4.207c0,-1.847 0.393,-3.113 1.18,-3.797c0.786,-0.684 2.035,-1.026 3.745,-1.026l3.489,0c1.71,0 2.958,0.342 3.745,1.026c0.787,0.684 1.18,1.95 1.18,3.797l0,12.723c0,2.052 -0.376,3.506 -1.129,4.361c-0.752,0.855 -2.223,1.283 -4.412,1.283l-37.042,0Z" style="fill:#2f6673;fill-rule:nonzero;"/><path d="M757.16,94.094c-6.156,0 -11.082,-1.608 -14.776,-4.823c-3.694,-3.215 -5.541,-8.004 -5.541,-14.366l0,-30.988c0,-1.778 0.411,-3.095 1.232,-3.95c0.821,-0.855 2.189,-1.283 4.104,-1.283l9.953,0c1.984,0 3.387,0.428 4.207,1.283c0.821,0.855 1.232,2.172 1.232,3.95l0,30.168c0,3.967 2.155,5.951 6.464,5.951c2.189,0 4.002,-0.582 5.438,-1.744c1.437,-1.163 2.155,-2.634 2.155,-4.413l0,-29.962c0,-1.778 0.411,-3.095 1.232,-3.95c0.82,-0.855 2.223,-1.283 4.207,-1.283l9.953,0c1.984,0 3.386,0.428 4.207,1.283c0.821,0.855 1.231,2.172 1.231,3.95l0,44.123c0,3.009 -1.539,4.514 -4.617,4.514l-9.235,0c-1.847,0 -2.873,-0.752 -3.079,-2.257l-0.41,-3.078c-1.984,2.189 -4.378,3.882 -7.183,5.079c-2.804,1.197 -6.396,1.796 -10.774,1.796Z" style="fill:#2f6673;fill-rule:nonzero;"/><path d="M14.878,83.319c-4.172,0 -6.259,-2.154 -6.259,-6.464l0,-37.863c0,-6.02 0.924,-9.988 2.771,-11.903l3.899,-4.104l-11.595,0c-1.368,0 -2.326,-0.291 -2.873,-0.873c-0.547,-0.581 -0.821,-1.556 -0.821,-2.924l0,-7.388c0,-1.368 0.274,-2.343 0.821,-2.924c0.547,-0.582 1.505,-0.872 2.873,-0.872l31.296,0c1.71,0 2.959,0.325 3.745,0.974c0.787,0.65 1.18,1.762 1.18,3.335l0,4.412c0,1.095 -0.136,1.95 -0.41,2.566c-0.274,0.615 -0.718,1.299 -1.334,2.052l-6.054,6.67c-1.095,1.231 -1.813,2.616 -2.155,4.155c-0.342,1.539 -0.513,3.746 -0.513,6.619l0,27.602c0,0.752 0.137,1.265 0.411,1.539c0.273,0.274 0.684,0.41 1.231,0.41l1.949,0c1.163,0 1.916,0.206 2.258,0.616c0.342,0.41 0.513,1.266 0.513,2.565l0,8.106c0,1.232 -0.188,2.104 -0.564,2.617c-0.377,0.513 -0.992,0.821 -1.847,0.924c-0.855,0.102 -2.309,0.153 -4.361,0.153l-14.161,0Z" style="fill:#fff;fill-rule:nonzero;"/><path d="M55.307,83.319c-1.163,0 -2.035,-0.222 -2.617,-0.667c-0.581,-0.444 -1.009,-1.282 -1.282,-2.513l-10.774,-47.201c-0.069,-0.274 -0.103,-0.684 -0.103,-1.231c0,-1.505 0.855,-2.258 2.565,-2.258l11.082,0c1.3,0 2.206,0.257 2.719,0.77c0.513,0.513 0.873,1.351 1.078,2.514l4.412,22.676l5.438,-17.854c0.342,-1.026 0.753,-1.744 1.232,-2.154c0.478,-0.411 1.231,-0.616 2.257,-0.616l6.054,0c1.026,0 1.779,0.205 2.257,0.616c0.479,0.41 0.89,1.128 1.232,2.154l6.054,17.854l8.414,-38.581c0.273,-1.231 0.65,-2.086 1.129,-2.565c0.478,-0.479 1.368,-0.718 2.667,-0.718l11.082,0c1.779,0 2.668,0.752 2.668,2.257c0,0.274 -0.068,0.684 -0.205,1.231l-15.392,63.106c-0.273,1.231 -0.684,2.069 -1.231,2.513c-0.547,0.445 -1.402,0.667 -2.565,0.667l-9.44,0c-1.026,0 -1.796,-0.188 -2.309,-0.564c-0.513,-0.376 -0.906,-1.043 -1.18,-2.001l-6.259,-21.548l-6.362,21.548c-0.274,0.958 -0.667,1.625 -1.18,2.001c-0.513,0.376 -1.249,0.564 -2.206,0.564l-9.235,0Z" style="fill:#fff;fill-rule:nonzero;"/><path d="M123.03,83.319c-4.173,0 -6.26,-2.154 -6.26,-6.464l0,-37.863c0,-6.02 0.924,-9.988 2.771,-11.903l3.899,-4.104l-11.595,0c-1.368,0 -2.326,-0.291 -2.873,-0.873c-0.547,-0.581 -0.821,-1.556 -0.821,-2.924l0,-7.388c0,-1.368 0.274,-2.343 0.821,-2.924c0.547,-0.582 1.505,-0.872 2.873,-0.872l31.296,0c1.71,0 2.959,0.325 3.745,0.974c0.787,0.65 1.18,1.762 1.18,3.335l0,4.412c0,1.095 -0.136,1.95 -0.41,2.566c-0.274,0.615 -0.718,1.299 -1.334,2.052l-6.054,6.67c-1.094,1.231 -1.813,2.616 -2.155,4.155c-0.342,1.539 -0.513,3.746 -0.513,6.619l0,27.602c0,0.752 0.137,1.265 0.411,1.539c0.273,0.274 0.684,0.41 1.231,0.41l1.95,0c1.162,0 1.915,0.206 2.257,0.616c0.342,0.41 0.513,1.266 0.513,2.565l0,8.106c0,1.232 -0.188,2.104 -0.564,2.617c-0.377,0.513 -0.992,0.821 -1.847,0.924c-0.855,0.102 -2.309,0.153 -4.361,0.153l-14.16,0Z" style="fill:#fff;fill-rule:nonzero;"/><path d="M156.994,83.319c-1.984,0 -3.37,-0.41 -4.156,-1.231c-0.787,-0.821 -1.18,-2.12 -1.18,-3.899l0,-43.507c0,-1.778 0.41,-3.095 1.231,-3.95c0.821,-0.855 2.189,-1.283 4.105,-1.283l9.85,0c1.984,0 3.403,0.428 4.258,1.283c0.856,0.855 1.283,2.172 1.283,3.95l0,10.261l7.285,0c1.916,0 3.215,-0.462 3.9,-1.385c0.684,-0.923 1.026,-2.343 1.026,-4.258l0,-4.618c0,-1.778 0.41,-3.095 1.231,-3.95c0.821,-0.855 2.223,-1.283 4.207,-1.283l9.953,0c1.984,0 3.386,0.428 4.207,1.283c0.821,0.855 1.232,2.172 1.232,3.95l0,5.131c0,6.02 -2.224,10.021 -6.67,12.005c4.446,1.984 6.67,5.986 6.67,12.006l0,14.365c0,1.779 -0.411,3.078 -1.232,3.899c-0.821,0.821 -2.223,1.231 -4.207,1.231l-9.953,0c-1.984,0 -3.386,-0.41 -4.207,-1.231c-0.821,-0.821 -1.231,-2.12 -1.231,-3.899l0,-12.826c0,-1.847 -0.342,-3.215 -1.026,-4.105c-0.685,-0.889 -1.916,-1.334 -3.694,-1.334l-7.491,0l0,18.265c0,1.779 -0.427,3.078 -1.283,3.899c-0.855,0.821 -2.274,1.231 -4.258,1.231l-9.85,0Z" style="fill:#fff;fill-rule:nonzero;"/><path d="M249.445,84.859c-7.251,0 -13.202,-2.395 -17.854,-7.183l-0.41,3.386c-0.206,1.505 -1.266,2.257 -3.181,2.257l-9.133,0c-3.078,0 -4.617,-1.505 -4.617,-4.514l0,-44.123c0,-1.778 0.41,-3.095 1.231,-3.95c0.821,-0.855 2.224,-1.283 4.207,-1.283l9.954,0c1.915,0 3.283,0.428 4.104,1.283c0.821,0.855 1.231,2.172 1.231,3.95l0,29.962c0,1.779 0.736,3.25 2.206,4.413c1.471,1.163 3.301,1.744 5.49,1.744c4.241,0 6.362,-1.984 6.362,-5.951l0,-30.168c0,-1.778 0.427,-3.095 1.282,-3.95c0.856,-0.855 2.275,-1.283 4.259,-1.283l9.953,0c1.915,0 3.283,0.428 4.104,1.283c0.821,0.855 1.232,2.172 1.232,3.95l0,30.988c0,6.362 -1.847,11.151 -5.541,14.366c-3.694,3.215 -8.654,4.823 -14.879,4.823Z" style="fill:#fff;fill-rule:nonzero;"/><path d="M246.367,23.19c-2.052,0 -3.437,-0.393 -4.156,-1.18c-0.718,-0.787 -1.077,-2.138 -1.077,-4.053l0,-3.899l-4.002,0c-1.847,0 -3.095,-0.394 -3.745,-1.18c-0.65,-0.787 -0.975,-2.036 -0.975,-3.746l0,-3.488c0,-1.711 0.325,-2.959 0.975,-3.746c0.65,-0.786 1.898,-1.18 3.745,-1.18l12.416,0c1.984,0 3.301,0.394 3.95,1.18c0.65,0.787 0.975,2.138 0.975,4.053l0,4.823c7.046,-0.752 12.313,-1.129 15.802,-1.129c1.368,0 2.309,0.274 2.822,0.821c0.513,0.547 0.769,1.471 0.769,2.771l0,5.028c0,1.778 -0.342,3.044 -1.026,3.796c-0.684,0.753 -1.949,1.129 -3.796,1.129l-22.677,0Z" style="fill:#fff;fill-rule:nonzero;"/><path d="M338.511,84.859c-5.267,0 -10.295,-0.616 -15.084,-1.847c-4.788,-1.232 -8.722,-2.908 -11.8,-5.028c-0.752,-0.479 -1.129,-1.095 -1.129,-1.847c0,-0.479 0.24,-1.197 0.719,-2.155l4.412,-7.593c0.479,-0.89 1.026,-1.334 1.642,-1.334c0.547,0 1.265,0.273 2.154,0.821c4.994,2.873 10.945,4.309 17.855,4.309c4.104,0 7.302,-0.889 9.594,-2.668c2.291,-1.778 3.437,-4.412 3.437,-7.901c0,-3.83 -0.958,-6.515 -2.873,-8.054c-1.915,-1.54 -4.686,-2.309 -8.311,-2.309c-2.189,0 -4.344,0.188 -6.465,0.564c-2.121,0.376 -3.899,0.872 -5.336,1.488c-1.71,0.616 -3.523,0.924 -5.438,0.924c-2.668,0 -4.857,-0.685 -6.567,-2.053c-1.71,-1.368 -2.497,-3.352 -2.36,-5.951l1.642,-26.063c0.137,-1.573 0.564,-2.736 1.282,-3.489c0.719,-0.752 2.035,-1.128 3.951,-1.128l42.686,0c1.915,0 3.232,0.393 3.95,1.18c0.718,0.786 1.078,2.103 1.078,3.95l0,4.823c0,1.847 -0.36,3.164 -1.078,3.95c-0.718,0.787 -2.035,1.18 -3.95,1.18l-31.091,0l-0.513,8.312c1.368,-0.342 3.181,-0.633 5.438,-0.873c2.257,-0.239 4.275,-0.359 6.054,-0.359c9.098,0 16.144,1.847 21.138,5.541c4.993,3.694 7.49,9.817 7.49,18.367c0,5.199 -1.385,9.697 -4.155,13.494c-2.771,3.796 -6.619,6.704 -11.544,8.722c-4.925,2.018 -10.535,3.027 -16.828,3.027Z" style="fill:#fff;fill-rule:nonzero;"/><path d="M432.194,84.859c-5.062,0 -9.32,-0.445 -12.775,-1.334c-3.455,-0.89 -6.653,-2.292 -9.594,-4.207c-0.821,-0.479 -1.231,-1.129 -1.231,-1.95c0,-0.684 0.239,-1.402 0.718,-2.155l4.309,-7.388c0.616,-1.026 1.232,-1.539 1.847,-1.539c0.411,0 1.061,0.274 1.95,0.821c1.779,1.095 3.591,1.881 5.438,2.36c1.847,0.479 3.934,0.718 6.26,0.718c4.241,0 7.456,-1.026 9.645,-3.078c2.189,-2.052 3.284,-5.575 3.284,-10.569c0,-4.994 -1.044,-8.551 -3.13,-10.671c-2.087,-2.121 -5.216,-3.181 -9.389,-3.181c-4.31,0 -8.209,1.026 -11.697,3.078c-0.89,0.547 -1.574,0.821 -2.053,0.821c-0.752,0 -1.368,-0.479 -1.847,-1.437l-4.207,-7.49c-0.479,-0.958 -0.718,-1.676 -0.718,-2.155c0,-0.684 0.41,-1.334 1.231,-1.949c2.873,-1.847 6.071,-3.25 9.594,-4.207c3.523,-0.958 7.747,-1.437 12.673,-1.437c9.919,0 17.443,2.411 22.574,7.234c5.131,4.823 7.696,11.954 7.696,21.394c0,9.372 -2.617,16.435 -7.85,21.189c-5.233,4.754 -12.809,7.132 -22.728,7.132Z" style="fill:#fff;fill-rule:nonzero;"/><path d="M440.505,23.19c-3.01,0 -5.13,-0.667 -6.361,-2.001c-1.232,-1.334 -1.847,-3.472 -1.847,-6.413l0,-7.696c0,-1.984 0.393,-3.318 1.18,-4.002c0.786,-0.684 2.103,-1.026 3.95,-1.026l5.951,0c1.847,0 3.164,0.359 3.951,1.078c0.787,0.718 1.18,2.035 1.18,3.95l0,4.207c2.873,-0.479 6.481,-0.906 10.825,-1.283c4.344,-0.376 7.85,-0.564 10.518,-0.564c1.984,0 3.283,0.308 3.899,0.924c0.616,0.615 0.924,1.812 0.924,3.591l0,4.31c0,1.983 -0.308,3.3 -0.924,3.95c-0.616,0.65 -1.915,0.975 -3.899,0.975l-29.347,0Z" style="fill:#fff;fill-rule:nonzero;"/><path d="M489.861,84.859c-6.157,0 -11.082,-1.608 -14.776,-4.823c-3.694,-3.215 -5.541,-8.004 -5.541,-14.366l0,-30.988c0,-1.778 0.41,-3.095 1.231,-3.95c0.821,-0.855 2.189,-1.283 4.105,-1.283l9.953,0c1.984,0 3.386,0.428 4.207,1.283c0.821,0.855 1.231,2.172 1.231,3.95l0,30.168c0,3.967 2.155,5.951 6.465,5.951c2.189,0 4.002,-0.581 5.438,-1.744c1.437,-1.163 2.155,-2.634 2.155,-4.413l0,-29.962c0,-1.778 0.41,-3.095 1.231,-3.95c0.821,-0.855 2.223,-1.283 4.207,-1.283l9.953,0c1.984,0 3.387,0.428 4.207,1.283c0.821,0.855 1.232,2.172 1.232,3.95l0,44.123c0,3.009 -1.539,4.514 -4.618,4.514l-9.235,0c-1.847,0 -2.873,-0.752 -3.078,-2.257l-0.41,-3.078c-1.984,2.189 -4.378,3.882 -7.183,5.079c-2.805,1.197 -6.396,1.796 -10.774,1.796Z" style="fill:#fff;fill-rule:nonzero;"/><path d="M593.805,84.859c-5.267,0 -10.295,-0.616 -15.084,-1.847c-4.788,-1.232 -8.722,-2.908 -11.8,-5.028c-0.752,-0.479 -1.129,-1.095 -1.129,-1.847c0,-0.479 0.24,-1.197 0.719,-2.155l4.412,-7.593c0.479,-0.89 1.026,-1.334 1.642,-1.334c0.547,0 1.265,0.273 2.154,0.821c4.994,2.873 10.946,4.309 17.855,4.309c4.104,0 7.302,-0.889 9.594,-2.668c2.291,-1.778 3.437,-4.412 3.437,-7.901c0,-3.83 -0.958,-6.515 -2.873,-8.054c-1.915,-1.54 -4.686,-2.309 -8.311,-2.309c-2.189,0 -4.344,0.188 -6.465,0.564c-2.12,0.376 -3.899,0.872 -5.336,1.488c-1.71,0.616 -3.523,0.924 -5.438,0.924c-2.668,0 -4.857,-0.685 -6.567,-2.053c-1.71,-1.368 -2.497,-3.352 -2.36,-5.951l1.642,-26.063c0.137,-1.573 0.564,-2.736 1.282,-3.489c0.719,-0.752 2.035,-1.128 3.951,-1.128l42.686,0c1.915,0 3.232,0.393 3.95,1.18c0.718,0.786 1.078,2.103 1.078,3.95l0,4.823c0,1.847 -0.36,3.164 -1.078,3.95c-0.718,0.787 -2.035,1.18 -3.95,1.18l-31.091,0l-0.513,8.312c1.368,-0.342 3.181,-0.633 5.438,-0.873c2.258,-0.239 4.276,-0.359 6.054,-0.359c9.098,0 16.144,1.847 21.138,5.541c4.993,3.694 7.49,9.817 7.49,18.367c0,5.199 -1.385,9.697 -4.155,13.494c-2.771,3.796 -6.619,6.704 -11.544,8.722c-4.925,2.018 -10.535,3.027 -16.828,3.027Z" style="fill:#fff;fill-rule:nonzero;"/><path d="M672.302,83.319c-1.984,0 -3.369,-0.41 -4.156,-1.231c-0.787,-0.821 -1.18,-2.12 -1.18,-3.899l0,-28.013c0,-7.182 2.343,-12.689 7.029,-16.52c4.686,-3.831 11.646,-5.746 20.881,-5.746c9.235,0 16.212,1.915 20.932,5.746c4.72,3.831 7.08,9.338 7.08,16.52l0,28.013c0,1.779 -0.427,3.078 -1.282,3.899c-0.855,0.821 -2.275,1.231 -4.258,1.231l-9.954,0c-1.983,0 -3.369,-0.41 -4.155,-1.231c-0.787,-0.821 -1.18,-2.12 -1.18,-3.899l0,-27.602c0,-2.736 -0.565,-4.737 -1.693,-6.003c-1.129,-1.265 -2.959,-1.898 -5.49,-1.898c-2.531,0 -4.361,0.633 -5.49,1.898c-1.128,1.266 -1.693,3.267 -1.693,6.003l0,6.054c1.368,-1.642 3.215,-2.463 5.541,-2.463l2.463,0c0.821,0 1.368,0.154 1.642,0.462c0.273,0.308 0.41,0.94 0.41,1.898l0,9.748c0,1.026 -0.154,1.727 -0.462,2.104c-0.308,0.376 -0.838,0.564 -1.59,0.564l-3.079,0c-1.436,0 -2.616,0.513 -3.54,1.539c-0.923,1.026 -1.385,2.36 -1.385,4.002l0,3.694c0,1.779 -0.41,3.078 -1.231,3.899c-0.821,0.821 -2.223,1.231 -4.207,1.231l-9.953,0Z" style="fill:#fff;fill-rule:nonzero;"/><path d="M680.305,23.19c-2.12,0 -3.488,-0.325 -4.104,-0.975c-0.616,-0.65 -0.924,-2.035 -0.924,-4.156l0,-3.899c0,-2.12 0.308,-3.506 0.924,-4.156c0.616,-0.649 1.984,-0.974 4.104,-0.974l11.287,0l0,-4.207c0,-1.847 0.394,-3.113 1.18,-3.797c0.787,-0.684 2.036,-1.026 3.746,-1.026l3.488,0c1.711,0 2.959,0.342 3.746,1.026c0.786,0.684 1.18,1.95 1.18,3.797l0,4.207l4.617,0l0,-4.207c0,-1.847 0.393,-3.113 1.18,-3.797c0.787,-0.684 2.035,-1.026 3.745,-1.026l3.489,0c1.71,0 2.959,0.342 3.745,1.026c0.787,0.684 1.18,1.95 1.18,3.797l0,12.723c0,2.053 -0.376,3.506 -1.128,4.361c-0.753,0.855 -2.223,1.283 -4.412,1.283l-37.043,0Z" style="fill:#fff;fill-rule:nonzero;"/><path d="M752.03,84.859c-6.157,0 -11.082,-1.608 -14.776,-4.823c-3.694,-3.215 -5.541,-8.004 -5.541,-14.366l0,-30.988c0,-1.778 0.41,-3.095 1.231,-3.95c0.821,-0.855 2.189,-1.283 4.105,-1.283l9.953,0c1.984,0 3.386,0.428 4.207,1.283c0.821,0.855 1.231,2.172 1.231,3.95l0,30.168c0,3.967 2.155,5.951 6.465,5.951c2.189,0 4.001,-0.581 5.438,-1.744c1.437,-1.163 2.155,-2.634 2.155,-4.413l0,-29.962c0,-1.778 0.41,-3.095 1.231,-3.95c0.821,-0.855 2.223,-1.283 4.207,-1.283l9.953,0c1.984,0 3.386,0.428 4.207,1.283c0.821,0.855 1.232,2.172 1.232,3.95l0,44.123c0,3.009 -1.54,4.514 -4.618,4.514l-9.235,0c-1.847,0 -2.873,-0.752 -3.078,-2.257l-0.41,-3.078c-1.984,2.189 -4.378,3.882 -7.183,5.079c-2.805,1.197 -6.396,1.796 -10.774,1.796Z" style="fill:#fff;fill-rule:nonzero;"/></svg>