<?xml version="1.0" encoding="UTF-8" standalone="no"?><!DOCTYPE svg PUBLIC "-//W3C//DTD SVG 1.1//EN" "http://www.w3.org/Graphics/SVG/1.1/DTD/svg11.dtd"><svg width="100%" height="100%" viewBox="0 0 1920 4247" version="1.1" xmlns="http://www.w3.org/2000/svg" xmlns:xlink="http://www.w3.org/1999/xlink" xml:space="preserve" xmlns:serif="http://www.serif.com/" style="fill-rule:evenodd;clip-rule:evenodd;stroke-linejoin:round;stroke-miterlimit:2;"><path d="M1343.14,154.928c-6.55,56.765 -10.201,50.498 -42.971,75.743c-32.765,25.245 -62.629,37.84 -75.012,-56.824c-12.377,-94.657 -31.318,-94.657 -62.635,75.745c-41.513,164.073 -91.777,-12.595 -133.281,-94.664c-41.518,-82.007 -52.443,94.664 -56.809,145.154c-4.379,50.498 -28.412,25.251 -48.074,0c-19.658,-25.245 -39.322,-151.481 -63.36,-220.892c-37.137,-88.338 -82.3,195.647 -93.951,271.39c-11.661,75.738 -47.347,44.166 -88.851,75.738c-41.517,31.52 -71.376,12.595 -120.173,-25.245c-37.876,-183.054 -56.816,-119.969 -78.663,-44.167c-21.842,75.737 -29.127,69.353 -53.889,25.245c-24.759,-44.17 -60.451,-18.978 -75.749,-75.794c-15.296,-56.765 -43.694,-75.686 -74.288,0c-16.743,-88.338 -36.407,-271.392 -75.742,-283.991c-39.322,-12.593 -41.518,31.577 -92.486,309.295c-1.46,-113.642 -28.412,-164.134 -38.605,-189.438c-10.2,-25.251 -34.238,284.036 -34.238,284.036c-13.105,-44.184 -24.578,-50.346 -34.367,-38.11l0,3672.16c3.457,-11.327 6.631,-27.515 9.613,-49.383c12.214,-89.703 32.902,-40.746 51.711,16.248c18.809,57.046 26.326,122.185 44.196,122.185c17.855,0 24.431,57.05 36.662,89.65c12.222,32.593 33.844,-48.845 72.396,-89.65c38.551,-40.688 36.672,-40.688 52.658,24.451c15.974,65.199 28.208,32.599 48.884,8.149c20.685,-24.448 31.029,-146.58 42.315,-73.288c11.278,73.288 29.147,73.288 71.459,65.139c42.301,-8.152 118.465,-146.636 140.095,-97.737c21.61,48.898 36.664,162.936 42.3,114.091c5.644,-48.9 21.63,-130.391 53.601,-130.391c31.962,0 79.918,16.3 94.023,-24.394c14.095,-40.805 48.892,-48.9 73.337,8.093c24.437,57.046 19.743,97.792 47.009,73.345c27.266,-24.445 45.135,-16.299 78.037,-8.146c32.908,8.146 83.681,-154.789 109.066,-187.448c25.387,-32.599 31.968,-16.298 51.713,40.752c19.749,57.105 34.789,105.944 49.836,65.199c15.04,-40.695 20.684,-24.453 71.455,16.298c50.77,40.748 98.726,24.447 113.769,-8.093c15.038,-32.658 22.569,-138.601 53.592,-73.404c31.027,65.199 31.027,8.205 45.127,-24.453c14.107,-32.597 43.254,-32.597 62.063,8.154c18.764,40.693 45.037,24.504 71.35,81.27c25.457,54.938 119.516,222.263 143.855,137.912c10.254,-35.558 20.777,-194.678 47.103,-129.479c26.327,65.139 41.373,65.139 53.591,-24.453c12.219,-89.703 32.904,-40.746 51.713,16.248c16.265,49.303 24.102,104.641 37.47,118.736l0,-3908.24c-9.165,-50.474 -23.39,-78.603 -30.191,-95.441c-10.193,-25.251 -34.231,284.036 -34.231,284.036c-39.328,-132.554 -64.082,75.745 -72.098,100.99c-8.017,25.304 -42.248,-151.423 -82.306,-302.845c-16.573,-62.747 -30.615,-59.158 -41.433,-33.797c-1.84,-43.769 -4.655,-84.689 -8.51,-111.417c-7.288,-50.498 -37.145,25.245 -47.351,88.39c-10.193,63.091 -25.491,56.824 -37.868,44.172c-12.377,-12.652 -25.491,69.352 -32.041,119.909c-3.766,29.027 -11.628,10.061 -23.721,-8.907c-8.943,-14.024 -20.199,-28.049 -33.824,-22.672c-10.93,-182.995 -49.521,-271.39 -82.292,-296.637c-3.053,-2.351 -5.928,-3.443 -8.627,-3.445c-26.287,-0.011 -36.415,103.401 -42.362,154.928Z" style="fill:url(#_Linear1);fill-rule:nonzero;"/><defs><linearGradient id="_Linear1" x1="0" y1="0" x2="1" y2="0" gradientUnits="userSpaceOnUse" gradientTransform="matrix(0,3083.79,-3083.79,0,958.04,671.461)"><stop offset="0" style="stop-color:#9c673f;stop-opacity:1"/><stop offset="0.18" style="stop-color:#9c673f;stop-opacity:1"/><stop offset="0.69" style="stop-color:#8b5531;stop-opacity:1"/><stop offset="1" style="stop-color:#8b5531;stop-opacity:1"/></linearGradient></defs></svg>