<?xml version="1.0" encoding="UTF-8" standalone="no"?><!DOCTYPE svg PUBLIC "-//W3C//DTD SVG 1.1//EN" "http://www.w3.org/Graphics/SVG/1.1/DTD/svg11.dtd"><svg width="100%" height="100%" viewBox="0 0 137 812" version="1.1" xmlns="http://www.w3.org/2000/svg" xmlns:xlink="http://www.w3.org/1999/xlink" xml:space="preserve" xmlns:serif="http://www.serif.com/" style="fill-rule:evenodd;clip-rule:evenodd;stroke-linejoin:round;stroke-miterlimit:2;"><g><path d="M30.007,41.067c-5.082,21.784 22.511,23.236 22.511,30.499c0,7.261 -7.262,10.89 -28.32,21.057c-21.057,10.165 -15.248,32.673 -15.248,32.673l12.344,18.154l47.924,-13.994l47.923,13.994l12.344,-18.154c0,0 5.811,-22.508 -15.249,-32.673c-21.056,-10.167 -28.317,-13.797 -28.317,-21.057c0,-7.264 27.592,-8.716 22.509,-30.499c-5.081,-21.784 -28.317,-41.39 -39.21,-42.114c-10.892,0.724 -34.126,20.329 -39.211,42.114" style="fill:#8c531b;fill-rule:nonzero;"/><path d="M29.238,768.487c-5.083,-21.784 22.509,-23.238 22.509,-30.5c0,-7.26 -7.261,-10.889 -28.318,-21.056c-21.056,-10.165 -15.248,-32.674 -15.248,-32.674l12.344,-18.155l47.924,13.996l47.923,-13.996l12.346,18.155c0,0 5.809,22.509 -15.248,32.674c-21.058,10.167 -28.32,13.796 -28.32,21.056c0,7.262 27.593,8.716 22.511,30.5c-5.086,21.784 -28.319,41.389 -39.212,42.113c-10.891,-0.724 -34.128,-20.329 -39.211,-42.113" style="fill:#8c531b;fill-rule:nonzero;"/><path d="M136.581,121.93c-9.39,185.114 -9.056,372.74 0,562.62c-16.14,29.207 -109.909,32.281 -136.043,0c6.17,-186.855 6.126,-374.399 0,-562.62c24.595,-28.438 122.209,-36.127 136.043,0" style="fill:#f9c683;fill-rule:nonzero;"/><path d="M136.581,121.93c-9.39,185.114 -9.056,372.74 0,562.62c-16.14,29.207 -109.909,32.281 -136.043,0c6.17,-186.855 6.126,-374.399 0,-562.62c24.595,-28.438 122.209,-36.127 136.043,0" style="fill:#ccab8b;fill-rule:nonzero;"/></g></svg>