<?xml version="1.0" encoding="UTF-8" standalone="no"?><!DOCTYPE svg PUBLIC "-//W3C//DTD SVG 1.1//EN" "http://www.w3.org/Graphics/SVG/1.1/DTD/svg11.dtd"><svg width="100%" height="100%" viewBox="0 0 1911 3507" version="1.1" xmlns="http://www.w3.org/2000/svg" xmlns:xlink="http://www.w3.org/1999/xlink" xml:space="preserve" xmlns:serif="http://www.serif.com/" style="fill-rule:evenodd;clip-rule:evenodd;stroke-linejoin:round;stroke-miterlimit:2;"><path d="M579.242,6.016c0,0 -11.031,36.103 -64.181,26.075c0,0 -23.066,-17.049 -19.053,13.036c4.01,30.085 -1.004,43.121 -32.091,47.133c-31.089,4.012 -55.157,-32.09 -76.216,26.074c0,0 3.009,64.181 -27.076,46.13c-30.086,-18.052 -84.238,33.094 -154.436,19.054c0,0 -32.091,-44.125 -45.128,-22.063c0,0 -16.045,15.977 -12.034,24.535c4.011,8.559 12.034,14.774 -8.023,27.211c-20.056,12.436 -50.141,61.575 -31.087,68.594l2.005,53.151c0,0 -34.096,12.034 -32.09,29.082c0,0 -21.06,12.034 -9.026,14.039c12.034,2.007 20.057,0 20.057,0l-2.006,37.106l10.028,0l-1.002,47.132l-38.108,0c0,0 -21.059,29.083 -45.128,0c0,0 -22.061,-10.028 -12.034,17.049c10.029,27.076 20.057,5.014 21.06,52.147c0,0 9.026,19.053 36.102,-14.04l10.028,-2.006c0,0 -14.04,35.099 7.02,43.123c21.06,8.022 -13.037,78.22 12.034,92.26c0,0 4.512,32.341 41.868,50.643c37.356,18.301 9.527,30.837 63.931,82.733c54.403,51.897 99.782,88.249 63.68,117.665l46.464,58.166l1.003,57.494l49.139,-45.795l5.013,52.147c0,0 -12.702,46.131 -43.455,23.066c-30.753,-23.066 -34.096,152.429 -34.096,152.429c0,0 20.057,56.159 -19.054,22.063c0,0 -27.077,-7.02 -16.045,33.094l-53.15,9.024l-4.012,49.14l20.057,23.065l-2.006,33.093c0,0 58.164,42.119 64.181,88.249c6.017,46.131 103.292,80.227 103.292,80.227c0,0 4.011,36.101 35.099,73.207c31.088,37.104 4.011,138.39 4.011,138.39c0,0 -13.036,101.286 62.176,142.403l2.005,69.195l15.043,7.021l-3.009,18.05c0,0 40.114,-3.008 15.043,21.059l0,36.102l23.065,27.078l-1.002,23.064c0,0 -24.068,7.02 -67.19,94.267c-43.122,87.246 -127.36,147.416 -127.36,147.416l-4.346,40.781c0,0 21.394,3.343 -7.354,26.074c0,0 -5.348,68.86 -47.467,121.677l-2.674,34.096l10.697,7.354l-44.124,70.198l0.668,34.766c0,0 -24.737,14.039 -10.028,28.747l0,27.41l-26.075,61.508c0,0 -23.399,96.272 21.395,131.705c0,0 14.708,6.018 -12.703,34.096c-27.411,28.08 7.354,66.856 7.354,66.856c0,0 36.102,-14.708 26.074,-37.439c0,0 -2.006,-8.692 4.011,-14.04c6.017,-5.348 0,-15.377 -7.354,-15.377c-7.354,0 -6.017,-20.057 8.691,-25.405c14.708,-5.348 7.354,-40.782 7.354,-40.782c0,0 39.84,-22.73 31.954,13.372c0,0 23.537,-8.023 25.542,4.68c2.005,12.702 4.012,42.118 4.012,42.118c0,0 61.506,22.731 66.186,46.131c4.68,23.399 -1.337,37.439 -1.337,37.439c0,0 16.714,-0.668 16.714,9.359c0,0 24.068,-13.37 36.77,11.366c12.703,24.736 19.388,57.495 19.388,57.495c0,0 55.49,30.755 68.862,61.508l11.365,4.011l-0.669,46.799l15.377,16.045l21.394,0c0,0 22.062,55.491 54.153,70.867l16.045,30.754l7.354,-30.086c0,0 14.04,-10.028 0,-18.719c-14.039,-8.691 12.034,-18.051 10.029,-26.742c-2.006,-8.692 30.084,-14.04 28.079,27.411c-2.005,41.45 90.924,48.136 97.609,18.05c0,0 29.416,10.697 24.068,42.12l-12.703,4.012l-1.337,20.724l35.434,4.012l0,-13.372l20.057,-0.668l0,14.04l10.696,0l0,56.158c0,0 -42.119,35.434 -15.377,53.484c26.742,18.05 34.097,34.765 65.519,-16.045c0,0 27.411,-6.017 51.478,-27.411c0,0 24.068,-1.338 32.091,35.433c0,0 6.016,14.709 20.057,-3.343c0,0 14.707,22.064 24.737,-1.337l18.718,-6.685l0,-35.433c0,0 16.046,-26.743 34.766,-32.091c0,0 9.359,-31.423 -14.709,-41.45c-24.068,-10.028 -52.815,-18.051 -123.014,-143.071l-24.736,0l0,-6.686l-24.068,-0.668l0,16.046l-72.204,0.668c0,0 2.006,-13.372 -8.691,-16.046c-10.697,-2.674 -48.471,-7.019 -69.53,-54.152c0,0 -14.04,-8.023 -36.102,5.014c0,0 -28.079,-1.002 -23.066,-37.105c0,0 -82.232,-53.15 -52.147,-99.28c0,0 16.046,-35.1 46.13,20.056c0,0 9.026,-56.159 -27.075,-176.499l-19.055,-30.084l0,29.082c0,0 -26.073,5.014 -42.118,-55.156c-16.046,-60.17 -27.076,-156.441 -27.076,-156.441l-49.139,2.005c0,0 -22.063,8.023 -28.08,25.071l-54.152,-2.005c0,0 -26.074,-24.068 4.01,-38.108l0,-15.042c0,0 -39.11,-25.072 -31.087,-146.414c0,0 10.029,-25.072 9.025,-28.08c-1.003,-3.008 -11.03,-35.099 1.004,-46.13c12.033,-11.031 -11.032,-16.045 69.195,-122.345l0,-45.128c0,0 25.07,-58.164 26.073,-73.207c1.003,-15.042 47.134,-104.294 47.134,-104.294c0,0 -6.018,-24.068 46.129,-75.212l-16.045,-64.181c0,0 -16.045,-90.255 29.083,-138.391c0,0 -6.017,-36.103 -27.077,-46.131c-21.06,-10.028 30.085,-54.153 59.167,-57.162c29.082,-3.008 63.179,0 63.179,0l1.003,-14.039l39.109,2.007l2.007,8.022l69.195,2.005l-4.012,33.094l-19.053,16.045l14.039,11.032l-2.005,23.064l-13.037,11.032c0,0 15.042,45.127 -4.011,68.192c-19.054,23.065 24.067,49.139 24.067,49.139l13.037,-20.057l56.159,0c0,0 37.105,30.085 93.264,-5.015l31.087,1.003l30.085,38.109l9.026,-7.021l14.039,-3.009l2.005,18.052l46.132,48.136l20.056,-10.028l0,34.096l-18.051,6.017l1.002,27.076l12.034,5.014l5.015,19.054l25.071,0l0,-22.061l-12.034,-4.012l-3.009,-20.056l15.043,1.002c0,0 14.039,12.034 27.076,-14.04l19.054,2.006l62.175,130.368l0,-31.087l-46.129,-101.287c0,0 35.098,-63.178 0,-78.22c-35.1,-15.043 -58.165,-44.125 -39.112,-63.179c19.055,-19.054 -60.169,-94.266 -42.118,-126.356c18.05,-32.091 7.02,-61.173 7.02,-61.173c0,0 68.192,11.031 46.129,-14.04c-22.062,-25.072 26.075,-2.006 48.136,-71.201c0,0 26.074,-12.035 26.074,-58.164c0,0 39.111,-11.031 53.151,-35.099l24.067,0l0,-8.024l53.15,0c0,0 33.093,-45.127 65.184,-1.002c32.091,44.125 76.216,-8.023 76.216,-8.023l79.224,0c0,0 15.042,29.083 41.116,-1.002c26.073,-30.086 77.218,1.002 84.237,12.034c7.021,11.031 11.031,43.121 37.105,28.078c26.074,-15.042 7.02,-31.087 38.107,-27.076c0,0 42.12,-14.04 53.15,-48.136l0,-43.121c0,0 -24.068,-7.021 7.021,-34.097l0,-30.084c0,0 -46.13,-17.05 -18.051,-51.145c0,0 -2.006,-35.099 18.051,-40.113l17.048,-35.099l0,-33.094c0,0 -114.323,-58.165 -47.133,-78.221l-60.17,-12.034c0,0 -30.085,-2.005 -37.105,-44.125l-65.184,-60.169l-3.008,-35.099l14.039,-1.003l1.003,-43.122l-16.046,1.002l2.006,-56.158l20.058,-9.025l-2.007,-74.21c0,0 -19.053,-31.087 -27.076,-38.108c-8.023,-7.019 -23.066,25.072 -80.227,-66.186l-18.051,-7.02l-6.017,-28.08c0,0 -34.096,-29.082 -35.099,-59.167c0,0 -16.045,-15.043 -21.059,-30.085l-23.066,1.003c0,0 11.031,39.111 -73.207,-21.06l-56.158,0l-19.054,12.035l-2.005,26.073l-42.119,36.102l-1.004,20.057l-30.084,8.022c0,0 -33.093,-1.003 -55.155,48.137c0,0 -19.055,-14.041 -14.041,-38.108l-42.118,-4.012c0,0 -63.179,-27.076 -55.155,-58.164l-35.1,0c0,0 -30.085,64.182 -52.147,35.1l-10.029,-4.012l-1.003,25.071l-28.079,27.077l-19.054,0l1.003,20.056l-91.258,74.209l-40.113,-21.06l-25.07,2.007l4.011,-17.048l16.046,-16.046l2.005,-31.087l42.119,-48.137l0,-54.152c0,0 -6.017,-22.063 -14.04,-30.085c-8.023,-8.023 -33.093,-9.026 11.031,-37.105c44.125,-28.08 -3.008,-50.142 47.133,-120.34c0,0 -68.192,-92.261 -18.051,-110.311l0,-26.476l-52.148,0l0,-11.632l-39.109,0l0,11.632l-27.077,26.476l-22.062,-19.055l-11.032,-1.002l-11.031,17.048c0,0 -72.203,-21.059 -9.025,-107.303l0,-42.119l18.051,0l0,-18.051l-28.079,0c0,0 -31.089,-8.022 -27.077,-48.136l-33.094,0c0,0 -1.002,23.065 -21.059,16.046c-20.057,-7.021 -36.101,-37.105 -36.101,-37.105l-27.077,6.016Z" style="fill:#a4c1b2;fill-rule:nonzero;"/></svg>