<?xml version="1.0" encoding="UTF-8" standalone="no"?><!DOCTYPE svg PUBLIC "-//W3C//DTD SVG 1.1//EN" "http://www.w3.org/Graphics/SVG/1.1/DTD/svg11.dtd"><svg width="100%" height="100%" viewBox="0 0 1920 578" version="1.1" xmlns="http://www.w3.org/2000/svg" xmlns:xlink="http://www.w3.org/1999/xlink" xml:space="preserve" xmlns:serif="http://www.serif.com/" style="fill-rule:evenodd;clip-rule:evenodd;stroke-linejoin:round;stroke-miterlimit:2;"><g><path d="M0,70.735l0,506.49l1919.47,0l0,-314.799c-1.612,0.117 -3.489,0.68 -5.396,1.244c-3.005,0.887 -6.084,1.774 -8.308,0.915c-4.034,-1.558 -9.688,-0.866 -13.859,-2.612c-4.071,-1.703 -1.532,-14.178 -5.531,-16.023c-2.027,-0.934 -6.038,1.016 -10.023,2.966c-4.024,1.967 -8.022,3.936 -9.925,2.937c-3.678,-1.93 -1.522,-12.321 -5.57,-14.23c-1.912,-0.901 -5.242,0.347 -8.601,1.595c-3.369,1.253 -6.767,2.506 -8.788,1.587c-3.899,-1.771 -3.616,-10.228 -7.6,-12.067c-3.917,-1.808 -4.66,-8.257 -8.557,-10.169c-1.916,-0.94 -4.682,-0.646 -7.445,-0.352c-2.841,0.302 -5.679,0.604 -7.588,-0.436c-3.798,-2.066 -5.466,-6.518 -9.039,-8.768c-3.635,-2.291 -9.597,-1.963 -12.89,-4.485c-3.362,-2.571 -12.592,-0.97 -15.484,-3.826c-2.931,-2.897 5.288,-12.881 2.957,-16.115c-2.469,-3.43 -4.559,-6.969 -6.958,-10.655c-2.333,-3.582 -6.587,-6.276 -8.862,-9.936c-2.289,-3.684 -13.527,-3.384 -15.766,-6.98c-2.336,-3.752 5.224,-11.892 2.933,-15.362c-2.514,-3.811 -9.867,-5.022 -12.338,-8.254c-2.951,-3.86 1.595,-12.803 -1.316,-15.45c-2.591,-2.355 -7.79,-1.502 -12.278,-0.65c-2.578,0.489 -4.922,0.979 -6.399,0.86c-5.372,-0.43 -9.256,0.429 -13.985,2.8c-4.131,2.073 -10.589,2.428 -14.623,5.836c-3.506,2.963 -4.986,7.992 -8.679,11.434c-3.428,3.196 -7.617,5.999 -11.409,9.198c-2.595,2.191 -5.295,5.463 -9.396,7.93c-1.659,0.998 -4.674,0.324 -7.769,-0.351c-3.125,-0.68 -6.333,-1.361 -8.315,-0.323c-3.638,1.906 -5.077,6.823 -8.959,8.694c-3.84,1.851 -1.471,13.305 -5.288,15.039c-4.034,1.833 -10.029,0.527 -13.739,2.136c-2.228,0.966 -5.657,-0.285 -8.932,-1.535c-3.099,-1.184 -6.06,-2.368 -7.733,-1.672c-7.17,2.984 0.177,9.448 -4.445,13.407c-4.906,4.204 -3.784,2.358 -9.061,8.085c-2.451,2.661 -9.792,2.639 -13.596,5.722c-3.093,2.508 -3.436,8.537 -7.505,11.014c-1.812,1.103 -4.856,0.622 -7.981,0.141c-3.013,-0.464 -6.102,-0.927 -8.239,0.027c-3.915,1.747 -5.379,8.23 -9.976,9.655c-4.171,1.294 -7.87,6.038 -12.63,6.961c-2.289,0.443 -4.972,-0.156 -7.709,-0.755c-2.453,-0.538 -4.95,-1.075 -7.243,-0.862c-5.071,0.474 -10.12,1.265 -14.95,1.409c-5.08,0.152 -10.031,-4.183 -14.877,-4.303c-5.069,-0.125 -9.475,-4.803 -14.322,-5.119c-2.425,-0.158 -4.81,-0.067 -7.171,0.024c-2.553,0.098 -5.078,0.196 -7.595,-0.02c-5.025,-0.431 -9.788,-2.704 -14.644,-3.094c-5.014,-0.404 -10.338,-0.713 -15.22,-0.927c-5.002,-0.22 -10.691,0.078 -15.607,0.216c-4.953,0.139 -10.468,3.011 -15.39,3.677c-4.81,0.65 -8.311,7.342 -13.144,8.65c-4.557,1.234 -9.008,2.598 -13.628,4.548c-3.718,1.57 -7.517,4.928 -12.406,6.295c-4.116,1.151 -9.129,1.41 -13.951,2.43c-4.302,0.911 -8.662,3.097 -13.44,3.911c-2.219,0.379 -4.794,-0.625 -7.409,-1.629c-2.579,-0.99 -5.197,-1.98 -7.554,-1.644c-2.253,0.321 -4.726,-0.54 -7.229,-1.401c-2.47,-0.849 -4.969,-1.698 -7.314,-1.413c-4.526,0.553 -7.734,9.595 -12.438,10.095c-2.288,0.244 -4.899,-1.772 -7.525,-3.788c-2.613,-2.005 -5.241,-4.01 -7.579,-3.79c-4.593,0.432 -8.453,6.63 -13.125,7.022c-4.62,0.39 -8.913,3.948 -13.571,4.301c-2.343,0.18 -4.738,-0.119 -7.133,-0.418c-2.353,-0.293 -4.707,-0.587 -7.01,-0.428c-4.667,0.325 -8.883,5.528 -13.51,5.827c-2.349,0.152 -4.829,-1.246 -7.298,-2.643c-2.458,-1.392 -4.907,-2.784 -7.205,-2.645c-4.716,0.284 -9.076,4.227 -13.662,4.492c-2.374,0.137 -4.912,-2.045 -7.427,-4.228c-2.51,-2.178 -4.997,-4.357 -7.274,-4.229c-4.778,0.27 -8.317,14.711 -12.839,14.966c-2.415,0.137 -4.944,-1.684 -7.428,-3.504c-2.48,-1.818 -4.917,-3.637 -7.148,-3.506c-2.453,0.146 -4.951,-0.834 -7.384,-1.814c-2.431,-0.979 -4.797,-1.958 -6.988,-1.816c-5.032,0.331 -9.291,5.152 -13.516,5.49c-2.086,0.167 -4.371,-0.751 -6.778,-1.668c-2.36,-0.9 -4.838,-1.8 -7.357,-1.677c-4.332,0.212 -8.868,0.406 -13.789,0.563c-4.432,0.139 -8.963,1.762 -13.798,1.859c-2.259,0.046 -4.56,-0.71 -6.899,-1.465c-2.311,-0.747 -4.657,-1.494 -7.032,-1.468c-4.533,0.053 -9.078,6.605 -13.82,6.627c-4.563,0.021 -9.209,-0.919 -13.922,-0.926c-4.587,-0.004 -9.172,-6.561 -13.859,-6.59c-2.283,-0.014 -4.569,0.265 -6.861,0.544c-2.335,0.285 -4.677,0.57 -7.03,0.544c-2.311,-0.024 -4.657,1.807 -7.006,3.639c-2.354,1.836 -4.712,3.672 -7.04,3.637c-4.647,-0.071 -9.182,-4.627 -13.815,-4.716c-2.332,-0.044 -4.727,2.116 -7.116,4.276c-2.394,2.165 -4.781,4.329 -7.09,4.275c-4.689,-0.11 -9.081,-7.76 -13.676,-7.886c-4.709,-0.132 -9.184,-3.823 -13.752,-3.97c-2.356,-0.077 -4.708,0.352 -7.035,0.779c-2.345,0.431 -4.667,0.862 -6.942,0.777c-2.38,-0.088 -4.776,0.695 -7.138,1.479c-2.373,0.789 -4.713,1.576 -6.967,1.478c-2.397,-0.103 -4.783,0.218 -7.122,0.54c-2.361,0.325 -4.675,0.65 -6.904,0.537c-4.895,-0.252 -8.96,-7.535 -13.308,-7.803c-2.519,-0.155 -5.191,2.239 -7.755,4.634c-2.568,2.399 -5.029,4.798 -7.117,4.632c-5.458,-0.434 -10.186,-2.323 -13.881,-2.783c-4.476,-0.558 -7.66,0.895 -12.554,1.469c-2.047,0.24 -4.352,-0.638 -6.717,-1.517c-2.682,-0.996 -5.441,-1.992 -7.985,-1.359c-4.249,1.06 -6.426,7.618 -11.069,9.057c-2.079,0.645 -5.272,-1.074 -8.521,-2.795c-3.315,-1.755 -6.689,-3.51 -8.997,-2.753c-4.202,1.379 -6.278,7.802 -10.83,9.261c-2.121,0.679 -4.958,-0.262 -7.836,-1.204c-2.877,-0.941 -5.797,-1.882 -8.082,-1.204c-4.296,1.275 -8.72,1.788 -13.332,3.004c-4.357,1.149 -5.523,11.596 -10.181,12.643c-2.254,0.505 -4.797,0.135 -7.373,-0.236c-2.474,-0.357 -4.978,-0.713 -7.284,-0.293c-4.469,0.816 -7.874,7.336 -12.619,7.995c-2.286,0.319 -4.924,-1.234 -7.593,-2.785c-2.604,-1.516 -5.239,-3.032 -7.599,-2.807c-2.363,0.226 -4.762,-0.224 -7.195,-0.674c-2.254,-0.416 -4.536,-0.833 -6.843,-0.713c-4.574,0.239 -8.886,5.723 -13.693,5.772c-4.582,0.048 -9.048,-5.696 -13.851,-5.841c-1.947,-0.057 -3.87,-0.018 -5.806,0.023c-2.621,0.054 -5.265,0.108 -8.022,-0.082c-2.268,-0.156 -4.9,2.377 -7.558,4.909c-2.705,2.577 -5.437,5.153 -7.842,4.899c-4.745,-0.502 -8.751,-5.35 -13.199,-5.909c-4.737,-0.596 -7.505,-10.14 -11.923,-10.8c-2.336,-0.348 -4.747,0.044 -7.118,0.435c-2.424,0.4 -4.806,0.8 -7.02,0.409c-4.708,-0.834 -9.154,-1.315 -13.487,-2.225c-2.318,-0.486 -4.945,0.189 -7.525,0.863c-2.627,0.687 -5.206,1.374 -7.358,0.835c-2.297,-0.573 -5.122,0.19 -7.897,0.953c-2.823,0.777 -5.595,1.553 -7.708,0.922c-4.561,-1.362 -8.308,-5.018 -12.393,-6.484c-4.456,-1.597 -8.569,-4.142 -12.523,-5.852c-4.297,-1.857 -6.83,-6.424 -10.616,-8.401c-4.086,-2.133 -7.337,-5.126 -10.931,-7.382c-1.891,-1.186 -5.107,-1.064 -8.284,-0.941c-3.249,0.125 -6.458,0.25 -8.172,-1.023c-3.541,-2.628 -0.372,-11.481 -3.587,-14.216c-3.287,-2.795 -2.218,-8.83 -5.32,-11.713c-3.105,-2.886 -13.801,-0.007 -16.878,-2.955c-3.028,-2.9 -7.556,-4.64 -10.707,-7.576c-3.424,-3.194 -5.087,-7.424 -8.3,-10.318c-3.497,-3.152 -6.726,-6.154 -10.02,-8.972c-3.597,-3.077 -0.808,-11.458 -4.227,-14.164c-3.728,-2.952 -7.408,-6.074 -11.009,-8.62c-3.896,-2.755 -6.578,-7.325 -10.431,-9.648c-4.079,-2.462 -9.651,-3.917 -13.809,-5.951c-4.255,-2.08 -10.408,-2.029 -14.886,-3.72c-2.28,-0.86 -5.168,-0.529 -8.081,-0.198c-2.705,0.307 -5.432,0.615 -7.715,-0.031c-4.423,-1.25 -4.354,-10.369 -8.157,-11.877c-4.155,-1.649 -7.604,-2.556 -11.272,-4.407c-1.92,-0.969 -5.368,0.185 -8.795,1.34c-3.467,1.167 -6.913,2.334 -8.735,1.305c-3.662,-2.068 -3.641,-8.817 -7.38,-10.852c-1.85,-1.007 -4.451,-0.961 -7.086,-0.917c-2.534,0.043 -5.1,0.086 -7.06,-0.807c-3.725,-1.696 -7.324,-3.295 -11.614,-4.754c-3.875,-1.319 -7.547,-2.978 -12.066,-4.026c-3.9,-0.906 -8.37,-0.471 -13.758,-0.901c-4.327,-0.343 -8.779,-3.175 -13.884,-3.317c-4.488,-0.125 -9.217,-2.458 -14.189,-2.495c-2.289,-0.017 -4.635,2.007 -7.02,4.03c-2.378,2.018 -4.797,4.035 -7.239,4.029c-4.627,-0.011 -9.385,-3.446 -14.223,-3.478c-4.666,-0.033 -9.456,-0.16 -14.252,-0.251c-4.701,-0.09 -9.266,-4.887 -14.03,-5.07c-4.726,-0.182 -9.05,-4.132 -13.779,-4.44c-2.272,-0.146 -4.536,0.126 -6.792,0.4c-2.456,0.298 -4.904,0.595 -7.346,0.35c-4.746,-0.475 -9.237,-0.819 -13.863,-1.496c-2.288,-0.334 -4.735,0.177 -7.167,0.687c-2.599,0.545 -5.179,1.091 -7.525,0.604c-2.287,-0.474 -5.186,0.597 -8.069,1.667c-3.02,1.122 -6.019,2.243 -8.273,1.59c-4.568,-1.325 -8.874,-4.885 -13.067,-6.588c-4.347,-1.764 -3.521,-11.215 -7.374,-13.436c-3.752,-2.165 -7.059,-6.095 -11.152,-7.886c-4.035,-1.766 -7.904,-5.495 -12.184,-6.931c-2.149,-0.721 -5.468,1.226 -8.791,3.173c-3.228,1.891 -6.46,3.783 -8.623,3.227c-4.381,-1.127 -7.485,-5.966 -11.934,-6.831c-2.306,-0.449 -4.856,0.282 -7.398,1.013c-2.409,0.693 -4.81,1.385 -6.986,1.074c-4.578,-0.655 -7.882,-8.481 -12.351,-8.924c-0.108,-0.011 -0.217,-0.016 -0.326,-0.016c-1.477,0 -3.045,0.961 -4.637,2.256Z" style="fill:url(#_Linear1);fill-rule:nonzero;"/><path d="M1308.21,256.659c0,0 -6.444,-19.976 -15.279,-37.543c1.818,8.411 6.837,34.57 6.837,34.57c0,0 -3.05,-9.314 -16.598,-36.174c1.385,9.336 12.043,39.26 12.043,39.26c0,0 -7.8,-13.524 -20.489,-31.798c1.48,11.011 16.798,33.035 16.798,33.035c0,0 -13.218,-8.588 -23.263,-15.218c2.637,7.699 20.83,18.764 20.83,18.764c0,0 -10.65,-1.16 -20.318,-1.089c5.363,2.688 21.144,4.322 21.144,4.322l50.421,-9.191c0,0 10.668,-26.199 8.583,-31.741c-6.713,7.71 -13.265,27.799 -13.265,27.799c0,0 1.954,-15.867 -1.726,-21.118c-1.77,4.835 -1.404,18.023 -1.404,18.023c0,0 -3.811,-26.661 -10.045,-31.447c-4.046,6.379 -0.938,32.251 -0.938,32.251c0,0 -3.309,-22.734 -6.934,-35.609c-4.678,10.441 -2.248,42.148 -2.248,42.148c0,0 -2.752,-25.163 -11.774,-46.079c-0.504,11.09 7.625,46.835 7.625,46.835Z" style="fill:url(#_Linear2);fill-rule:nonzero;"/><path d="M1193.43,268.036c0,0 -6.444,-19.975 -15.279,-37.541c1.817,8.411 6.837,34.569 6.837,34.569c0,0 -3.05,-9.314 -16.598,-36.174c1.384,9.336 12.043,39.261 12.043,39.261c0,0 -7.801,-13.526 -20.49,-31.799c1.48,11.01 16.798,33.035 16.798,33.035c0,0 -13.217,-8.588 -23.262,-15.218c2.635,7.699 20.828,18.764 20.828,18.764c0,0 -10.65,-1.16 -20.317,-1.09c5.362,2.689 21.145,4.323 21.145,4.323l50.419,-9.192c0,0 10.67,-26.198 8.584,-31.74c-6.713,7.709 -13.265,27.799 -13.265,27.799c0,0 1.955,-15.867 -1.726,-21.117c-1.77,4.834 -1.403,18.022 -1.403,18.022c0,0 -3.811,-26.661 -10.046,-31.447c-4.047,6.379 -0.938,32.251 -0.938,32.251c0,0 -3.308,-22.734 -6.934,-35.61c-4.677,10.441 -2.248,42.148 -2.248,42.148c0,0 -2.751,-25.161 -11.773,-46.078c-0.504,11.091 7.625,46.834 7.625,46.834Z" style="fill:url(#_Linear3);fill-rule:nonzero;"/><path d="M956.58,276.556c0,0 -6.445,-19.977 -15.278,-37.543c1.817,8.411 6.835,34.569 6.835,34.569c0,0 -3.049,-9.314 -16.597,-36.174c1.386,9.336 12.043,39.261 12.043,39.261c0,0 -7.8,-13.525 -20.489,-31.799c1.48,11.011 16.798,33.036 16.798,33.036c0,0 -13.219,-8.589 -23.264,-15.218c2.637,7.698 20.831,18.764 20.831,18.764c0,0 -10.652,-1.16 -20.318,-1.09c5.363,2.688 21.144,4.323 21.144,4.323l50.42,-9.192c0,0 10.669,-26.198 8.584,-31.741c-6.713,7.71 -13.266,27.801 -13.266,27.801c0,0 1.956,-15.868 -1.725,-21.119c-1.771,4.834 -1.403,18.023 -1.403,18.023c0,0 -3.812,-26.661 -10.046,-31.446c-4.047,6.377 -0.938,32.249 -0.938,32.249c0,0 -3.308,-22.733 -6.934,-35.609c-4.679,10.441 -2.249,42.148 -2.249,42.148c0,0 -2.751,-25.161 -11.772,-46.077c-0.505,11.09 7.624,46.834 7.624,46.834Z" style="fill:url(#_Linear4);fill-rule:nonzero;"/><path d="M904.624,273.642c0,0 -6.444,-19.977 -15.278,-37.543c1.817,8.411 6.836,34.57 6.836,34.57c0,0 -3.05,-9.315 -16.598,-36.175c1.385,9.337 12.043,39.261 12.043,39.261c0,0 -7.8,-13.525 -20.488,-31.799c1.479,11.012 16.797,33.036 16.797,33.036c0,0 -13.218,-8.588 -23.263,-15.219c2.636,7.699 20.83,18.765 20.83,18.765c0,0 -10.651,-1.161 -20.319,-1.09c5.363,2.688 21.146,4.323 21.146,4.323l50.42,-9.192c0,0 10.668,-26.198 8.583,-31.741c-6.712,7.711 -13.265,27.8 -13.265,27.8c0,0 1.955,-15.867 -1.726,-21.118c-1.77,4.835 -1.403,18.022 -1.403,18.022c0,0 -3.812,-26.659 -10.045,-31.446c-4.048,6.378 -0.938,32.25 -0.938,32.25c0,0 -3.308,-22.733 -6.935,-35.608c-4.678,10.441 -2.248,42.148 -2.248,42.148c0,0 -2.751,-25.163 -11.774,-46.079c-0.504,11.091 7.625,46.835 7.625,46.835Z" style="fill:url(#_Linear5);fill-rule:nonzero;"/><path d="M857.514,284.141c0,0 -6.443,-19.976 -15.278,-37.543c1.817,8.411 6.837,34.569 6.837,34.569c0,0 -3.051,-9.314 -16.599,-36.173c1.386,9.335 12.044,39.26 12.044,39.26c0,0 -7.801,-13.524 -20.49,-31.799c1.48,11.011 16.798,33.037 16.798,33.037c0,0 -13.218,-8.589 -23.263,-15.218c2.636,7.697 20.829,18.764 20.829,18.764c0,0 -10.649,-1.16 -20.317,-1.09c5.363,2.687 21.144,4.323 21.144,4.323l50.421,-9.192c0,0 10.668,-26.199 8.583,-31.741c-6.713,7.71 -13.265,27.799 -13.265,27.799c0,0 1.954,-15.867 -1.726,-21.118c-1.769,4.835 -1.403,18.023 -1.403,18.023c0,0 -3.811,-26.661 -10.045,-31.447c-4.048,6.379 -0.939,32.251 -0.939,32.251c0,0 -3.308,-22.734 -6.934,-35.609c-4.678,10.441 -2.248,42.148 -2.248,42.148c0,0 -2.751,-25.162 -11.774,-46.079c-0.503,11.091 7.625,46.835 7.625,46.835Z" style="fill:url(#_Linear6);fill-rule:nonzero;"/><path d="M1070.92,274.581c0,0 1.444,-20.667 -0.287,-39.696c-1.458,8.461 -6.589,34.604 -6.589,34.604c0,0 0.631,-9.65 -2.056,-38.755c-2.216,9.22 -3.427,40.452 -3.427,40.452c0,0 -2.28,-14.92 -7.397,-35.658c-2.76,10.835 3.431,35.836 3.431,35.836c0,0 -9.28,-11.702 -16.294,-20.692c-0.411,8.005 12.647,23.396 12.647,23.396c0,0 -9.655,-3.97 -18.844,-6.509c4.067,3.994 18.405,9.796 18.405,9.796l51.257,4.878c0,0 20.014,-21.953 20.133,-27.767c-9.275,5.497 -23.078,22.771 -23.078,22.771c0,0 7.849,-14.511 6.345,-20.479c-3.504,4.104 -8.142,16.702 -8.142,16.702c0,0 6.466,-26.295 2.367,-32.509c-6.246,4.952 -13.08,30.31 -13.08,30.31c0,0 5.459,-22.436 6.89,-35.616c-8.381,8.635 -18.063,39.338 -18.063,39.338c0,0 6.904,-24.587 6.26,-46.841c-4.67,10.374 -10.478,46.439 -10.478,46.439Z" style="fill:url(#_Linear7);fill-rule:nonzero;"/><path d="M222.777,117.718c0,0 1.638,-20.658 0.086,-39.697c-1.538,8.45 -6.915,34.558 -6.915,34.558c0,0 0.722,-9.644 -1.691,-38.768c-2.303,9.206 -3.807,40.429 -3.807,40.429c0,0 -2.141,-14.934 -7.063,-35.705c-2.861,10.814 3.095,35.856 3.095,35.856c0,0 -9.17,-11.764 -16.1,-20.8c-0.486,8.002 12.429,23.479 12.429,23.479c0,0 -9.618,-4.034 -18.783,-6.634c4.03,4.021 18.313,9.919 18.313,9.919l51.21,5.22c0,0 20.219,-21.817 20.393,-27.631c-9.327,5.436 -23.293,22.615 -23.293,22.615c0,0 7.986,-14.457 6.539,-20.436c-3.543,4.082 -8.299,16.647 -8.299,16.647c0,0 6.712,-26.249 2.672,-32.492c-6.292,4.912 -13.364,30.223 -13.364,30.223c0,0 5.669,-22.4 7.223,-35.569c-8.461,8.578 -18.432,39.216 -18.432,39.216c0,0 7.135,-24.542 6.7,-46.798c-4.767,10.343 -10.913,46.368 -10.913,46.368Z" style="fill:url(#_Linear8);fill-rule:nonzero;"/><path d="M355.234,163.914c0,0 1.637,-20.659 0.084,-39.698c-1.537,8.45 -6.914,34.558 -6.914,34.558c0,0 0.722,-9.645 -1.691,-38.768c-2.303,9.206 -3.808,40.429 -3.808,40.429c0,0 -2.139,-14.935 -7.061,-35.705c-2.862,10.815 3.094,35.856 3.094,35.856c0,0 -9.17,-11.764 -16.099,-20.8c-0.487,8.002 12.427,23.48 12.427,23.48c0,0 -9.616,-4.034 -18.781,-6.634c4.028,4.02 18.312,9.919 18.312,9.919l51.21,5.22c0,0 20.22,-21.818 20.393,-27.632c-9.327,5.436 -23.293,22.615 -23.293,22.615c0,0 7.986,-14.457 6.54,-20.435c-3.544,4.081 -8.3,16.646 -8.3,16.646c0,0 6.712,-26.249 2.672,-32.492c-6.292,4.912 -13.364,30.223 -13.364,30.223c0,0 5.669,-22.4 7.223,-35.569c-8.46,8.579 -18.431,39.215 -18.431,39.215c0,0 7.135,-24.539 6.7,-46.797c-4.767,10.343 -10.913,46.369 -10.913,46.369Z" style="fill:url(#_Linear9);fill-rule:nonzero;"/><path d="M461.191,246.84c0,0 2.433,-14.902 3.935,-36.047c-6.027,9.843 -7.817,35.34 -7.817,35.34c0,0 -5.321,-13.347 -9.298,-23.575c-2.883,7.635 4.94,25.378 4.94,25.378c0,0 -8.085,-5.969 -16.163,-10.453c2.684,4.754 14.719,13.527 14.719,13.527l47.949,16.056c0,0 26.13,-16.753 28.051,-22.338c-10.659,3.252 -29.344,16.864 -29.344,16.864c0,0 12.082,-12.265 12.485,-18.357c-4.657,3.185 -13.044,14.314 -13.044,14.314c0,0 14.404,-23.941 12.38,-30.846c-7.566,3.397 -22.036,26.353 -22.036,26.353c0,0 12.235,-20.442 17.708,-32.844c-10.768,6.477 -29.646,33.962 -29.646,33.962c0,0 14.297,-22.198 20.588,-43.816c-7.73,8.978 -24.534,42.495 -24.534,42.495c0,0 7.812,-19.625 12.051,-38.371c-4.034,7.842 -17.105,31.934 -17.105,31.934c0,0 3.605,-9.172 10.051,-37.855c-5.002,8.408 -15.87,38.279 -15.87,38.279Z" style="fill:url(#_Linear10);fill-rule:nonzero;"/><path d="M521.842,276.092c0,0 2.432,-14.902 3.934,-36.047c-6.028,9.843 -7.818,35.34 -7.818,35.34c0,0 -5.321,-13.346 -9.298,-23.575c-2.883,7.635 4.94,25.377 4.94,25.377c0,0 -8.083,-5.968 -16.163,-10.452c2.685,4.754 14.719,13.528 14.719,13.528l47.949,16.056c0,0 26.132,-16.754 28.051,-22.339c-10.658,3.252 -29.342,16.864 -29.342,16.864c0,0 12.08,-12.264 12.483,-18.357c-4.656,3.185 -13.043,14.314 -13.043,14.314c0,0 14.404,-23.941 12.378,-30.846c-7.565,3.397 -22.034,26.353 -22.034,26.353c0,0 12.235,-20.442 17.708,-32.844c-10.768,6.477 -29.647,33.962 -29.647,33.962c0,0 14.298,-22.198 20.588,-43.815c-7.729,8.977 -24.533,42.494 -24.533,42.494c0,0 7.812,-19.625 12.05,-38.371c-4.034,7.841 -17.104,31.934 -17.104,31.934c0,0 3.605,-9.172 10.051,-37.854c-5.003,8.407 -15.869,38.278 -15.869,38.278Z" style="fill:url(#_Linear11);fill-rule:nonzero;"/><path d="M36.215,90.605c0,0 1.638,-20.657 0.086,-39.697c-1.538,8.451 -6.915,34.558 -6.915,34.558c0,0 0.722,-9.645 -1.692,-38.768c-2.302,9.207 -3.807,40.429 -3.807,40.429c0,0 -2.139,-14.934 -7.061,-35.705c-2.862,10.815 3.094,35.856 3.094,35.856c0,0 -9.17,-11.763 -16.1,-20.8c-0.485,8.002 12.428,23.481 12.428,23.481c0,0 -7.929,-3.327 -16.248,-5.885l0,1.234c5.595,3.729 15.779,7.935 15.779,7.935l51.21,5.219c0,0 20.219,-21.818 20.392,-27.63c-9.327,5.435 -23.292,22.615 -23.292,22.615c0,0 7.986,-14.458 6.539,-20.437c-3.544,4.082 -8.299,16.647 -8.299,16.647c0,0 6.712,-26.248 2.672,-32.492c-6.292,4.913 -13.364,30.223 -13.364,30.223c0,0 5.669,-22.399 7.223,-35.569c-8.461,8.578 -18.432,39.215 -18.432,39.215c0,0 7.135,-24.539 6.7,-46.797c-4.767,10.344 -10.913,46.368 -10.913,46.368Z" style="fill:url(#_Linear12);fill-rule:nonzero;"/><path d="M285.006,93.794c1.222,1.411 2.771,3.466 2.59,4.641c-0.177,1.161 -1.571,0.31 -2.719,-0.899c-0.111,1.302 -0.278,2.621 -0.483,3.941c-0.17,1.085 0.36,2.136 1.323,2.867c0.343,0.261 0.658,0.591 0.922,1.007c1.136,1.784 -1.348,1.147 -3.045,0.561c-0.37,1.863 -0.765,3.695 -1.119,5.451c-0.075,0.371 -0.127,0.746 -0.159,1.125c-0.1,1.232 1.135,2.326 2.585,2.186c0.675,-0.066 1.388,0.064 2.093,0.522c2.243,1.459 -1.785,2.661 -3.692,3.125c0.842,2.166 2.177,4.348 3.892,6.449c0.809,0.993 2.607,0.927 3.259,-0.146c0.794,-1.304 1.798,-2.172 2.772,-0.858c1.916,2.58 0.92,4.161 -1.509,5.636c2.129,1.839 5.9,1.254 8.447,2.71c5.886,3.364 5.169,9.105 3.905,14.784c-1.265,5.678 -5.615,12.528 -10.01,17.542l1.403,0.678c0,0 15.263,-15.984 10.643,-31.387c-1.584,-5.279 -1.027,-3.56 4.4,-9.325c1.451,-1.54 2.819,-3.326 3.882,-5.277c-1.388,0.575 -2.649,0.664 -2.781,0.407c-0.328,-0.643 0.679,-1.85 3.476,-3.16c0.243,-0.115 0.461,-0.238 0.667,-0.363c1.011,-3.09 1.094,-6.449 -0.468,-9.82c-0.702,2.039 -2.36,3.519 -3.541,3.41c-2.067,-0.191 -2.406,-2.37 -0.308,-3.777c0.257,-0.172 0.499,-0.374 0.726,-0.594c1.017,-0.987 1.039,-2.423 0.075,-3.446c-0.248,-0.263 -0.508,-0.526 -0.781,-0.788c-2.534,-2.429 -5.567,-4.497 -8.69,-6.226c2.677,3.721 1.722,7.709 0.66,7.512c-1.358,-0.252 -2.427,-1.494 -2.016,-4.358c0.152,-1.053 -0.05,-2.155 -0.366,-3.128c-0.234,-0.722 -0.791,-1.346 -1.564,-1.714c-2.375,-1.134 -4.719,-2.078 -6.858,-2.843c1.006,1.188 1.199,2.269 0.974,2.865c-0.36,0.955 -2.375,1.676 -2.273,-0.452c0.032,-0.661 -0.1,-1.356 -0.296,-1.999c-0.21,-0.686 -0.821,-1.237 -1.609,-1.48c-2.38,-0.733 -4.274,-1.185 -5.313,-1.373c0.601,1.862 0.862,3.885 0.906,5.994Z" style="fill:url(#_Linear13);fill-rule:nonzero;"/><path d="M347.519,95.917c-2.014,0.343 -3.858,1.29 -5.02,2.721c-0.341,0.419 -0.614,0.86 -0.788,1.318c-1.212,3.203 -1.5,4.193 -3.198,3.455c-1.303,-0.568 -0.115,-3.31 1.703,-5.363l-0.005,-0.005c-3.805,1.691 -6.91,3.602 -9.323,5.713c-0.928,0.81 -1.501,1.879 -1.531,3.006c-0.029,1.072 0.173,2.091 0.849,2.718c1.994,1.848 -0.268,2.935 -1.718,1.268c-0.724,-0.834 -0.828,-2.373 -0.467,-3.981c-4.047,5.199 -4.527,11.373 -1.476,18.28c0,0 -3.682,2.9 -8.453,12.208c-4.77,9.307 -10.57,24.084 -18.036,29.188l0.699,1.226c0,0 6.623,-6.4 10.325,-12.999c3.701,-6.598 10.2,-22.972 16.658,-28.564c0,0 -0.731,5.202 6.122,6.032c0.014,-0.01 0.018,-0.012 0.032,-0.022c-0.205,-2.644 -0.042,-6.648 2.796,-6.891c2.237,-0.191 1.583,1.726 0.38,3.921c-0.679,1.239 0.902,2.503 2.31,1.833c2.04,-0.973 4.049,-2.499 5.884,-4.38c-0.81,-0.998 -1.453,-2.11 -1.616,-3.236c-0.523,-3.613 0.824,-4.663 1.905,-3.148c0.168,0.234 0.312,0.657 0.455,1.204c0.327,1.255 2.335,1.517 3.063,0.39l3.703,-6.811c-2.713,-1.684 -2.176,-4.038 -1.092,-4.097c0.194,-0.011 0.44,0.099 0.734,0.298c1.02,0.691 2.519,0.494 3.22,-0.439c1.154,-1.534 2.427,-3.054 3.77,-4.483c-0.024,-0.006 -0.049,-0.011 -0.074,-0.018c-3.574,-1.131 -3.657,-2.582 -3.034,-2.952c0.418,-0.249 1.058,-0.148 1.767,0.102c1.792,0.636 3.841,0.343 5.229,-0.806c3.278,-2.719 6.675,-4.554 9.586,-4.54c0,0 -4.616,-1.515 -10.974,-2.291c-1.384,-0.169 -2.823,0.231 -3.712,1.144c-0.006,0.005 -0.013,0.012 -0.018,0.018c-1.594,1.649 -3.651,1.866 -4.195,1.12c-0.305,-0.418 1.273,-1.673 2.721,-2.695c-0.6,-0.021 -1.208,-0.032 -1.821,-0.032c-2.404,0 -4.893,0.169 -7.36,0.59Z" style="fill:url(#_Linear14);fill-rule:nonzero;"/><path d="M993.901,228.677c0.858,0.991 1.946,2.436 1.82,3.263c-0.124,0.815 -1.105,0.217 -1.911,-0.633c-0.079,0.917 -0.197,1.844 -0.341,2.771c-0.118,0.764 0.253,1.502 0.931,2.017c0.24,0.183 0.463,0.415 0.649,0.707c0.798,1.255 -0.949,0.808 -2.142,0.396l-0.898,4.623c-0.07,0.865 0.796,1.634 1.817,1.536c0.475,-0.046 0.976,0.045 1.471,0.368c1.578,1.026 -1.254,1.871 -2.595,2.197c0.592,1.522 1.531,3.057 2.737,4.535c0.568,0.698 1.832,0.651 2.291,-0.103c0.559,-0.917 1.264,-1.527 1.95,-0.604c1.346,1.815 0.646,2.926 -1.062,3.964c1.497,1.292 4.148,0.881 5.939,1.905c4.14,2.365 3.636,6.402 2.745,10.394c-0.888,3.993 -3.947,8.809 -7.038,12.336l0.988,0.476c0,0 10.731,-11.24 7.482,-22.069c-1.113,-3.712 -0.722,-2.503 3.095,-6.557c1.019,-1.082 1.981,-2.339 2.728,-3.71c-0.975,0.404 -1.862,0.468 -1.954,0.286c-0.232,-0.452 0.478,-1.301 2.443,-2.222c0.172,-0.081 0.324,-0.167 0.47,-0.256c0.711,-2.172 0.769,-4.533 -0.329,-6.904c-0.495,1.435 -1.66,2.474 -2.49,2.398c-1.454,-0.134 -1.692,-1.666 -0.218,-2.656c0.182,-0.121 0.352,-0.262 0.511,-0.418c0.715,-0.694 0.731,-1.703 0.053,-2.423c-0.174,-0.185 -0.357,-0.369 -0.549,-0.553c-1.782,-1.709 -3.913,-3.162 -6.11,-4.379c1.882,2.617 1.211,5.42 0.464,5.282c-0.955,-0.177 -1.706,-1.05 -1.418,-3.065c0.107,-0.74 -0.035,-1.513 -0.256,-2.198c-0.166,-0.508 -0.557,-0.947 -1.1,-1.206c-1.671,-0.797 -3.318,-1.46 -4.823,-1.998c0.708,0.836 0.843,1.595 0.686,2.014c-0.253,0.672 -1.671,1.179 -1.598,-0.316c0.022,-0.466 -0.071,-0.954 -0.208,-1.407c-0.149,-0.482 -0.578,-0.87 -1.132,-1.04c-1.674,-0.516 -3.005,-0.834 -3.736,-0.967c0.422,1.31 0.607,2.732 0.638,4.216Z" style="fill:url(#_Linear15);fill-rule:nonzero;"/><path d="M1037.86,230.17c-1.417,0.241 -2.714,0.907 -3.531,1.912c-0.239,0.295 -0.431,0.605 -0.553,0.926c-0.853,2.253 -1.055,2.95 -2.249,2.43c-0.916,-0.398 -0.081,-2.327 1.197,-3.771l-0.003,-0.002c-2.676,1.188 -4.859,2.531 -6.556,4.015c-0.652,0.57 -1.055,1.322 -1.076,2.115c-0.021,0.755 0.121,1.47 0.596,1.91c1.403,1.301 -0.187,2.064 -1.206,0.892c-0.51,-0.586 -0.583,-1.668 -0.33,-2.799c-2.846,3.654 -3.182,7.997 -1.037,12.853c0,0 -2.589,2.039 -5.943,8.584c-3.355,6.544 -7.432,16.934 -12.681,20.523l0.49,0.861c0,0 4.657,-4.5 7.261,-9.139c2.602,-4.639 7.171,-16.153 11.711,-20.084c0,0 -0.513,3.658 4.306,4.241c0.01,-0.006 0.012,-0.009 0.022,-0.015c-0.145,-1.859 -0.03,-4.674 1.966,-4.846c1.572,-0.135 1.113,1.214 0.268,2.758c-0.479,0.871 0.634,1.759 1.623,1.288c1.434,-0.683 2.847,-1.756 4.137,-3.079c-0.569,-0.702 -1.022,-1.484 -1.137,-2.276c-0.367,-2.541 0.58,-3.278 1.341,-2.213c0.118,0.164 0.218,0.461 0.32,0.847c0.23,0.881 1.642,1.067 2.154,0.273l2.602,-4.79c-1.907,-1.182 -1.53,-2.837 -0.767,-2.88c0.136,-0.006 0.309,0.069 0.515,0.211c0.719,0.485 1.772,0.346 2.266,-0.309c0.81,-1.079 1.705,-2.147 2.651,-3.152c-0.018,-0.005 -0.035,-0.009 -0.053,-0.014c-2.514,-0.794 -2.572,-1.814 -2.134,-2.075c0.295,-0.174 0.744,-0.104 1.243,0.073c1.26,0.446 2.702,0.24 3.677,-0.568c2.305,-1.911 4.693,-3.202 6.74,-3.192c0,0 -3.246,-1.065 -7.715,-1.61c-0.974,-0.12 -1.986,0.162 -2.612,0.804c-0.004,0.003 -0.007,0.009 -0.012,0.012c-1.12,1.16 -2.566,1.312 -2.95,0.787c-0.214,-0.294 0.896,-1.175 1.914,-1.895c-0.422,-0.014 -0.847,-0.022 -1.277,-0.022c-1.692,0 -3.443,0.119 -5.178,0.416Z" style="fill:url(#_Linear16);fill-rule:nonzero;"/><path d="M1246.91,214.256c3.292,1.283 4.588,3.927 3.877,4.164c-0.909,0.304 -2.11,-0.067 -3.202,-1.875c-0.402,-0.664 -1.031,-1.239 -1.667,-1.701c-0.472,-0.346 -1.087,-0.524 -1.709,-0.483c-1.913,0.125 -3.72,0.352 -5.323,0.615c1.14,0.359 1.754,0.927 1.9,1.349c0.234,0.677 -0.606,1.764 -1.535,0.49c-0.289,-0.397 -0.689,-0.759 -1.102,-1.069c-0.441,-0.331 -1.055,-0.45 -1.628,-0.33c-1.728,0.361 -3.044,0.725 -3.737,0.96c1.216,0.887 2.31,1.981 3.316,3.197c1.368,0.418 3.227,1.103 3.667,1.849c0.436,0.736 -0.773,0.701 -2.003,0.376c0.541,0.796 1.056,1.622 1.55,2.461c0.406,0.687 1.202,1.125 2.105,1.233c0.321,0.037 0.658,0.126 1.006,0.281c1.492,0.665 -0.253,1.116 -1.515,1.337l2.312,4.259c0.513,0.752 1.742,0.981 2.523,0.419c0.364,-0.262 0.84,-0.423 1.464,-0.389c1.986,0.107 0.196,2.143 -0.701,3.047c1.498,0.983 3.291,1.813 5.268,2.471c0.933,0.311 1.952,-0.324 1.834,-1.165c-0.143,-1.025 0.038,-1.863 1.218,-1.42c2.317,0.871 2.471,2.122 1.74,3.788c1.155,0.203 2.258,-0.19 3.378,-0.582c0.913,-0.32 1.837,-0.639 2.809,-0.637c4.998,0.012 7.249,3.598 9.151,7.33c1.901,3.732 2.549,9.169 2.315,13.551l1.134,-0.07c0,0 1.474,-14.383 -8.383,-21.836c-3.377,-2.555 -2.254,-1.737 -1.768,-6.899c0.131,-1.379 0.097,-2.875 -0.19,-4.366c-0.541,0.797 -1.234,1.267 -1.432,1.16c-0.491,-0.266 -0.464,-1.304 0.558,-2.995c0.089,-0.147 0.159,-0.291 0.222,-0.433c-0.847,-2.137 -2.36,-4.123 -4.84,-5.573c0.54,1.422 0.261,2.835 -0.479,3.162c-1.295,0.574 -2.506,-0.585 -1.936,-2.1c0.07,-0.186 0.118,-0.384 0.147,-0.587c0.134,-0.914 -0.52,-1.759 -1.558,-2.037c-0.268,-0.07 -0.54,-0.138 -0.821,-0.199c-2.465,-0.546 -5.04,-0.755 -7.533,-0.755c-0.144,0 -0.288,0.001 -0.432,0.002Z" style="fill:url(#_Linear17);fill-rule:nonzero;"/><path d="M1281.87,195.238c-0.886,0.36 -1.539,1.071 -1.634,1.897c-0.001,0.006 -0.002,0.012 -0.002,0.016c-0.163,1.492 -1.261,2.3 -1.927,2.044c-0.371,-0.142 -0.035,-1.396 0.335,-2.473c-1.771,0.92 -3.536,2.034 -5.096,3.368c-1.015,0.868 -1.651,2.032 -1.664,3.252c-0.003,0.358 0.042,0.704 0.153,1.029c0.782,2.271 1.074,2.944 -0.259,3.075c-1.023,0.102 -1.605,-1.892 -1.5,-3.691c-0.006,-0.002 0.001,0 -0.005,-0.002c-1.434,2.248 -2.357,4.392 -2.782,6.422c-0.165,0.782 -0.003,1.595 0.504,2.262c0.481,0.635 1.072,1.162 1.758,1.303c2.023,0.419 1.209,1.801 -0.412,1.309c-0.81,-0.245 -1.586,-1.109 -2.123,-2.166c0.056,4.373 2.646,8.134 7.636,11.152c0,0 -0.799,2.913 0.746,9.924c1.543,7.01 5.03,17.552 3.049,23.006l0.977,0.483c0,0 0.888,-5.929 -0.021,-11.006c-0.908,-5.076 -4.729,-16.782 -3.562,-22.183c0,0 1.993,3.276 6.376,1.488c0.003,-0.011 0.004,-0.013 0.008,-0.023c-1.349,-1.474 -3.115,-3.864 -1.572,-4.948c1.216,-0.852 1.726,0.483 2.045,2.163c0.179,0.947 1.69,1.161 2.198,0.303c0.739,-1.243 1.202,-2.8 1.397,-4.505c-0.935,-0.314 -1.829,-0.75 -2.447,-1.353c-1.985,-1.935 -1.687,-2.992 -0.352,-2.468c0.206,0.082 0.487,0.28 0.825,0.553c0.774,0.622 2.068,0.111 1.969,-0.788l-1.007,-5.201c-2.366,-0.083 -3.147,-1.634 -2.541,-2.028c0.107,-0.07 0.302,-0.088 0.566,-0.068c0.916,0.063 1.698,-0.548 1.674,-1.324c-0.041,-1.278 -0.005,-2.587 0.116,-3.865c-0.018,0.004 -0.035,0.01 -0.053,0.014c-2.61,0.525 -3.334,-0.295 -3.141,-0.716c0.129,-0.284 0.547,-0.438 1.077,-0.526c1.341,-0.225 2.401,-1.074 2.677,-2.204c0.648,-2.673 1.776,-4.869 3.48,-5.826c0,0 -3.396,0.647 -7.466,2.301Z" style="fill:url(#_Linear18);fill-rule:nonzero;"/><path d="M498.537,227.778c0.859,0.993 1.948,2.437 1.821,3.265c-0.125,0.815 -1.105,0.217 -1.912,-0.633c-0.077,0.915 -0.196,1.842 -0.34,2.771c-0.119,0.762 0.254,1.501 0.93,2.016c0.242,0.184 0.463,0.415 0.649,0.708c0.799,1.255 -0.948,0.806 -2.141,0.395l-0.898,4.623c-0.071,0.866 0.797,1.635 1.817,1.536c0.474,-0.046 0.976,0.045 1.472,0.368c1.577,1.025 -1.255,1.871 -2.596,2.198c0.591,1.522 1.531,3.057 2.736,4.534c0.569,0.697 1.833,0.65 2.291,-0.102c0.559,-0.918 1.264,-1.528 1.95,-0.604c1.346,1.813 0.646,2.926 -1.061,3.963c1.496,1.293 4.148,0.881 5.939,1.904c4.139,2.366 3.635,6.403 2.746,10.396c-0.889,3.992 -3.948,8.808 -7.038,12.334l0.986,0.476c0,0 10.732,-11.238 7.483,-22.068c-1.113,-3.712 -0.723,-2.503 3.095,-6.557c1.02,-1.083 1.982,-2.339 2.729,-3.711c-0.976,0.404 -1.863,0.468 -1.956,0.287c-0.231,-0.451 0.477,-1.3 2.444,-2.223c0.171,-0.08 0.323,-0.166 0.469,-0.254c0.711,-2.173 0.77,-4.534 -0.329,-6.905c-0.494,1.435 -1.659,2.474 -2.49,2.398c-1.453,-0.135 -1.692,-1.667 -0.216,-2.655c0.18,-0.121 0.351,-0.263 0.51,-0.418c0.714,-0.695 0.732,-1.705 0.053,-2.424c-0.175,-0.184 -0.357,-0.369 -0.549,-0.552c-1.782,-1.709 -3.915,-3.163 -6.11,-4.38c1.883,2.616 1.209,5.421 0.463,5.282c-0.954,-0.176 -1.706,-1.049 -1.416,-3.064c0.106,-0.74 -0.036,-1.515 -0.258,-2.199c-0.164,-0.508 -0.557,-0.947 -1.099,-1.206c-1.671,-0.797 -3.319,-1.461 -4.823,-1.998c0.707,0.834 0.843,1.596 0.684,2.014c-0.253,0.673 -1.67,1.179 -1.597,-0.317c0.022,-0.466 -0.07,-0.954 -0.208,-1.405c-0.148,-0.483 -0.578,-0.871 -1.132,-1.042c-1.673,-0.515 -3.005,-0.833 -3.735,-0.965c0.423,1.308 0.606,2.731 0.637,4.214Z" style="fill:url(#_Linear19);fill-rule:nonzero;"/><path d="M542.491,229.271c-1.415,0.241 -2.712,0.908 -3.53,1.913c-0.239,0.295 -0.432,0.605 -0.553,0.927c-0.854,2.253 -1.056,2.948 -2.249,2.429c-0.916,-0.398 -0.081,-2.326 1.197,-3.77c-0.005,-0.004 0.001,0 -0.004,-0.004c-2.676,1.188 -4.859,2.533 -6.555,4.016c-0.653,0.571 -1.055,1.322 -1.077,2.115c-0.02,0.754 0.122,1.47 0.598,1.91c1.402,1.301 -0.188,2.064 -1.208,0.892c-0.509,-0.586 -0.581,-1.669 -0.329,-2.799c-2.845,3.655 -3.183,7.997 -1.037,12.854c0,0 -2.589,2.038 -5.944,8.582c-3.354,6.544 -7.432,16.935 -12.681,20.525l0.491,0.861c0,0 4.656,-4.5 7.26,-9.14c2.602,-4.639 7.171,-16.153 11.712,-20.084c0,0 -0.513,3.658 4.305,4.242c0.01,-0.007 0.013,-0.01 0.022,-0.016c-0.144,-1.859 -0.029,-4.675 1.966,-4.846c1.574,-0.134 1.114,1.214 0.268,2.758c-0.478,0.871 0.634,1.76 1.623,1.288c1.435,-0.685 2.848,-1.756 4.138,-3.079c-0.569,-0.702 -1.022,-1.485 -1.136,-2.277c-0.368,-2.539 0.578,-3.277 1.339,-2.212c0.118,0.164 0.22,0.462 0.32,0.846c0.23,0.882 1.642,1.067 2.153,0.275l2.605,-4.79c-1.908,-1.184 -1.531,-2.839 -0.768,-2.88c0.136,-0.008 0.309,0.069 0.516,0.209c0.717,0.487 1.77,0.348 2.264,-0.307c0.811,-1.079 1.707,-2.149 2.651,-3.153c-0.017,-0.004 -0.035,-0.009 -0.053,-0.013c-2.513,-0.795 -2.572,-1.815 -2.133,-2.076c0.295,-0.174 0.744,-0.103 1.242,0.072c1.261,0.447 2.702,0.241 3.677,-0.567c2.305,-1.911 4.693,-3.202 6.74,-3.192c0,0 -3.245,-1.066 -7.715,-1.611c-0.973,-0.118 -1.986,0.164 -2.611,0.805c-0.004,0.004 -0.009,0.008 -0.012,0.012c-1.122,1.16 -2.567,1.313 -2.95,0.788c-0.215,-0.294 0.895,-1.176 1.913,-1.895c-0.424,-0.015 -0.854,-0.022 -1.287,-0.022c-1.688,0 -3.435,0.119 -5.168,0.414Z" style="fill:url(#_Linear20);fill-rule:nonzero;"/><path d="M4.325,24.823c0.057,0.703 -1.041,1.614 -1.624,0.201c-0.182,-0.441 -0.481,-0.866 -0.805,-1.243c-0.347,-0.403 -0.916,-0.631 -1.505,-0.618c-0.133,0.003 -0.263,0.007 -0.391,0.01l0,4.587c0.954,0.584 1.86,1.272 2.035,1.856c0.237,0.793 -0.921,0.548 -2.035,0.014l0,0.042c0.319,0.86 0.606,1.741 0.87,2.632c0.222,0.746 0.89,1.318 1.743,1.587c0.304,0.096 0.611,0.243 0.91,0.457c1.289,0.92 -0.531,1.045 -1.819,1.031l1.176,4.579c0.31,0.827 1.452,1.274 2.358,0.865c0.421,-0.189 0.928,-0.26 1.528,-0.113c1.914,0.464 -0.353,2.129 -1.459,2.849c1.213,1.231 2.754,2.368 4.517,3.368c0.833,0.472 1.989,0.037 2.088,-0.805c0.12,-1.026 0.511,-1.813 1.55,-1.167c2.042,1.27 1.874,2.521 0.736,4.015c1.071,0.405 2.242,0.226 3.429,0.047c0.98,-0.148 1.97,-0.295 2.924,-0.116c4.879,0.917 6.166,4.828 7.075,8.817c0.909,3.99 0.16,9.418 -1.181,13.656l1.125,0.136c0,0 5.094,-13.781 -2.638,-22.847c-2.651,-3.107 -1.761,-2.104 0.027,-7.057c0.477,-1.325 0.825,-2.791 0.924,-4.298c-0.733,0.678 -1.529,1.011 -1.695,0.872c-0.411,-0.348 -0.121,-1.357 1.307,-2.824c0.124,-0.128 0.229,-0.256 0.326,-0.383c-0.283,-2.241 -1.256,-4.456 -3.31,-6.321c0.165,1.488 -0.466,2.817 -1.272,3.003c-1.41,0.326 -2.299,-1.026 -1.357,-2.402c0.116,-0.169 0.212,-0.354 0.293,-0.547c0.363,-0.868 -0.061,-1.812 -1.005,-2.271c-0.242,-0.118 -0.493,-0.233 -0.751,-0.344c-2.401,-1.037 -5.016,-1.727 -7.588,-2.178c2.89,1.85 3.483,4.666 2.729,4.769c-0.964,0.132 -2.044,-0.448 -2.651,-2.411c-0.222,-0.722 -0.691,-1.398 -1.195,-1.965c-0.374,-0.423 -0.929,-0.709 -1.547,-0.781c-1.901,-0.224 -3.723,-0.33 -5.355,-0.363c1.021,0.557 1.477,1.222 1.513,1.661Z" style="fill:url(#_Linear21);fill-rule:nonzero;"/><path d="M49.818,11.674c-0.957,0.191 -1.776,0.767 -2.078,1.557l-0.007,0.016c-0.538,1.427 -1.816,2.016 -2.401,1.647c-0.327,-0.207 0.321,-1.371 0.956,-2.356c-1.964,0.578 -3.971,1.346 -5.834,2.367c-1.212,0.663 -2.128,1.685 -2.451,2.874c-0.095,0.348 -0.139,0.696 -0.112,1.033c0.186,2.36 0.3,3.07 -1.035,2.957c-1.026,-0.086 -1.087,-2.14 -0.527,-3.879l-0.002,0c0,0 0.001,0 -0.002,-0.001c-1.973,1.935 -3.419,3.862 -4.352,5.768c-0.358,0.732 -0.405,1.557 -0.081,2.301c0.31,0.707 0.752,1.329 1.386,1.591c1.871,0.775 0.723,1.977 -0.735,1.203c-0.729,-0.386 -1.266,-1.37 -1.523,-2.501c-1.057,4.283 0.518,8.425 4.625,12.278c0,0 -1.521,2.699 -1.795,9.826c-0.275,7.127 0.452,18.055 -2.869,23.022l0.831,0.65c0,0 2.375,-5.63 2.778,-10.753c0.403,-5.122 -0.355,-17.249 2.159,-22.313c0,0 1.113,3.562 5.849,2.611c0.006,-0.01 0.007,-0.013 0.013,-0.022c-0.943,-1.684 -2.06,-4.338 -0.278,-5.116c1.404,-0.613 1.563,0.784 1.448,2.48c-0.065,0.96 1.355,1.442 2.07,0.696c1.036,-1.081 1.885,-2.516 2.51,-4.146c-0.835,-0.478 -1.596,-1.065 -2.048,-1.765c-1.446,-2.25 -0.886,-3.228 0.285,-2.474c0.18,0.116 0.404,0.362 0.666,0.688c0.597,0.749 1.99,0.483 2.122,-0.413c0.141,-0.966 0.213,-1.953 0.208,-2.934c-0.003,-0.724 0.042,-1.508 0.13,-2.328c-2.289,-0.51 -2.658,-2.166 -1.966,-2.441c0.123,-0.049 0.317,-0.031 0.57,0.035c0.879,0.23 1.798,-0.226 1.972,-0.989c0.285,-1.256 0.654,-2.526 1.095,-3.753c-0.018,0 -0.036,0.002 -0.055,0.003c-2.682,0.039 -3.181,-0.891 -2.887,-1.268c0.199,-0.254 0.647,-0.329 1.188,-0.319c1.367,0.024 2.617,-0.613 3.173,-1.668c1.313,-2.492 2.973,-4.433 4.881,-5.059c0,0 -3.483,0.016 -7.877,0.895Z" style="fill:url(#_Linear22);fill-rule:nonzero;"/><path d="M378.166,138.261c-13.266,1.867 -19.899,4.481 -31.839,13.442c-11.939,8.962 -20.784,3.361 -29.185,14.189c-8.402,10.828 -11.055,5.227 -15.476,16.055c-0.229,0.56 -0.479,1.125 -0.739,1.692c-4.844,3.628 -7.166,3.209 -10.979,8.389c-3.816,5.18 -4.941,6.861 -3.384,11.202c1.559,4.34 -0.432,6.86 9.519,8.121c5.955,0.754 8.462,2.459 10.584,3.798c-8.541,0.696 -9.768,0.787 -16.941,6.189c-8.181,6.161 1.769,5.601 4.643,8.961c2.105,2.464 9.79,2.32 16.091,2.177c2.297,-0.054 4.411,-0.106 6.002,-0.032c1.158,3.64 2.701,7.841 4.551,11.378c2.542,4.854 5.822,9.448 11.647,12.207c-1.994,0.056 -3.682,0.07 -5.845,0.202c-5.484,0.335 -13.162,2.344 -14.076,4.188c-0.914,1.842 3.291,5.192 8.958,5.527c2.179,0.128 4.089,-0.114 6.05,-0.357c3.137,-0.389 6.409,-0.777 11.135,0.357c7.54,1.809 8.394,1.584 14.308,0.114c7.95,7.934 16.274,19.282 16.27,32.03c-0.441,36.811 1.309,94.063 1.41,97.303l5.062,-0.113c0.02,0.166 0.034,0.276 0.037,0.29l5.277,-0.472c-0.036,-0.281 -3.531,-28.264 -3.967,-42.203c-0.228,-7.316 -0.219,-14.614 -0.158,-22.17c0.029,-3.631 1.837,-7.086 5.022,-9.526c1.928,-1.477 4.258,-3.169 7.064,-5.085c5.608,-3.828 10.704,-6.27 15.631,-8.63c6.781,-3.249 13.184,-6.317 19.02,-12.394c0.947,-0.986 1.821,-2.023 2.629,-3.095c1.498,-1.98 3.747,-3.448 6.428,-4.079c4.23,-0.994 10.324,-3.024 14.758,-7.002c0.24,-0.217 0.456,-0.429 0.683,-0.643c1.308,0.245 2.733,0.514 4.316,0.814c10.989,2.088 11.237,0 11.237,0c26.073,1.392 25.852,-13.919 20.357,-19.718c-5.495,-5.799 -12.364,-4.408 -20.357,-5.799c-7.993,-1.392 -10.688,-6.264 -23.05,-8.119c-12.364,-1.857 -17.309,-0.232 -26.1,1.622c-8.792,1.857 -10.989,7.425 -18.957,15.08c-6.07,5.833 -9.907,5.341 -13.578,6.314c2.303,-2.983 8.026,-7.356 14.068,-11.959c5.533,-4.215 11.596,-8.845 16.909,-13.728c3.998,-3.675 9.622,-5.785 15.524,-6.045c0.472,-0.021 0.947,-0.042 1.419,-0.062c6.657,-0.277 13.54,-0.566 18.65,-2.496c4.468,-1.684 7.173,-4.157 9.015,-7.452c4.05,-0.417 3.831,-1.63 8.795,-2.718c2.425,-0.53 4.595,0.141 6.746,0.811c3.145,0.981 6.251,1.961 10.058,-0.811c6.412,-4.667 12.16,-6.721 5.085,-10.454c-7.075,-3.734 -11.497,-2.811 -19.899,-6.726c-8.401,-3.916 -11.497,-4.475 -19.899,-6.342c-8.402,-1.867 -6,-3.946 -20.356,-4.866c-0.01,-0.001 -0.019,-0.002 -0.029,-0.002c4.194,-2.616 6.875,-5.419 7.933,-8.024c0.301,-0.744 0.652,-1.524 1.029,-2.319c10.319,3.635 15.14,5.503 23.563,4.01c8.423,-1.494 19.036,-13.815 12.845,-16.056c-5.529,-2 -0.484,-6.721 -12.845,-8.961c-12.361,-2.24 -19.304,-8.215 -30.866,-11.201c-11.564,-2.987 -8.026,0.373 -21.734,-4.855c-12.402,-4.729 -16.118,-12.209 -26.537,-12.209c-1.097,0 -2.269,0.083 -3.532,0.261Zm-10.613,51.9c10.313,-3.475 8.82,-6.596 13.212,-5.837c-1.174,5.289 -2.644,17.064 3.649,28.826c0.522,0.975 0.727,2.028 0.682,3.078c-4.287,-1.57 -9.857,-2.609 -14.006,-1.984c-5.037,0.759 -8.488,-0.222 -13.351,-1.834c-4.791,-8.32 -6.391,-17.79 -6.808,-25.083c5.453,1.612 5.928,4.298 9.874,4.299c1.546,0 3.625,-0.413 6.748,-1.465Zm15.788,-5.179c0.634,0.196 1.321,0.419 2.127,0.699c4.966,1.721 7.558,3.698 10.221,4.87c-0.557,1.64 -1.087,3.278 -1.535,4.884c-1.469,5.275 -4.049,11.381 -6.933,17.546c-6.274,-11.17 -4.976,-22.745 -3.88,-27.999Zm14.352,16.511l3.172,-9.937c1.997,-0.076 4.449,-0.594 7.811,-1.768c8.85,-3.092 14.192,-4.844 20.043,-4.44c-0.573,2.738 -0.785,5.869 -0.217,9.272c-1.255,0.907 -2.744,1.818 -4.445,2.709c-10.311,-0.705 -11.664,-0.62 -15.993,5.579c-2.316,0.525 -4.748,1.011 -7.397,1.407c-0.159,0.024 -0.316,0.036 -0.47,0.036c-1.709,0 -3.028,-1.409 -2.504,-2.858Zm33.665,-15.812c1.098,0.192 2.236,0.457 3.429,0.801c-0.385,0.813 -0.743,1.613 -1.055,2.383c-0.459,1.131 -1.413,2.417 -2.828,3.758c-0.223,-2.511 0.004,-4.848 0.454,-6.942Zm-98.282,2.847c3.996,-1.815 7.517,-2.746 13.251,-2.101c0.675,0.077 1.274,0.174 1.86,0.274c0.268,6.004 1.313,13.571 4.316,20.922c-9.892,-1.184 -17.35,-13.802 -19.427,-19.095Zm-12.618,18.482c-4.311,-3.92 -4.681,-9.439 -0.931,-12.071c0.001,0 0.001,-0.001 0.002,-0.001c4.798,-1.978 8.226,-3.81 11.182,-5.284c2.659,6.687 11.01,19.902 22.805,20.278c0.207,0.44 0.456,0.868 0.678,1.304c-0.013,-0.003 -0.024,-0.008 -0.038,-0.012c-6.984,-2.274 -12.693,-2.207 -20.653,-2.393c-2.704,-0.064 -4.769,0.482 -6.804,1.266l0.001,-0.003c0,0 -0.173,0.075 -0.53,0.075c-0.837,0 -2.689,-0.411 -5.712,-3.159Zm69.717,11.781l-0.003,-0.001c1.217,-2.513 2.416,-5.045 3.541,-7.555c1.09,-2.429 3.645,-4.178 6.678,-4.614c2.097,-0.3 4.082,-0.659 6.003,-1.046c-3.297,5.883 -3.798,10.809 -8.551,12.59c-2.844,1.066 -5.245,0.77 -7.209,0.955c-0.156,-0.109 -0.319,-0.218 -0.459,-0.329Zm45.034,11.838c8.357,-2.125 11.039,-1.977 15.236,-1.828c1.239,0.044 2.61,0.088 4.297,0.073c-1.669,2.471 -3.883,4.07 -7.031,5.258c-4.655,1.757 -11.287,2.034 -17.697,2.304c-3.442,0.143 -6.646,0.291 -9.403,0.651c1.68,-2.038 3.122,-4.106 4.27,-6.189c1.074,0.335 2.219,0.689 4.033,0.689c1.515,0 3.497,-0.247 6.295,-0.958Zm-27.711,1.868c4.146,-0.546 8.702,-1.219 11.654,-1.867c-3.038,4.774 -7.904,9.577 -13.294,14.166c-0.77,-3.959 0.415,-8.766 1.64,-12.299Zm-9.655,1.164c0,0 2.941,-0.317 6.776,-0.796c-1.303,4.083 -2.369,9.444 -0.973,13.778c-3.619,2.976 -7.378,5.848 -10.909,8.537c-8.286,6.312 -14.83,11.298 -16.443,15.277c-0.07,0.17 -0.117,0.353 -0.184,0.523c0.011,-0.063 0.022,-0.136 0.033,-0.196c0.952,-5.139 1.672,-9.871 2.37,-14.447c1.156,-7.596 2.167,-14.101 3.799,-19.785c3.316,-0.731 6.283,-1.671 8.772,-2.736c0.819,0.192 1.737,0.299 2.767,0.3c1.177,0 2.5,-0.141 3.992,-0.455Zm-74.402,9.255c-1.606,-3.069 -2.984,-6.718 -4.074,-10.033c3.811,1.013 6.082,3.445 13.474,4.511c0.703,0.102 1.319,0.123 1.961,0.168c1.345,2.681 2.33,5.532 3.288,8.327c1.184,3.453 2.365,6.744 4.142,9.51c-1.295,0.129 -2.447,0.229 -3.487,0.31c-7.826,-1.728 -11.974,-6.431 -15.304,-12.793Zm19.745,1.726c-0.8,-2.336 -1.657,-4.823 -2.767,-7.287c4.223,-0.633 7.346,-1.95 11.878,-0.894c6.682,1.556 13.458,1.922 19.715,1.519c1.277,3.15 2.201,6.036 2.797,8.105c-0.546,3.09 -1.046,6.308 -1.56,9.682c-0.692,4.544 -1.409,9.245 -2.347,14.325c-0.402,2.167 -0.707,5.586 -0.936,9.915c-2.909,-5.583 -6.813,-10.567 -10.776,-14.792c1.895,-0.088 3.177,-0.203 5.292,-1.949c3.474,-2.87 -9.095,-8.607 -16.465,-8.434c-2.169,-2.454 -3.47,-6.223 -4.831,-10.19Zm89.968,34.661c2.395,-0.717 3.089,-1.002 3.584,-1.002c0.604,0 3.003,0.379 8.585,1.407c-4.749,4.019 -11.558,5.787 -15.173,6.471c1.234,-2.346 2.216,-4.689 3.004,-6.876Zm-21.12,8.446c4.167,-1.603 6.737,-4.644 13.592,-6.389c1.729,-0.439 3.168,-0.824 4.381,-1.157c-1.768,4.51 -4.379,9.488 -8.209,13.478c-3.261,3.395 -6.663,5.762 -10.306,7.815c-0.583,-5.461 -0.18,-10.092 0.542,-13.747Zm-4.419,0.992c0.558,-0.046 1.075,-0.121 1.573,-0.207c-0.655,3.886 -0.933,8.692 -0.206,14.316c-1.756,0.906 -3.566,1.78 -5.453,2.685c-4.786,2.292 -10.213,4.891 -15.991,8.839c-4.567,3.117 -7.896,5.657 -10.338,7.679c0.041,-4.389 0.08,-8.883 0.08,-13.624c0,-6.802 0.076,-12.833 0.451,-18.282c1.706,0.475 3.201,0.176 5.646,-0.123c2.441,-0.298 5.831,-0.596 11.326,-0.123c3.27,0.281 5.276,0.394 6.544,0.394c3.951,0 0.744,-1.092 6.368,-1.554Z" style="fill:url(#_Linear23);fill-rule:nonzero;"/><path d="M1284.45,81.443c-11.627,4.433 -8.628,1.583 -18.435,4.117c-9.807,2.533 -15.697,7.601 -26.18,9.5c-10.484,1.901 -6.207,5.904 -10.895,7.6c-5.25,1.901 3.751,12.352 10.895,13.618c7.143,1.267 11.234,-0.316 19.984,-3.401c0.321,0.675 0.618,1.337 0.874,1.969c0.898,2.208 3.171,4.585 6.729,6.803c-0.009,0.001 -0.017,0.001 -0.026,0.003c-12.176,0.781 -10.139,2.544 -17.265,4.128c-7.126,1.583 -9.753,2.057 -16.878,5.379c-7.126,3.321 -10.876,2.538 -16.877,5.705c-6.001,3.167 -1.125,4.908 4.312,8.867c3.229,2.351 5.864,1.519 8.531,0.688c1.825,-0.568 3.665,-1.138 5.723,-0.688c4.21,0.921 4.024,1.95 7.459,2.305c1.563,2.794 3.857,4.891 7.646,6.319c4.335,1.638 10.173,1.882 15.819,2.118c0.401,0.017 0.803,0.034 1.205,0.051c5.005,0.223 9.775,2.012 13.166,5.129c4.506,4.142 9.648,8.068 14.341,11.643c5.125,3.904 9.979,7.614 11.932,10.143c-3.114,-0.824 -6.367,-0.408 -11.516,-5.355c-6.758,-6.493 -8.622,-11.215 -16.079,-12.789c-7.456,-1.574 -11.65,-2.951 -22.137,-1.378c-10.486,1.574 -12.771,5.706 -19.551,6.887c-6.78,1.181 -12.606,0 -17.266,4.919c-4.66,4.919 -4.849,17.905 17.266,16.725c0,0 0.21,1.77 9.532,0c1.341,-0.256 2.55,-0.483 3.66,-0.691c0.193,0.182 0.375,0.362 0.58,0.544c3.761,3.375 8.928,5.098 12.516,5.94c2.274,0.536 4.182,1.78 5.452,3.461c0.687,0.908 1.427,1.788 2.231,2.623c4.948,5.155 10.38,7.757 16.131,10.513c4.179,2.002 8.502,4.074 13.259,7.321c2.38,1.624 4.355,3.059 5.991,4.312c2.702,2.07 4.234,5 4.26,8.079c0.051,6.411 0.058,12.6 -0.135,18.805c-0.369,11.822 -3.334,35.558 -3.364,35.794l4.476,0.401c0.003,-0.013 0.013,-0.105 0.031,-0.246l4.293,0.096c0.086,-2.748 1.57,-51.308 1.196,-82.529c-0.003,-10.813 7.057,-20.437 13.799,-27.168c5.019,1.247 5.741,1.438 12.138,-0.096c4.007,-0.961 6.781,-0.632 9.443,-0.303c1.663,0.206 3.283,0.413 5.131,0.303c4.807,-0.285 8.374,-3.126 7.599,-4.688c-0.776,-1.563 -7.288,-3.268 -11.94,-3.553c-1.834,-0.11 -3.265,-0.122 -4.957,-0.17c4.941,-2.34 7.723,-6.237 9.879,-10.355c1.57,-2.999 2.878,-6.561 3.859,-9.649c1.35,-0.063 3.144,-0.018 5.093,0.026c5.343,0.122 11.86,0.243 13.646,-1.846c2.438,-2.849 10.877,-2.375 3.939,-7.6c-6.086,-4.582 -7.125,-4.66 -14.369,-5.249c1.8,-1.137 3.926,-2.582 8.977,-3.222c8.439,-1.069 6.751,-3.207 8.072,-6.889c1.322,-3.681 0.367,-5.106 -2.869,-9.5c-3.234,-4.394 -5.203,-4.037 -9.311,-7.115c-0.221,-0.482 -0.434,-0.962 -0.627,-1.435c-3.751,-9.185 -6.001,-4.434 -13.127,-13.618c-7.126,-9.184 -14.627,-4.434 -24.754,-12.035c-10.127,-7.6 -15.753,-9.817 -27.004,-11.401c-1.071,-0.151 -2.066,-0.221 -2.996,-0.221c-8.839,-0.001 -11.989,6.345 -22.507,10.356Zm20.202,53.383c5.337,-9.975 4.092,-19.963 3.096,-24.449c3.725,-0.643 2.458,2.003 11.206,4.952c9.403,3.169 7.659,-0.501 14.097,-2.405c-0.352,6.186 -1.71,14.218 -5.773,21.274c-4.125,1.369 -7.052,2.201 -11.324,1.557c-3.52,-0.531 -8.243,0.352 -11.88,1.682c-0.038,-0.89 0.136,-1.784 0.578,-2.611Zm-8.26,-15.025c-0.38,-1.362 -0.83,-2.751 -1.303,-4.141c2.259,-0.995 4.459,-2.671 8.67,-4.132c0.683,-0.237 1.266,-0.426 1.804,-0.592c0.929,4.455 2.031,14.273 -3.292,23.747c-2.445,-5.229 -4.634,-10.407 -5.879,-14.882Zm-29.133,-0.691c0.481,-2.886 0.301,-5.543 -0.185,-7.864c4.963,-0.343 9.493,1.143 16.999,3.766c2.853,0.996 4.932,1.436 6.627,1.499l2.689,8.429c0.485,1.34 -0.888,2.639 -2.521,2.395c-2.248,-0.338 -4.311,-0.75 -6.274,-1.196c-3.673,-5.258 -4.82,-5.329 -13.566,-4.732c-1.443,-0.756 -2.705,-1.528 -3.769,-2.297Zm-4.435,-4.881c-0.266,-0.652 -0.57,-1.332 -0.896,-2.021c1.012,-0.292 1.976,-0.517 2.908,-0.679c0.382,1.775 0.574,3.757 0.386,5.889c-1.201,-1.138 -2.009,-2.229 -2.398,-3.189Zm72.556,-1.835c0.497,-0.085 1.004,-0.168 1.577,-0.232c4.863,-0.548 7.85,0.242 11.24,1.781c-1.762,4.49 -8.088,15.191 -16.478,16.196c2.547,-6.235 3.432,-12.652 3.661,-17.745Zm-4.52,19.703c10.003,-0.318 17.086,-11.527 19.341,-17.198c2.509,1.249 5.416,2.804 9.486,4.482l0.002,0c3.18,2.232 2.865,6.913 -0.79,10.239c-3.658,3.325 -5.295,2.614 -5.295,2.614l0.002,0.004c-1.727,-0.665 -3.479,-1.129 -5.772,-1.075c-6.751,0.159 -11.594,0.102 -17.518,2.031c-0.011,0.002 -0.02,0.007 -0.032,0.011c0.189,-0.37 0.401,-0.735 0.576,-1.108Zm-37.597,6.984c-4.032,-1.512 -4.457,-5.69 -7.254,-10.679c1.63,0.328 3.313,0.633 5.093,0.888c2.572,0.369 4.739,1.853 5.662,3.914c0.956,2.127 1.972,4.276 3.005,6.407c-0.001,0.001 -0.002,0.001 -0.002,0.001c-0.118,0.092 -0.258,0.186 -0.39,0.279c-1.666,-0.158 -3.702,0.094 -6.114,-0.81Zm-44.61,9.02c3.556,-0.126 5.833,-0.252 12.918,1.55c5.214,1.326 7.088,0.75 8.76,0.23c0.972,1.766 2.195,3.519 3.621,5.249c-2.339,-0.306 -5.056,-0.432 -7.976,-0.552c-5.437,-0.229 -11.061,-0.465 -15.01,-1.955c-2.67,-1.007 -4.547,-2.363 -5.964,-4.46c0.203,0.002 0.401,0.002 0.594,0.002c1.168,0 2.154,-0.032 3.057,-0.064Zm26.537,1.551c2.503,0.551 6.368,1.121 9.883,1.585c1.039,2.996 2.044,7.073 1.392,10.43c-4.571,-3.891 -8.7,-7.965 -11.275,-12.015Zm36.35,33.782c-1.368,-3.376 -6.919,-7.605 -13.946,-12.958c-2.995,-2.282 -6.184,-4.717 -9.255,-7.241c1.186,-3.676 0.282,-8.224 -0.823,-11.686c3.253,0.405 5.747,0.674 5.747,0.674c2.372,0.501 4.244,0.482 5.732,0.132c2.112,0.904 4.629,1.7 7.442,2.32c1.383,4.821 2.24,10.34 3.221,16.782c0.591,3.88 1.202,7.894 2.01,12.254c0.009,0.051 0.018,0.112 0.027,0.165c-0.055,-0.144 -0.096,-0.298 -0.155,-0.442Zm28.891,-12.772c1.506,-2.347 2.509,-5.138 3.512,-8.067c0.813,-2.371 1.649,-4.788 2.789,-7.063c0.544,-0.037 1.067,-0.056 1.664,-0.142c6.269,-0.904 8.195,-2.967 11.429,-3.826c-0.926,2.81 -2.095,5.906 -3.457,8.509c-2.824,5.397 -6.343,9.385 -12.98,10.851c-0.882,-0.068 -1.859,-0.154 -2.957,-0.262Zm-8.538,-16.063c3.844,-0.897 6.493,0.221 10.075,0.758c-0.942,2.09 -1.668,4.2 -2.347,6.181c-1.154,3.365 -2.258,6.561 -4.097,8.642c-6.252,-0.146 -16.913,4.72 -13.966,7.153c1.794,1.482 2.881,1.578 4.489,1.655c-3.361,3.583 -6.672,7.811 -9.14,12.545c-0.194,-3.672 -0.453,-6.572 -0.794,-8.41c-0.796,-4.308 -1.404,-8.295 -1.99,-12.15c-0.437,-2.861 -0.861,-5.591 -1.323,-8.211c0.505,-1.756 1.288,-4.203 2.372,-6.875c1.303,0.084 2.633,0.129 3.981,0.129c4.143,0 8.465,-0.421 12.74,-1.417Zm-78.901,36.68c4.734,-0.871 6.768,-1.193 7.282,-1.193c0.418,0 1.007,0.242 3.038,0.849c0.668,1.857 1.501,3.844 2.549,5.833c-3.066,-0.581 -8.842,-2.08 -12.869,-5.489Zm19.953,11.852c-3.249,-3.385 -5.464,-7.606 -6.962,-11.432c1.027,0.284 2.249,0.608 3.714,0.982c5.816,1.48 7.995,4.059 11.53,5.419c0.612,3.1 0.954,7.028 0.46,11.659c-3.09,-1.741 -5.976,-3.749 -8.742,-6.628Zm29.058,17.55c-4.9,-3.346 -9.504,-5.552 -13.564,-7.496c-1.599,-0.767 -3.134,-1.508 -4.624,-2.276c0.617,-4.771 0.381,-8.847 -0.175,-12.144c0.423,0.074 0.861,0.137 1.333,0.176c6.301,0.518 -0.465,1.967 10.953,0.983c4.66,-0.4 7.535,-0.147 9.606,0.106c2.073,0.252 3.341,0.506 4.789,0.104c0.319,4.622 0.383,9.736 0.383,15.506c0,4.02 0.032,7.833 0.067,11.556c-2.07,-1.716 -4.894,-3.869 -8.768,-6.515Z" style="fill:url(#_Linear24);fill-rule:nonzero;"/><path d="M184.832,17.601c-2.765,-10.581 -6.15,-23.714 -2.401,6.224c-7.62,-17.243 -10.365,-21.255 -4.613,0.265c0,0 -4.026,-8.381 -5.8,-7.063c-1.773,1.318 3.533,12.725 3.533,12.725c0,0 -9.399,-10.855 -10.167,-9.269c-0.769,1.586 8.595,14.37 8.595,14.37c0,0 -11.02,-13.747 -12.598,-12.824c-1.581,0.922 8.802,14.947 8.802,14.947c0,0 -7.768,-6.169 -8.528,-4.133c-0.759,2.036 7.877,14.403 7.877,14.403c0,0 -9.978,-12.203 -10.797,-10.482c-0.819,1.722 9.64,14.649 9.64,14.649c0,0 -11.485,-10.179 -11.729,-9.05c-0.245,1.128 9.197,14.31 9.197,14.31c0,0 -7.324,-9.15 -7.973,-6.936c-0.65,2.214 5.34,12.086 5.34,12.086c0,0 -1.613,-1.762 -3.377,-3.431c-2.332,-6.19 -5.632,-13.479 -9.762,-18.841c-8.718,-11.323 -25.929,-18.569 -25.565,-17.009c0.365,1.561 13.618,8.624 12.111,8.422c-1.507,-0.203 -9.54,-5.049 -8.994,-3.507c0.545,1.544 10.582,6.679 10.582,6.679c0,0 -8.46,-2.999 -8.079,-2.024c0.381,0.974 13.223,6.614 13.223,6.614c0,0 -9.95,-3.788 -8.964,-2.525c0.988,1.262 8.765,5.283 8.765,5.283c0,0 -5.939,-2.265 -6.073,-1.264c-0.133,1.002 11.286,7.256 11.286,7.256c0,0 -8.641,-2.983 -7.96,-1.85c0.678,1.132 9.594,5.418 9.594,5.418c0,0 -8.342,-2.825 -7.563,-1.463c0.779,1.362 10.57,5.85 10.57,5.85c0,0 -2.736,-1.028 -5.154,-1.664c-1.595,-1.197 -2.267,-1.347 -1.938,-0.663c0.037,0.075 0.094,0.173 0.153,0.272c-1.359,-0.219 -2.225,-0.102 -1.661,0.794c0.001,0.002 0.003,0.006 0.004,0.007c-2.396,-2.027 -4.968,-4.065 -7.165,-5.487c-6.099,-3.948 3.642,6.017 3.642,6.017c0,0 -18.822,-12.372 -24.01,-12.778c-5.189,-0.406 9.491,7.189 9.491,7.189c0,0 -17.401,-7.371 -19.93,-6.093c-2.529,1.278 11.797,5.81 11.797,5.81c0,0 -16.216,-3.208 -16.413,-0.634c-0.197,2.573 8.634,3.415 8.634,3.415c0,0 -22.217,2.311 -20.762,4.179c1.456,1.866 15.18,0.561 15.18,0.561c0,0 -14.056,4.543 -10.8,5.288c3.254,0.743 17.152,-3.55 17.152,-3.55c0,0 -10.995,5.443 -8.631,5.784c2.363,0.342 17.138,-4.281 17.138,-4.281c0,0 -9.917,4.798 -7.316,4.763c2.602,-0.035 15.34,-1.141 15.34,-1.141c0,0 -10.897,3.63 -7.062,3.91c3.799,0.277 19.024,-2.835 19.313,-2.894c-0.259,0.053 -12.493,2.588 -10.186,3.869c1.309,0.728 6.719,0.256 11.111,-0.216c3.433,-0.368 6.242,-0.737 5.989,-0.534c-0.58,0.464 -11.511,2.789 -9.06,3.896c0.103,0.046 0.245,0.076 0.379,0.108c-6.936,0.79 -9.28,1.719 -7.988,1.933c1.603,0.264 9.529,-0.087 9.529,-0.087c0,0 -10.945,1.418 -16.709,3.268c-5.763,1.852 6.542,0.578 6.542,0.578c0,0 -15.407,4.324 -17.811,7.256c-2.404,2.933 11.72,-1.767 11.72,-1.767c0,0 -14.809,6.539 -14.73,8.647c0.078,2.108 10.476,-4.025 10.476,-4.025c0,0 -12.008,7.498 -9.84,8.718c1.51,0.851 7.925,-3.46 7.925,-3.46c0,0 -7.945,10.815 -5.786,10.799c2.158,-0.017 9.193,-9.101 9.193,-9.101c0,0 0.366,8.854 1.592,7.589c1.228,-1.263 3.006,-9.687 3.006,-9.687c0,0 0.128,8.17 1.131,6.59c1.002,-1.582 5.122,-9.748 5.122,-9.748c0,0 -1.251,8.222 0.509,6.045c1.75,-2.167 5.18,-12.839 5.214,-12.946c-0.029,0.093 -2.779,8.708 -0.766,7.906c2.022,-0.807 5.988,-11.189 6.15,-10.626c0.163,0.562 -2.206,8.204 -0.295,7.239c1.911,-0.965 4.179,-9.415 4.179,-9.415c0,0 -1.28,7.736 0.464,6.425c1.745,-1.31 3.342,-6.655 5.867,-7.474c2.905,-0.942 5.423,-0.257 7.437,0.968c-5.406,3.501 -17.112,11.501 -20.849,17.465c-3.736,5.961 13.573,-6.662 22.096,-13.062l-54.156,166.171l8.355,1.942l54.031,-165.788c2.264,13.408 7.176,41.197 9.688,45.621c2.889,5.086 -4.662,-38.613 -6.72,-50.319c1.28,0.29 2.486,0.897 3.446,2.027c1.341,1.575 -0.477,5.996 0.036,7.612c0.515,1.616 3.878,-4.376 3.878,-4.376c0,0 -3.056,6.888 -2.233,8.324c0.822,1.437 3.36,-4.917 3.786,-5.252c0.426,-0.336 -2.492,8.59 -1.502,9.959c0.985,1.362 3.793,-5.841 3.82,-5.91c-0.03,0.078 -3.491,9.008 -3.446,11.236c0.046,2.237 3.698,-4.088 3.698,-4.088c0,0 -1.586,7.415 -1.747,8.93c-0.162,1.517 4.438,-4.23 4.438,-4.23c0,0 -3.387,6.677 -3.214,8.056c0.172,1.38 5.319,-4.758 5.319,-4.758c0,0 -2.259,3.979 -1.787,5.881c0.473,1.902 3.571,-3.303 3.571,-3.303c0,0 0.085,8.061 1.608,8.921c1.522,0.862 -0.038,-11.362 -0.038,-11.362c0,0 2.171,5.583 3.712,5.574c2.212,-0.013 -2.17,-10.057 -2.17,-10.057c0,0 3.992,8.442 5.211,6.978c1.221,-1.466 -5.676,-11.933 -5.676,-11.933c0,0 7.426,8.893 7.34,5.867c-0.087,-3.026 -8.63,-12.157 -8.63,-12.157c0,0 8.026,5.746 4.959,2.165c-2.409,-2.813 -7.219,-6.682 -9.179,-8.218c-0.009,-0.052 -0.02,-0.106 -0.032,-0.161c1.574,0.961 4.905,2.962 5.874,3.296c0.216,0.075 0.329,0.057 0.343,-0.036c2.247,0.239 -3.495,-7.441 -3.536,-8.1c-0.043,-0.674 9.04,10.069 11.787,10.487c2.731,0.414 -4.144,-8.616 -4.231,-8.73c0.101,0.132 8.653,11.315 11.646,13.33c3.008,2.027 -1.934,-6.941 -1.934,-6.941c0,0 8.336,8.207 10.194,9.746c1.858,1.539 -1.42,-7.708 -1.42,-7.708c0,0 6.943,11.943 8.936,13.07c1.991,1.127 -1.542,-9.212 -1.542,-9.212c0,0 6.575,11.194 9.543,12.546c2.967,1.354 -3.52,-10.114 -3.52,-10.114c0,0 8.887,8.927 11.466,8.42c2.577,-0.508 -11.647,-15.103 -11.647,-15.103c0,0 7.089,4.525 9.045,2.545c1.956,-1.981 -12.419,-9.084 -12.419,-9.084c0,0 14.085,5.044 13.294,2.646c-0.792,-2.397 -19.422,-7.168 -19.422,-7.168c0,0 16.839,3.026 12.746,0.304c-4.095,-2.722 -27.831,-4.695 -27.831,-4.695c0,0 15.189,-1.563 7.547,-2.247c-7.642,-0.683 -21.272,0.385 -21.272,0.385c0,0 9.588,-1.535 11.386,-2.223c1.198,-0.46 -0.785,-0.863 -6.362,-0.537c0.132,-0.038 0.291,-0.077 0.395,-0.11c3.255,-1.032 -7.436,-3.861 -7.436,-3.861c0,0 10.858,2.106 12.509,1.521c1.652,-0.585 -6.815,-3.131 -6.815,-3.131c0,0 10.041,1.771 11.438,1.303c1.398,-0.47 -7.417,-3.063 -7.417,-3.063c0,0 13.462,1.695 14.147,0.868c0.685,-0.825 -5.543,-2.446 -5.543,-2.446c0,0 8.982,1.332 10.711,0.937c0.641,-0.147 -0.388,-0.611 -1.936,-1.139c5.499,1.571 12.446,3.457 13.072,3.149c1.05,-0.517 -12.38,-5.691 -12.38,-5.691c0,0 8.35,0.112 9.968,-0.74c1.619,-0.852 -5.144,-1.134 -6.432,-1.824c-1.288,-0.69 16.976,-5.49 18.474,-6.456c1.497,-0.965 -19.739,2.831 -35.15,6.445c-4.501,1.057 -9.337,2.846 -13.936,4.84c0.283,-0.255 0.508,-0.5 0.607,-0.715c0.971,-2.13 -9.734,0.99 -9.734,0.99c0,0 13.806,-5.278 14.372,-6.321c0.565,-1.043 -10.173,0.277 -10.173,0.277c0,0 12.132,-3.634 12.63,-5.441c0.498,-1.807 -14.349,2.001 -14.349,2.001c0,0 18.574,-6.695 19.333,-8.73c0.76,-2.036 -12.896,0 -12.896,0c0,0 13.772,-4.243 13.105,-5.763c-0.669,-1.52 -14.774,2.186 -14.774,2.186c0,0 16.35,-5.944 16.797,-7.615c0.448,-1.671 -14.624,2.674 -14.624,2.674c0,0 12.093,-6.778 11.535,-8.717c-0.559,-1.939 -9.548,2.98 -9.548,2.98c19.322,-14.85 14.35,-12.891 -3.599,-2.449c23.394,-22.717 11.706,-13.594 2.256,-6.262c4.896,-11.229 3.672,-19.312 3.672,-19.312c0,0 -6.49,6.031 -10.101,17.601Zm-44.822,46.633c-0.001,0 -0.002,0 -0.003,0.001c0.001,-0.001 0.002,-0.001 0.003,-0.001Zm-2.675,17.725l0,0.001l0,-0.001Zm-22.967,-80.279c0.872,-0.043 1.709,-0.071 2.521,-0.09c1.688,-0.633 3.166,-1.109 3.166,-1.109c0,0 -2.643,0.639 -5.687,1.199Zm40.428,11.175c0.666,0.458 1.274,0.887 1.842,1.298c-1.969,-2.391 -3.623,-4.763 -3.623,-4.763c0,0 0.959,1.693 1.781,3.465Z" style="fill:url(#_Linear25);fill-rule:nonzero;"/><path d="M1070.09,114.918c-15.448,2.524 -13.454,12.202 -21.926,15.988c-8.472,3.787 -12.458,7.574 -17.94,12.622c-5.48,5.05 -7.474,13.465 -11.96,17.253c-4.483,3.786 -5.979,8.836 -4.483,13.885c1.494,5.049 5.978,8.416 6.976,14.306c0.997,5.891 1.993,6.732 9.467,10.94c0,0 -11.46,5.89 1.994,11.36c6.73,2.736 8.474,3.051 10.468,2.05c2.14,1.748 4.85,3.343 8.168,4.122c8.042,1.885 13.268,3.764 14.132,4.081c1.709,1.447 3.396,2.728 4.952,3.666c5.656,3.413 13.161,4.33 17.316,4.572c4.228,4.115 9.539,10.231 12.823,14.017c1.847,2.129 2.902,3.334 3.592,4.076c-1.173,7.692 -1.549,17.101 -1.557,32.217c-2.986,-1.645 -8.067,-4.832 -10.485,-8.602l-1.171,-1.815c-2.635,-4.07 -4.92,-7.714 -6.371,-11.823c6.157,-0.643 10.854,-2.822 11.819,-4.484c1.344,-2.315 5.214,-4.66 1.322,-6.304c-5.491,-2.32 -8.495,-2.532 -15.449,-3.373c-6.953,-0.843 -14.303,-3.366 -18.85,-1.683c-4.547,1.683 -4.049,2.327 -10.277,5.056c-6.23,2.727 -11.712,2.517 -11.213,6.095c0.498,3.575 5.481,6.941 15.323,6.31c2.464,-0.157 4.312,-0.423 5.849,-0.708c0.672,0.904 1.257,1.832 1.584,2.755c1.948,5.466 10.517,11.14 25.23,11.776c3.454,4.846 10.244,8.554 12.687,9.779l0,61.604l5.981,0l0,-64.063c0,-7.781 0.088,-13.976 0.322,-19.184c1.486,-0.828 4.45,-2.72 9.076,-6.772c6.849,-5.997 9.357,-10.221 12.675,-16.469c0.716,-1.349 1.469,-2.515 2.204,-3.536c1.751,2.064 2.583,4.441 5.156,5.241c3.364,1.046 14.949,-2.11 15.51,-3.372c0.561,-1.262 0.561,-2.524 -3.177,-9.468c-2.705,-5.025 -4.505,-7.935 -8.098,-10.254c1.108,-0.477 2.162,-1.024 3.145,-1.639c1.131,1.327 2.419,2.26 3.92,2.443c37.872,4.629 42.357,-9.256 46.841,-10.518c4.485,-1.263 -3.986,-21.459 -3.487,-28.192c0.497,-6.732 -7.475,-16.409 -13.455,-28.191c-5.98,-11.781 -14.949,-8.415 -19.933,-17.251c-4.984,-8.837 -6.478,-10.52 -14.95,-14.307c-4.024,-1.798 -8.836,-1.794 -14.434,-1.788c-6.186,0.006 -13.334,0.011 -21.444,-2.418c-6.654,-1.994 -11.737,-2.739 -16.601,-2.739c-6.429,0 -12.477,1.301 -21.271,2.739Zm20.479,63.386c1.986,-0.371 3.677,-0.542 4.91,-0.258c-1.04,1.813 -2.567,4.646 -3.917,7.81c-0.451,-2.727 -0.776,-5.373 -0.993,-7.552Zm-10.402,33.717c-0.502,-2.232 -0.923,-4.952 -1.376,-8.39c-0.334,-2.542 -1.4,-5.265 -2.845,-7.989c0.688,-5.041 2.729,-11.407 4.107,-15.315c2.88,-0.346 5.742,-1.018 8.302,-1.572c0.32,3.15 0.851,7.188 1.692,11.103c-1.262,3.861 -1.897,7.76 -0.798,10.562c0.633,1.617 1.404,3.022 2.253,4.303l-2.737,2.66c-0.063,0.024 -0.14,0.053 -0.2,0.076l0.045,0.084c-1.481,1.679 -2.307,3.692 -2.705,5.742c-1.186,-0.172 -3.366,-0.554 -5.738,-1.264Zm12.171,-22.079c1.416,-4.117 3.551,-8.208 4.948,-10.683c1.382,1.926 1.99,4.838 6.093,7.45c-1.221,4.203 -4.194,8.962 -7.461,13.051c-1.57,-2.29 -2.73,-5.931 -3.58,-9.818Zm-23.711,-4.932c1.179,-3.545 1.905,-4.454 7.941,-4.454c0.355,0 0.713,-0.019 1.069,-0.034c-1.13,3.256 -2.584,7.844 -3.446,12.098c-1.678,-2.662 -3.619,-5.261 -5.564,-7.61Zm25.623,19.872c4.461,-4.695 9.218,-11.239 11.116,-17.077c1.804,0.866 4.099,1.671 7.079,2.362c-1.047,2.403 -2.843,6.008 -4.957,8.073c-1.9,1.858 -8.023,4.715 -13.089,6.862c-0.052,-0.069 -0.097,-0.149 -0.149,-0.22Zm9.29,10.9c-1.416,-2.324 -3.3,-4.27 -5.12,-6.15c-0.917,-0.95 -1.831,-1.935 -2.721,-2.961c4.915,-2.087 11.289,-5.045 13.484,-7.192c2.412,-2.358 4.364,-6.319 5.452,-8.849c0.107,0.021 0.196,0.044 0.304,0.065c10.849,2.03 16.387,4.006 19.45,5.725c-0.675,1.368 -1.589,2.712 -2.861,3.907c-2.591,2.43 -4.047,5.159 -5.095,7.839c-0.376,0.033 -0.777,0.09 -1.242,0.201c-5.419,1.311 -10.652,3.746 -11.96,3.791c-0.855,0.028 -5.638,1.793 -9.421,4.023c-0.091,-0.14 -0.177,-0.246 -0.27,-0.399Zm-30.837,-7.481c-2.438,-2.135 -4.769,-9.677 -6.446,-16.64c0.043,-0.126 0.089,-0.254 0.137,-0.382c3.201,4.29 5.936,8.963 6.455,12.909c0.227,1.719 0.451,3.279 0.687,4.769c-0.289,-0.211 -0.571,-0.427 -0.833,-0.656Zm18.675,-8.477c-0.592,-1.507 -0.565,-3.442 -0.195,-5.534c0.875,2.896 1.979,5.427 3.358,7.137c-0.498,0.583 -0.997,1.151 -1.493,1.69c-0.621,-1.01 -1.197,-2.083 -1.67,-3.293Zm-20.139,23.828c-1.454,-0.878 -3.051,-2.09 -4.681,-3.475c-0.279,-0.532 -1.537,-3.231 -1.326,-8.396c0.115,-2.862 -0.439,-6.406 -1.081,-9.447c1.164,-1.565 1.192,-3.213 1.247,-5.187c1.544,5.396 3.494,10.545 5.691,12.469c0.861,0.755 1.849,1.403 2.894,1.976c1.278,6.574 3.321,10.858 8.991,14.518c0.582,0.376 1.264,0.915 2.006,1.554c-4.005,-0.424 -9.514,-1.464 -13.741,-4.012Zm65.492,-9.357c-2.518,-0.975 -4.023,-2.118 -5.135,-3.156c0.938,-2.729 2.083,-5.282 4.376,-7.435c0.975,-0.914 1.793,-1.883 2.49,-2.875c1.222,3.184 2.796,8.838 5.258,12.707c-1.24,0.794 -2.648,1.46 -4.128,2.018c-0.864,-0.428 -1.793,-0.846 -2.861,-1.259Zm-82.584,-6.635c0.174,-0.059 0.315,-0.115 0.495,-0.174c3.642,-1.191 6.005,-2.288 7.586,-3.378c0.488,2.578 0.853,5.35 0.761,7.609c-0.093,2.306 0.097,4.136 0.37,5.579c-3.641,-3.45 -7.104,-7.245 -9.212,-9.636Zm50.753,33.136c-5.8,-6.686 -11.724,-13.368 -16.053,-16.989c-0.16,-0.519 -2.902,-9.685 1.326,-14.888c0.72,-0.279 1.935,-0.756 3.459,-1.383c0.991,1.162 2.028,2.234 3.052,3.294c1.828,1.888 3.553,3.671 4.862,5.82c0.158,0.261 0.311,0.456 0.468,0.688c-1.198,0.851 -2.163,1.736 -2.642,2.595c-2.025,3.63 -3,8.205 -1.204,10.257c1.789,2.043 4.69,4.606 8.85,3.948c-0.77,2.31 -1.428,4.542 -1.985,6.812c-0.044,-0.052 -0.089,-0.102 -0.133,-0.154Zm-53.447,-25.177c-2.738,-0.641 -5.036,-1.956 -6.903,-3.431c1.515,-0.982 3.625,-2.312 7.462,-3.775c2.035,2.329 5.578,6.245 9.406,9.891c-2.471,-0.761 -5.842,-1.718 -9.965,-2.685Zm29.278,-1.436c2.091,0.549 3.892,0.845 4.926,0.987c-0.204,2.479 0.076,4.841 0.404,6.559c-2.726,-1.885 -4.249,-3.956 -5.33,-7.546Zm32.345,20.408c0.322,-0.941 0.613,-1.707 0.889,-2.396c3.185,-1.763 4.203,-2.934 7.12,-3.107c0.007,3.705 -0.214,10.77 -1.847,14.692c-1.747,4.191 -1.463,6.368 -1.036,7.408c-0.715,0.689 -1.487,1.396 -2.327,2.132c-3.333,2.921 -5.755,4.665 -7.336,5.684c0.602,-10.43 1.913,-16.76 4.537,-24.413Zm8.276,9.815c1.754,-4.208 1.99,-11.45 1.981,-15.277c4.062,0.319 3.856,1.619 7.089,3.743c0.141,0.091 0.247,0.198 0.376,0.295c-0.888,1.187 -1.808,2.583 -2.681,4.227c-2.41,4.538 -4.379,7.976 -7.988,11.84c0.01,-0.991 0.263,-2.521 1.223,-4.828Zm-54.293,16.366c-0.322,-0.905 -0.846,-1.795 -1.433,-2.668c2.813,-0.621 5.203,-1.05 10.693,-0.337c1.625,0.211 3.194,0.255 4.725,0.233c1.484,4.486 3.861,8.34 6.626,12.613c-12.011,-0.949 -19.101,-5.601 -20.611,-9.841Z" style="fill:url(#_Linear26);fill-rule:nonzero;"/><path d="M1665.78,47.796c-9.366,1.531 -8.157,7.398 -13.293,9.694c-5.137,2.296 -7.553,4.592 -10.877,7.654c-3.323,3.062 -4.532,8.164 -7.25,10.46c-2.72,2.296 -3.626,5.357 -2.72,8.419c0.906,3.06 3.626,5.101 4.23,8.673c0.604,3.572 1.208,4.082 5.74,6.633c0,0 -6.949,3.572 1.209,6.888c4.08,1.66 5.137,1.85 6.346,1.242c1.297,1.061 2.941,2.028 4.953,2.5c4.876,1.143 8.045,2.282 8.567,2.474c1.038,0.878 2.061,1.655 3.003,2.223c3.431,2.069 7.981,2.626 10.499,2.772c2.564,2.494 5.784,6.203 7.775,8.498c1.119,1.291 1.759,2.022 2.177,2.472c-0.711,4.664 -0.939,10.368 -0.944,19.533c-1.811,-0.997 -4.891,-2.929 -6.356,-5.215l-0.711,-1.1c-1.598,-2.468 -2.982,-4.678 -3.862,-7.169c3.733,-0.389 6.58,-1.711 7.165,-2.719c0.815,-1.403 3.162,-2.825 0.801,-3.823c-3.328,-1.405 -5.15,-1.533 -9.366,-2.044c-4.215,-0.51 -8.671,-2.042 -11.429,-1.021c-2.757,1.021 -2.454,1.411 -6.231,3.065c-3.776,1.655 -7.101,1.527 -6.798,3.696c0.302,2.168 3.323,4.209 9.291,3.827c1.493,-0.097 2.613,-0.257 3.546,-0.431c0.407,0.549 0.762,1.112 0.961,1.672c1.18,3.313 6.376,6.754 15.296,7.139c2.094,2.937 6.211,5.186 7.692,5.93l0,37.35l3.626,0l0,-38.842c0,-4.718 0.054,-8.473 0.196,-11.631c0.901,-0.502 2.697,-1.649 5.502,-4.106c4.153,-3.636 5.673,-6.197 7.686,-9.984c0.433,-0.819 0.89,-1.525 1.336,-2.144c1.062,1.25 1.565,2.692 3.126,3.177c2.039,0.634 9.064,-1.279 9.405,-2.045c0.338,-0.764 0.338,-1.53 -1.927,-5.74c-1.641,-3.047 -2.732,-4.811 -4.911,-6.217c0.673,-0.29 1.312,-0.621 1.907,-0.994c0.686,0.804 1.467,1.37 2.377,1.482c22.961,2.806 25.681,-5.613 28.4,-6.377c2.719,-0.766 -2.417,-13.012 -2.115,-17.093c0.302,-4.083 -4.532,-9.95 -8.158,-17.093c-3.625,-7.142 -9.063,-5.102 -12.084,-10.459c-3.022,-5.358 -3.928,-6.378 -9.065,-8.674c-2.44,-1.09 -5.356,-1.087 -8.75,-1.085c-3.752,0.004 -8.086,0.007 -13.003,-1.467c-4.034,-1.208 -7.115,-1.659 -10.063,-1.66c-3.899,0 -7.566,0.789 -12.899,1.66Zm12.416,38.432c1.205,-0.225 2.231,-0.328 2.978,-0.156c-0.631,1.099 -1.557,2.816 -2.375,4.736c-0.274,-1.653 -0.471,-3.259 -0.603,-4.58Zm-6.305,20.444c-0.306,-1.353 -0.561,-3.004 -0.836,-5.089c-0.201,-1.54 -0.848,-3.192 -1.724,-4.843c0.417,-3.056 1.654,-6.915 2.489,-9.285c1.746,-0.21 3.482,-0.617 5.034,-0.952c0.195,1.909 0.516,4.357 1.027,6.731c-0.766,2.341 -1.15,4.704 -0.484,6.404c0.383,0.979 0.851,1.832 1.366,2.608l-1.78,1.66l0.026,0.049c-0.897,1.019 -1.399,2.24 -1.64,3.483c-0.719,-0.105 -2.041,-0.336 -3.478,-0.766Zm7.379,-13.388c0.858,-2.495 2.152,-4.976 2.999,-6.477c0.838,1.168 1.206,2.934 3.695,4.517c-0.741,2.549 -2.544,5.434 -4.524,7.913c-0.952,-1.388 -1.655,-3.596 -2.17,-5.953Zm-14.376,-2.99c0.715,-2.148 1.155,-2.7 4.814,-2.7c0.215,0 0.433,-0.011 0.648,-0.02c-0.685,1.974 -1.566,4.754 -2.089,7.335c-1.018,-1.616 -2.195,-3.19 -3.373,-4.615Zm15.535,12.05c2.704,-2.847 5.589,-6.815 6.74,-10.355c1.093,0.525 2.484,1.013 4.292,1.432c-0.636,1.457 -1.724,3.643 -3.007,4.895c-1.151,1.126 -4.863,2.858 -7.934,4.16c-0.033,-0.042 -0.06,-0.091 -0.091,-0.132Zm5.632,6.607c-0.859,-1.409 -2.001,-2.588 -3.104,-3.729c-0.556,-0.575 -1.111,-1.173 -1.651,-1.795c2.981,-1.265 6.847,-3.058 8.178,-4.36c1.461,-1.429 2.645,-3.832 3.305,-5.365c0.064,0.012 0.118,0.027 0.182,0.039c6.58,1.231 9.937,2.429 11.794,3.47c-0.41,0.831 -0.963,1.646 -1.734,2.37c-1.571,1.473 -2.454,3.128 -3.089,4.752c-0.229,0.021 -0.473,0.055 -0.753,0.124c-3.286,0.794 -6.459,2.27 -7.252,2.297c-0.518,0.018 -3.418,1.087 -5.712,2.439c-0.055,-0.084 -0.108,-0.149 -0.164,-0.242Zm-18.696,-4.536c-1.478,-1.294 -2.891,-5.867 -3.909,-10.088c0.027,-0.076 0.055,-0.154 0.083,-0.232c1.942,2.602 3.6,5.434 3.916,7.827c0.135,1.043 0.272,1.989 0.415,2.891c-0.174,-0.127 -0.345,-0.259 -0.505,-0.398Zm11.321,-5.139c-0.357,-0.913 -0.341,-2.087 -0.116,-3.355c0.53,1.756 1.199,3.291 2.035,4.326c-0.302,0.354 -0.604,0.699 -0.905,1.026c-0.377,-0.612 -0.725,-1.264 -1.014,-1.997Zm-12.209,14.447c-0.881,-0.533 -1.849,-1.268 -2.838,-2.108c-0.17,-0.322 -0.932,-1.957 -0.804,-5.089c0.069,-1.735 -0.266,-3.885 -0.655,-5.729c0.706,-0.948 0.723,-1.947 0.756,-3.144c0.936,3.272 2.119,6.393 3.449,7.561c0.523,0.456 1.123,0.85 1.755,1.198c0.776,3.985 2.015,6.582 5.452,8.802c0.352,0.226 0.766,0.554 1.216,0.942c-2.428,-0.258 -5.768,-0.888 -8.331,-2.433Zm39.709,-5.673c-1.528,-0.592 -2.44,-1.284 -3.115,-1.914c0.57,-1.655 1.263,-3.202 2.653,-4.508c0.592,-0.554 1.088,-1.141 1.51,-1.743c0.741,1.931 1.696,5.358 3.189,7.705c-0.753,0.48 -1.605,0.885 -2.503,1.223c-0.523,-0.259 -1.088,-0.513 -1.734,-0.763Zm-50.072,-4.023c0.106,-0.035 0.19,-0.071 0.3,-0.106c2.208,-0.721 3.642,-1.387 4.6,-2.047c0.295,1.562 0.518,3.243 0.462,4.612c-0.057,1.399 0.058,2.509 0.224,3.383c-2.209,-2.091 -4.307,-4.392 -5.586,-5.842Zm30.771,20.09c-3.516,-4.053 -7.108,-8.105 -9.732,-10.3c-0.097,-0.314 -1.76,-5.873 0.804,-9.026c0.437,-0.169 1.173,-0.459 2.097,-0.839c0.602,0.704 1.229,1.354 1.85,1.997c1.109,1.144 2.155,2.225 2.947,3.529c0.097,0.158 0.19,0.276 0.285,0.416c-0.726,0.516 -1.311,1.054 -1.602,1.574c-1.228,2.2 -1.819,4.975 -0.73,6.219c1.084,1.238 2.844,2.792 5.366,2.394c-0.467,1.4 -0.865,2.754 -1.204,4.129c-0.026,-0.031 -0.053,-0.061 -0.081,-0.093Zm-32.403,-15.264c-1.661,-0.389 -3.055,-1.187 -4.186,-2.081c0.919,-0.596 2.197,-1.402 4.523,-2.288c1.236,1.412 3.383,3.787 5.704,5.996c-1.499,-0.461 -3.543,-1.041 -6.041,-1.627Zm17.75,-0.871c1.268,0.333 2.359,0.512 2.987,0.599c-0.123,1.503 0.046,2.935 0.245,3.976c-1.654,-1.142 -2.577,-2.399 -3.232,-4.575Zm19.611,12.374c0.196,-0.571 0.37,-1.036 0.539,-1.453c1.931,-1.07 2.549,-1.779 4.317,-1.884c0.004,2.246 -0.129,6.53 -1.119,8.907c-1.061,2.542 -0.889,3.861 -0.629,4.491c-0.434,0.419 -0.902,0.848 -1.411,1.295c-2.02,1.77 -3.489,2.827 -4.449,3.445c0.366,-6.324 1.161,-10.161 2.752,-14.801Zm5.018,5.95c1.064,-2.55 1.206,-6.942 1.201,-9.263c2.462,0.194 2.337,0.982 4.298,2.27c0.086,0.056 0.149,0.121 0.228,0.178c-0.539,0.72 -1.096,1.567 -1.625,2.564c-1.462,2.751 -2.656,4.835 -4.844,7.179c0.006,-0.601 0.159,-1.528 0.742,-2.928Zm-32.918,9.923c-0.196,-0.548 -0.513,-1.089 -0.869,-1.618c1.707,-0.376 3.155,-0.636 6.484,-0.204c0.985,0.128 1.936,0.155 2.864,0.141c0.9,2.72 2.34,5.057 4.017,7.648c-7.282,-0.575 -11.581,-3.396 -12.496,-5.967Z" style="fill:url(#_Linear27);fill-rule:nonzero;"/><path d="M447.919,73.569c3.429,7.684 5.54,9.355 7.783,12.474c2.241,3.118 2.769,7.797 3.692,13.365c0.924,5.563 3.596,6.189 3.6,6.19c0.542,2.877 1.03,5.638 1.428,7.969c-4.16,-7.488 -9.783,-13.144 -16.139,-17.28c-1.027,-1.469 -2.182,-3.351 -2.606,-4.91c-0.829,-3.045 -3.314,-7.663 -12.639,-9.974c-1.412,-0.349 -2.785,-0.635 -4.134,-0.878l-0.858,6.001l0,-6.154c-7.214,-1.21 -13.648,-1.087 -20.247,-1.173c-1.512,-0.02 -3.043,0.039 -4.56,0.174l0.978,5.445l-1.921,-5.346c-6.252,0.689 -12.197,2.694 -15.758,6.025c-4.6,4.305 -8.578,11.654 -6.837,18.477c13.8,-1.994 17.032,-4.514 21.882,-6.823c0.58,-0.277 1.156,-0.545 1.738,-0.799l0.456,-4.109l0.236,3.819c3.872,-1.579 8.188,-2.318 16.047,0.148l4.469,-3.151l-3.468,3.473c0.099,0.034 0.19,0.061 0.289,0.093c6.28,2.147 14.221,1.96 20.269,1.774c3.997,-0.123 7.169,-0.248 8.488,0.302c3.9,2.887 7.46,6.411 10.485,10.663c0.487,0.684 0.917,1.39 1.322,2.107c-3.368,-2.944 -8.663,-6.519 -14.939,-7.049c-0.191,-0.016 -0.38,-0.024 -0.569,-0.037c-1.237,-1.094 -4.528,-3.642 -7.661,-2.935c-3.672,0.826 -11.427,2.712 -14.634,6.271c-0.707,0.003 -1.359,-0.045 -1.912,-0.183c-3.561,-0.891 -10.157,-0.557 -13.058,1.225c-2.903,1.781 -6.595,0.668 -11.344,3.897c-4.748,3.231 -15.432,13.588 -11.08,25.617c10.025,-6.126 13.323,-9.467 17.412,-10.804c4.088,-1.336 6.374,-4.565 11.101,-5.903c0.656,-0.185 1.184,-0.318 1.634,-0.418l-2.125,-6.579l0.004,-0.001l3.425,6.362c0.819,-0.085 1.492,-0.049 2.725,-0.098c0.064,1.494 0.255,2.846 0.572,3.89c1.188,3.899 6.2,5.904 6.2,5.904c4.089,-3.343 3.034,-6.684 4.221,-10.359c0.159,-0.494 0.402,-0.998 0.702,-1.507l0.366,0.295c5.428,-1.335 10.019,-3.177 11.857,-3.959c4.395,1.464 8.31,3.481 11.578,5.535c5.405,3.399 8.61,8.735 8.789,14.423c0.128,4.056 0.337,8.401 0.68,11.757c0.879,8.613 0.879,27.324 0.879,27.324l0,16.632c0,6.533 -1.758,57.913 -1.758,57.913l8.441,0c0,0 0.352,-46.034 0,-60.586c-0.155,-6.414 -0.789,-16.289 -1.418,-26.218c2.01,-4.91 5.578,-9.253 8.806,-9.47c4.269,-0.289 8.025,-0.145 10.587,-2.884c2.561,-2.74 7.854,-4.552 7.854,-4.552l-2.562,-6.261l4.439,5.19c0,0 2.221,-2.163 7.684,-5.334c5.463,-3.172 5.805,-4.47 5.805,-4.47l-2.902,-3.469c0,0 4.098,3.325 7.512,2.46c3.416,-0.865 16.392,-2.46 16.392,-2.46c0,0 -7.171,-3.884 -12.635,-3.884c-5.464,0 -8.879,-1.009 -18.785,1.062c-9.345,1.953 -20.401,13.067 -26.029,20.511c-3.166,4.187 -5.162,8.451 -6.303,11.38c-0.75,-11.86 -1.444,-23.443 -1.259,-28.922c0.009,-0.256 -0.003,-0.497 -0.002,-0.749c1.054,-2.4 3.158,-6.479 6.482,-9.909c1.524,-0.099 5.427,-0.582 10.799,-2.892c6.583,-2.831 6.153,-0.332 11.257,0.063l2.504,-5.817l-1.233,5.863c3.962,0.04 7.866,-0.576 11.647,-1.141l-0.389,-5.551l1.63,5.369c1.621,-0.234 3.222,-0.444 4.789,-0.567c2.787,-0.22 5.128,0.153 7.428,0.522l-0.306,-4.495l1.871,4.739c1.138,0.165 2.291,0.295 3.504,0.324l-0.45,-4.395l1.811,4.384c0.343,-0.017 0.691,-0.041 1.046,-0.077c5.408,-0.557 12.795,-2.005 12.795,-2.005c0,0 -6.463,-7.796 -11.475,-10.049c-5.012,-2.253 -10.025,-3.762 -20.313,-3.093c-10.288,0.668 -10.947,2.673 -18.993,3.093c-8.046,0.42 -5.804,2.81 -9.102,6.708c-3.297,3.897 -4.616,2.562 -8.178,4.231c-2.737,1.285 -2.067,3.434 -1.61,4.361c-2.576,2.685 -4.411,5.708 -5.602,8.071c-0.063,-0.745 -0.157,-1.461 -0.276,-2.147c-0.88,-5.07 -0.867,-10.228 0.448,-15.229c0.445,-1.69 0.976,-3.476 1.575,-5.313c0.568,0.135 1.03,-0.324 1.03,-0.324c0,0 5.555,-1.878 10.544,-5.396l-3.734,-3.409l4.845,2.589c1.38,-1.066 2.677,-2.26 3.753,-3.581c2.085,-2.561 3.248,-4.373 4.207,-5.89l-1.066,-6.705l1.851,5.471c1.069,-1.643 2.13,-3.045 4.383,-4.948c4.688,-3.957 6.563,-8.114 8.907,-11.479c0.159,-0.229 0.352,-0.453 0.565,-0.678l-1.725,-5.407l2.95,4.329c1.595,-1.219 3.823,-2.415 6.201,-3.714l-1.764,-4.066l2.548,3.635c2.562,-1.409 5.227,-2.953 7.398,-4.786c5.391,-4.552 5.156,-8.313 5.156,-8.313c-16.407,-6.926 -25.548,-0.989 -33.986,5.939c-8.438,6.926 -11.016,9.697 -17.045,16.227c-6.029,6.532 -7.331,11.677 -7.097,22.365c0.096,4.333 0.625,6.437 1.221,7.408c-0.944,2.838 -1.699,5.545 -2.29,8.022c-0.324,1.358 -2.617,1.357 -2.949,0.001c-0.567,-2.313 -1.224,-5.062 -1.904,-7.889c5.765,-6.257 0.863,-20.321 -0.251,-25.34c-0.543,-2.447 -0.73,-5.036 -1.086,-7.657l-4.101,1.829l4.02,-2.405c-0.366,-2.499 -0.927,-5.021 -2.135,-7.473c-0.899,1.506 -1.967,3.069 -2.853,3.716c0.647,-1.095 1.481,-2.996 2.239,-4.862c-0.014,-0.026 -0.026,-0.051 -0.041,-0.077c-1.076,-1.818 -2.337,-3.531 -3.719,-5.168l-1.469,3.796l0.873,-4.511c-2.724,-3.089 -5.933,-5.862 -9.403,-8.371c-5.011,5.568 -1.846,17.931 1.583,25.615Zm-2.573,40.755c-0.583,-0.692 -1.897,-2.208 -3.421,-3.718c2.47,-1.299 4.193,-4.204 4.777,-5.306c0.057,0.004 0.111,0.002 0.168,0.007c7.311,0.619 13.408,5.791 16.291,8.693c1.208,2.895 1.818,5.962 1.818,9.056c0,0 0,1.073 0.016,2.802c-3.664,-3.213 -10.635,-8.503 -19.649,-11.534Z" style="fill:url(#_Linear28);fill-rule:nonzero;"/><path d="M592.552,142.972l0.663,3.428l-1.117,-2.884l-2.859,3.987c0.578,1.419 1.21,2.865 1.704,3.696c-0.674,-0.49 -1.486,-1.679 -2.17,-2.825c-0.918,1.866 -1.346,3.783 -1.624,5.683l3.057,1.828l-3.118,-1.391c-0.271,1.994 -0.413,3.962 -0.826,5.823c-0.847,3.815 -4.573,14.509 -0.191,19.266c-0.517,2.15 -1.016,4.239 -1.447,5.999c-0.253,1.03 -1.996,1.03 -2.242,-0.002c-0.45,-1.883 -1.023,-3.941 -1.741,-6.099c0.453,-0.737 0.855,-2.337 0.927,-5.633c0.178,-8.125 -0.812,-12.038 -5.395,-17.003c-4.584,-4.965 -6.545,-7.072 -12.96,-12.339c-6.415,-5.266 -13.366,-9.781 -25.84,-4.514c0,0 -0.178,2.859 3.92,6.32c1.651,1.393 3.676,2.566 5.625,3.639l1.937,-2.765l-1.341,3.092c1.807,0.987 3.501,1.897 4.714,2.824l2.243,-3.291l-1.31,4.111c0.162,0.17 0.308,0.341 0.428,0.515c1.783,2.558 3.209,5.719 6.773,8.728c1.712,1.447 2.52,2.513 3.331,3.763l1.409,-4.161l-0.81,5.097c0.729,1.154 1.612,2.532 3.198,4.479c0.818,1.005 1.804,1.912 2.853,2.722l3.684,-1.967l-2.839,2.592c3.793,2.674 8.017,4.102 8.017,4.102c0,0 0.351,0.35 0.783,0.247c0.456,1.396 0.859,2.755 1.198,4.038c1,3.804 1.009,7.725 0.34,11.58c-0.091,0.522 -0.162,1.066 -0.21,1.632c-0.905,-1.795 -2.3,-4.094 -4.259,-6.136c0.348,-0.706 0.857,-2.338 -1.225,-3.315c-2.707,-1.271 -3.71,-0.254 -6.217,-3.217c-2.508,-2.964 -0.802,-4.782 -6.921,-5.102c-6.117,-0.318 -6.618,-1.843 -14.441,-2.35c-7.822,-0.509 -11.633,0.638 -15.444,2.35c-3.811,1.714 -8.725,7.642 -8.725,7.642c0,0 5.616,1.1 9.728,1.524c0.27,0.027 0.535,0.046 0.796,0.058l1.377,-3.332l-0.342,3.341c0.922,-0.022 1.798,-0.121 2.663,-0.247l1.423,-3.603l-0.232,3.419c1.749,-0.281 3.529,-0.565 5.647,-0.399c1.192,0.094 2.409,0.255 3.642,0.433l1.239,-4.083l-0.296,4.221c2.875,0.43 5.844,0.898 8.855,0.867l-0.937,-4.458l1.905,4.423c3.88,-0.301 3.553,-2.2 8.558,-0.048c4.084,1.758 7.052,2.123 8.211,2.199c2.528,2.608 4.127,5.71 4.929,7.535c0,0.191 -0.008,0.374 -0.002,0.569c0.14,4.166 -0.387,12.972 -0.957,21.989c-0.867,-2.225 -2.386,-5.468 -4.793,-8.651c-4.279,-5.66 -12.684,-14.111 -19.79,-15.597c-7.532,-1.574 -10.128,-0.806 -14.282,-0.806c-4.156,0 -9.608,2.952 -9.608,2.952c0,0 9.867,1.214 12.463,1.871c2.597,0.658 5.713,-1.871 5.713,-1.871l-2.208,2.639c0,0 0.26,0.986 4.414,3.398c4.155,2.411 5.842,4.056 5.842,4.056l3.375,-3.946l-1.946,4.76c0,0 4.024,1.378 5.971,3.462c1.948,2.081 4.803,1.972 8.049,2.192c2.455,0.165 5.168,3.468 6.696,7.201c-0.48,7.549 -0.96,15.057 -1.078,19.933c-0.269,11.065 0,46.066 0,46.066l6.417,0c0,0 -1.337,-39.066 -1.337,-44.034l0,-12.645c0,0 0,-14.226 0.67,-20.775c0.26,-2.551 0.419,-5.856 0.515,-8.94c0.136,-4.324 2.574,-8.382 6.684,-10.966c2.484,-1.561 5.46,-3.095 8.803,-4.208c1.397,0.594 4.888,1.994 9.015,3.01l0.278,-0.224c0.229,0.387 0.413,0.771 0.534,1.146c0.902,2.794 0.1,5.335 3.209,7.875c0,0 3.811,-1.525 4.713,-4.488c0.243,-0.794 0.387,-1.823 0.436,-2.958c0.938,0.038 1.449,0.009 2.072,0.074l2.604,-4.836c0,0 0.002,0.001 0.003,0.001l-1.615,5.002c0.342,0.075 0.742,0.177 1.242,0.318c3.593,1.016 5.331,3.473 8.441,4.488c3.108,1.017 5.616,3.557 13.237,8.214c3.31,-9.146 -4.813,-17.021 -8.424,-19.476c-3.611,-2.456 -6.418,-1.609 -8.625,-2.964c-2.206,-1.355 -7.22,-1.609 -9.928,-0.931c-0.42,0.104 -0.917,0.141 -1.454,0.139c-2.438,-2.707 -8.334,-4.141 -11.126,-4.77c-2.383,-0.535 -4.885,1.402 -5.826,2.233c-0.144,0.01 -0.288,0.015 -0.432,0.028c-4.771,0.402 -8.798,3.122 -11.358,5.36c0.307,-0.545 0.635,-1.082 1.005,-1.602c2.299,-3.233 5.007,-5.913 7.971,-8.108c1.003,-0.417 3.414,-0.324 6.454,-0.229c4.598,0.142 10.635,0.284 15.411,-1.348c0.076,-0.026 0.145,-0.045 0.22,-0.07l-2.637,-2.642l3.398,2.397c5.977,-1.876 9.256,-1.314 12.202,-0.113l0.179,-2.905l0.347,3.125c0.442,0.192 0.88,0.396 1.322,0.607c3.686,1.756 6.144,3.671 16.637,5.189c1.323,-5.189 -1.702,-10.777 -5.199,-14.049c-2.707,-2.534 -7.228,-4.057 -11.982,-4.582l-1.46,4.064l0.745,-4.14c-1.155,-0.102 -2.318,-0.146 -3.468,-0.131c-5.018,0.065 -9.909,-0.029 -15.395,0.89l0,4.68l-0.652,-4.562c-1.026,0.185 -2.07,0.402 -3.143,0.669c-7.089,1.756 -8.98,5.267 -9.61,7.581c-0.322,1.187 -1.201,2.617 -1.981,3.734c-4.832,3.144 -9.108,7.445 -12.272,13.139c0.304,-1.773 0.675,-3.872 1.086,-6.059c0.004,-0.001 2.036,-0.476 2.737,-4.707c0.702,-4.235 1.103,-7.791 2.808,-10.162c1.705,-2.372 3.31,-3.641 5.917,-9.484c2.608,-5.843 5.015,-15.243 1.204,-19.476c-2.637,1.908 -5.078,4.016 -7.149,6.365Zm-7.026,50.738c0,-2.352 0.464,-4.686 1.383,-6.886c2.191,-2.206 6.826,-6.14 12.387,-6.61c0.042,-0.002 0.084,-0.001 0.126,-0.004c0.444,0.838 1.755,3.045 3.632,4.034c-1.157,1.147 -2.156,2.3 -2.6,2.826c-6.854,2.305 -12.155,6.327 -14.94,8.769c0.012,-1.313 0.012,-2.129 0.012,-2.129Z" style="fill:url(#_Linear29);fill-rule:nonzero;"/><path d="M905.715,152.911c2.561,5.737 4.136,6.985 5.811,9.313c1.673,2.329 2.068,5.821 2.757,9.979c0.688,4.153 2.685,4.621 2.687,4.622c0.405,2.147 0.77,4.208 1.067,5.949c-3.107,-5.591 -7.305,-9.814 -12.05,-12.902c-0.767,-1.096 -1.628,-2.502 -1.945,-3.665c-0.619,-2.274 -2.476,-5.723 -9.438,-7.447c-1.052,-0.261 -2.078,-0.473 -3.086,-0.656l-0.64,4.48l0,-4.594c-5.386,-0.904 -10.19,-0.812 -15.117,-0.875c-1.129,-0.015 -2.271,0.028 -3.404,0.129l0.729,4.065l-1.432,-3.992c-4.669,0.516 -9.107,2.014 -11.766,4.499c-3.435,3.214 -6.405,8.701 -5.105,13.796c10.303,-1.49 12.716,-3.371 16.337,-5.095c0.434,-0.206 0.864,-0.406 1.298,-0.596l0.34,-3.068l0.176,2.853c2.892,-1.18 6.113,-1.732 11.981,0.11l3.337,-2.354l-2.589,2.594c0.074,0.024 0.141,0.044 0.216,0.069c4.688,1.603 10.616,1.464 15.132,1.324c2.985,-0.092 5.353,-0.184 6.338,0.226c2.911,2.156 5.57,4.786 7.828,7.961c0.363,0.51 0.685,1.038 0.988,1.573c-2.515,-2.198 -6.468,-4.867 -11.155,-5.263c-0.142,-0.012 -0.282,-0.018 -0.424,-0.027c-0.924,-0.817 -3.381,-2.719 -5.72,-2.192c-2.742,0.618 -8.531,2.024 -10.926,4.683c-0.528,0.002 -1.014,-0.034 -1.427,-0.137c-2.66,-0.666 -7.583,-0.416 -9.75,0.914c-2.166,1.33 -4.924,0.499 -8.469,2.91c-3.545,2.412 -11.522,10.145 -8.273,19.125c7.485,-4.573 9.947,-7.068 13,-8.066c3.052,-0.998 4.759,-3.409 8.288,-4.407c0.49,-0.139 0.884,-0.238 1.221,-0.312l-1.587,-4.913l0.003,0l2.556,4.75c0.612,-0.063 1.114,-0.036 2.036,-0.073c0.048,1.115 0.19,2.125 0.426,2.905c0.887,2.91 4.63,4.407 4.63,4.407c3.052,-2.495 2.265,-4.989 3.151,-7.733c0.119,-0.368 0.3,-0.746 0.524,-1.126l0.273,0.22c4.053,-0.997 7.48,-2.371 8.852,-2.955c3.282,1.092 6.205,2.599 8.645,4.133c4.036,2.537 6.429,6.521 6.562,10.768c0.096,3.027 0.252,6.272 0.508,8.777c0.656,6.43 0.656,20.4 0.656,20.4l0,12.418c0,4.878 -1.313,43.24 -1.313,43.24l6.303,0c0,0 0.262,-34.37 0,-45.236c-0.116,-4.789 -0.589,-12.161 -1.059,-19.574c1.5,-3.666 4.164,-6.908 6.575,-7.071c3.187,-0.215 5.991,-0.107 7.903,-2.152c1.912,-2.047 5.865,-3.399 5.865,-3.399l-1.913,-4.675l3.315,3.875c0,0 1.657,-1.615 5.737,-3.982c4.078,-2.368 4.334,-3.337 4.334,-3.337l-2.167,-2.591c0,0 3.059,2.483 5.609,1.837c2.549,-0.646 12.238,-1.837 12.238,-1.837c0,0 -5.354,-2.899 -9.434,-2.899c-4.08,0 -6.629,-0.753 -14.025,0.793c-6.977,1.457 -15.231,9.756 -19.433,15.313c-2.364,3.126 -3.855,6.31 -4.707,8.496c-0.559,-8.855 -1.078,-17.502 -0.939,-21.593c0.006,-0.191 -0.003,-0.371 -0.002,-0.559c0.787,-1.792 2.358,-4.837 4.839,-7.399c1.138,-0.073 4.053,-0.433 8.064,-2.159c4.914,-2.113 4.593,-0.248 8.404,0.047l1.87,-4.342l-0.92,4.376c2.958,0.031 5.872,-0.429 8.695,-0.85l-0.291,-4.146l1.217,4.009c1.212,-0.175 2.406,-0.332 3.576,-0.424c2.081,-0.163 3.827,0.115 5.546,0.391l-0.228,-3.356l1.397,3.537c0.849,0.125 1.709,0.221 2.615,0.242l-0.336,-3.281l1.352,3.273c0.256,-0.012 0.517,-0.03 0.781,-0.058c4.039,-0.415 9.553,-1.496 9.553,-1.496c0,0 -4.825,-5.821 -8.567,-7.503c-3.742,-1.682 -7.485,-2.808 -15.166,-2.309c-7.681,0.499 -8.174,1.996 -14.181,2.309c-6.007,0.314 -4.333,2.098 -6.795,5.008c-2.462,2.911 -3.446,1.913 -6.105,3.16c-2.044,0.959 -1.544,2.563 -1.203,3.255c-1.924,2.005 -3.293,4.262 -4.182,6.026c-0.047,-0.556 -0.118,-1.091 -0.207,-1.603c-0.657,-3.785 -0.647,-7.635 0.335,-11.37c0.332,-1.262 0.728,-2.596 1.176,-3.966c0.424,0.101 0.769,-0.242 0.769,-0.242c0,0 4.147,-1.404 7.872,-4.029l-2.788,-2.545l3.618,1.932c1.03,-0.795 1.999,-1.687 2.802,-2.673c1.557,-1.913 2.424,-3.265 3.14,-4.398l-0.795,-5.006l1.382,4.085c0.797,-1.227 1.59,-2.273 3.272,-3.695c3.5,-2.954 4.901,-6.057 6.65,-8.569c0.119,-0.17 0.263,-0.34 0.421,-0.506l-1.287,-4.037l2.203,3.232c1.191,-0.911 2.854,-1.804 4.628,-2.773l-1.316,-3.037l1.902,2.715c1.914,-1.053 3.903,-2.204 5.524,-3.573c4.024,-3.398 3.849,-6.206 3.849,-6.206c-12.249,-5.172 -19.074,-0.739 -25.373,4.432c-6.3,5.173 -8.225,7.241 -12.727,12.117c-4.502,4.875 -5.473,8.717 -5.298,16.697c0.071,3.235 0.466,4.807 0.911,5.531c-0.705,2.12 -1.268,4.141 -1.71,5.99c-0.242,1.013 -1.953,1.012 -2.202,0c-0.423,-1.727 -0.913,-3.779 -1.421,-5.889c4.304,-4.672 0.645,-15.173 -0.187,-18.919c-0.406,-1.829 -0.545,-3.761 -0.811,-5.718l-3.063,1.366l3.003,-1.796c-0.274,-1.866 -0.692,-3.747 -1.594,-5.58c-0.672,1.125 -1.47,2.292 -2.13,2.775c0.483,-0.817 1.105,-2.237 1.672,-3.63l-2.808,-3.915l-1.096,2.832l0.651,-3.367c-2.035,-2.306 -4.431,-4.376 -7.021,-6.25c-3.742,4.158 -1.378,13.388 1.182,19.125Zm-1.921,30.428c-0.435,-0.516 -1.416,-1.649 -2.554,-2.776c1.844,-0.97 3.131,-3.139 3.567,-3.961c0.041,0.003 0.083,0.002 0.125,0.005c5.459,0.461 10.011,4.324 12.164,6.49c0.901,2.161 1.356,4.452 1.356,6.762c0,0 0,0.801 0.012,2.091c-2.735,-2.398 -7.94,-6.348 -14.67,-8.611Z" style="fill:url(#_Linear30);fill-rule:nonzero;"/><path d="M1564.68,83.304c2.56,5.738 4.136,6.984 5.81,9.312c1.674,2.329 2.068,5.822 2.757,9.979c0.689,4.154 2.685,4.621 2.688,4.622c0.405,2.147 0.769,4.209 1.066,5.949c-3.107,-5.59 -7.305,-9.812 -12.05,-12.901c-0.766,-1.097 -1.628,-2.501 -1.945,-3.666c-0.619,-2.273 -2.476,-5.721 -9.437,-7.445c-1.054,-0.262 -2.079,-0.475 -3.087,-0.658l-0.64,4.481l0,-4.595c-5.386,-0.902 -10.189,-0.81 -15.117,-0.875c-1.129,-0.014 -2.27,0.029 -3.405,0.129l0.73,4.067l-1.432,-3.992c-4.669,0.515 -9.108,2.012 -11.765,4.5c-3.435,3.213 -6.406,8.7 -5.106,13.795c10.302,-1.49 12.717,-3.372 16.337,-5.095c0.434,-0.207 0.864,-0.408 1.298,-0.597l0.341,-3.069l0.175,2.853c2.892,-1.18 6.114,-1.731 11.982,0.111l3.335,-2.353l-2.588,2.592c0.074,0.026 0.141,0.044 0.216,0.07c4.688,1.603 10.616,1.464 15.132,1.324c2.985,-0.092 5.353,-0.184 6.338,0.226c2.912,2.155 5.57,4.786 7.829,7.961c0.363,0.511 0.684,1.037 0.987,1.573c-2.515,-2.197 -6.468,-4.867 -11.155,-5.263c-0.142,-0.012 -0.282,-0.018 -0.425,-0.027c-0.923,-0.817 -3.38,-2.719 -5.719,-2.193c-2.742,0.618 -8.531,2.025 -10.926,4.683c-0.528,0.003 -1.014,-0.033 -1.427,-0.137c-2.66,-0.665 -7.584,-0.416 -9.749,0.915c-2.167,1.331 -4.924,0.498 -8.47,2.91c-3.545,2.412 -11.522,10.145 -8.272,19.125c7.484,-4.573 9.947,-7.067 13,-8.066c3.052,-0.997 4.758,-3.409 8.288,-4.406c0.489,-0.139 0.884,-0.239 1.219,-0.313l-1.586,-4.912l0.002,0l2.558,4.748c0.611,-0.063 1.114,-0.035 2.034,-0.072c0.049,1.115 0.191,2.125 0.428,2.904c0.886,2.911 4.628,4.408 4.628,4.408c3.053,-2.494 2.265,-4.99 3.152,-7.734c0.119,-0.368 0.3,-0.744 0.524,-1.125l0.272,0.22c4.053,-0.997 7.481,-2.372 8.854,-2.956c3.281,1.093 6.204,2.6 8.644,4.134c4.036,2.537 6.43,6.52 6.562,10.767c0.096,3.029 0.252,6.273 0.509,8.779c0.656,6.43 0.656,20.399 0.656,20.399l0,12.418c0,4.878 -1.314,43.239 -1.314,43.239l6.302,0c0,0 0.263,-34.37 0,-45.235c-0.115,-4.788 -0.587,-12.161 -1.058,-19.573c1.501,-3.667 4.164,-6.909 6.575,-7.071c3.186,-0.216 5.992,-0.109 7.903,-2.154c1.913,-2.045 5.865,-3.398 5.865,-3.398l-1.912,-4.675l3.314,3.875c0,0 1.658,-1.614 5.737,-3.983c4.078,-2.368 4.334,-3.336 4.334,-3.336l-2.167,-2.591c0,0 3.059,2.483 5.609,1.837c2.55,-0.646 12.239,-1.837 12.239,-1.837c0,0 -5.355,-2.898 -9.434,-2.898c-4.081,0 -6.63,-0.755 -14.026,0.792c-6.977,1.458 -15.231,9.757 -19.433,15.313c-2.364,3.127 -3.855,6.309 -4.707,8.497c-0.559,-8.856 -1.078,-17.503 -0.939,-21.594c0.006,-0.191 -0.003,-0.371 -0.002,-0.559c0.788,-1.792 2.359,-4.837 4.84,-7.398c1.138,-0.074 4.052,-0.434 8.062,-2.16c4.915,-2.114 4.594,-0.247 8.405,0.048l1.87,-4.344l-0.92,4.377c2.957,0.031 5.872,-0.429 8.695,-0.851l-0.291,-4.145l1.217,4.01c1.211,-0.176 2.406,-0.332 3.577,-0.425c2.08,-0.164 3.827,0.115 5.546,0.392l-0.229,-3.358l1.396,3.538c0.849,0.124 1.711,0.221 2.616,0.242l-0.336,-3.281l1.352,3.274c0.257,-0.013 0.517,-0.031 0.782,-0.058c4.038,-0.416 9.552,-1.498 9.552,-1.498c0,0 -4.825,-5.82 -8.567,-7.502c-3.742,-1.682 -7.484,-2.808 -15.165,-2.308c-7.683,0.497 -8.174,1.994 -14.181,2.308c-6.008,0.313 -4.334,2.099 -6.796,5.009c-2.462,2.91 -3.446,1.912 -6.105,3.158c-2.045,0.96 -1.544,2.565 -1.203,3.257c-1.924,2.003 -3.293,4.261 -4.183,6.025c-0.046,-0.556 -0.117,-1.091 -0.206,-1.604c-0.657,-3.784 -0.647,-7.635 0.336,-11.369c0.332,-1.261 0.727,-2.595 1.175,-3.967c0.424,0.101 0.769,-0.242 0.769,-0.242c0,0 4.147,-1.402 7.872,-4.029l-2.788,-2.544l3.618,1.933c1.03,-0.797 1.999,-1.688 2.802,-2.674c1.558,-1.912 2.424,-3.264 3.141,-4.398l-0.797,-5.005l1.384,4.085c0.796,-1.228 1.589,-2.275 3.272,-3.695c3.499,-2.956 4.9,-6.058 6.649,-8.57c0.12,-0.171 0.263,-0.34 0.421,-0.507l-1.286,-4.037l2.202,3.232c1.191,-0.909 2.854,-1.802 4.629,-2.772l-1.316,-3.037l1.901,2.715c1.915,-1.053 3.903,-2.205 5.524,-3.574c4.025,-3.398 3.85,-6.205 3.85,-6.205c-12.25,-5.172 -19.075,-0.739 -25.375,4.433c-6.3,5.171 -8.225,7.24 -12.726,12.116c-4.502,4.876 -5.473,8.718 -5.297,16.697c0.07,3.236 0.465,4.807 0.91,5.53c-0.705,2.121 -1.268,4.141 -1.709,5.99c-0.243,1.015 -1.954,1.013 -2.203,0.001c-0.422,-1.726 -0.913,-3.779 -1.42,-5.89c4.304,-4.671 0.645,-15.171 -0.188,-18.919c-0.406,-1.827 -0.545,-3.759 -0.811,-5.717l-3.063,1.366l3.004,-1.796c-0.274,-1.865 -0.693,-3.748 -1.594,-5.579c-0.673,1.124 -1.47,2.292 -2.131,2.773c0.483,-0.816 1.105,-2.236 1.672,-3.629l-2.808,-3.916l-1.096,2.834l0.65,-3.368c-2.034,-2.305 -4.43,-4.376 -7.019,-6.25c-3.742,4.157 -1.379,13.388 1.182,19.125Zm-1.922,30.428c-0.434,-0.516 -1.416,-1.649 -2.553,-2.776c1.843,-0.97 3.13,-3.14 3.567,-3.961c0.041,0.003 0.083,0.002 0.125,0.005c5.457,0.461 10.01,4.324 12.162,6.491c0.903,2.16 1.357,4.45 1.357,6.761c0,0 0.001,0.801 0.012,2.091c-2.735,-2.398 -7.939,-6.347 -14.67,-8.611Z" style="fill:url(#_Linear31);fill-rule:nonzero;"/></g><defs><linearGradient id="_Linear1" x1="0" y1="0" x2="1" y2="0" gradientUnits="userSpaceOnUse" gradientTransform="matrix(0,-374.447,374.447,-0,941.224,612.978)"><stop offset="0" style="stop-color:#909035;stop-opacity:1"/><stop offset="1" style="stop-color:#305307;stop-opacity:1"/><stop offset="1" style="stop-color:#305307;stop-opacity:1"/></linearGradient><linearGradient id="_Linear2" x1="0" y1="0" x2="1" y2="0" gradientUnits="userSpaceOnUse" gradientTransform="matrix(0,-374.447,374.447,-0,1308.72,612.977)"><stop offset="0" style="stop-color:#909035;stop-opacity:1"/><stop offset="1" style="stop-color:#305307;stop-opacity:1"/><stop offset="1" style="stop-color:#305307;stop-opacity:1"/></linearGradient><linearGradient id="_Linear3" x1="0" y1="0" x2="1" y2="0" gradientUnits="userSpaceOnUse" gradientTransform="matrix(0,-374.447,374.447,-0,1193.94,612.977)"><stop offset="0" style="stop-color:#909035;stop-opacity:1"/><stop offset="1" style="stop-color:#305307;stop-opacity:1"/><stop offset="1" style="stop-color:#305307;stop-opacity:1"/></linearGradient><linearGradient id="_Linear4" x1="0" y1="0" x2="1" y2="0" gradientUnits="userSpaceOnUse" gradientTransform="matrix(0,-374.447,374.447,-0,957.094,612.978)"><stop offset="0" style="stop-color:#909035;stop-opacity:1"/><stop offset="1" style="stop-color:#305307;stop-opacity:1"/><stop offset="1" style="stop-color:#305307;stop-opacity:1"/></linearGradient><linearGradient id="_Linear5" x1="0" y1="0" x2="1" y2="0" gradientUnits="userSpaceOnUse" gradientTransform="matrix(0,-374.447,374.447,-0,905.138,612.977)"><stop offset="0" style="stop-color:#909035;stop-opacity:1"/><stop offset="1" style="stop-color:#305307;stop-opacity:1"/><stop offset="1" style="stop-color:#305307;stop-opacity:1"/></linearGradient><linearGradient id="_Linear6" x1="0" y1="0" x2="1" y2="0" gradientUnits="userSpaceOnUse" gradientTransform="matrix(0,-374.447,374.447,-0,858.028,612.977)"><stop offset="0" style="stop-color:#909035;stop-opacity:1"/><stop offset="1" style="stop-color:#305307;stop-opacity:1"/><stop offset="1" style="stop-color:#305307;stop-opacity:1"/></linearGradient><linearGradient id="_Linear7" x1="0" y1="0" x2="1" y2="0" gradientUnits="userSpaceOnUse" gradientTransform="matrix(0,-374.448,374.448,-0,1077,612.978)"><stop offset="0" style="stop-color:#909035;stop-opacity:1"/><stop offset="1" style="stop-color:#305307;stop-opacity:1"/><stop offset="1" style="stop-color:#305307;stop-opacity:1"/></linearGradient><linearGradient id="_Linear8" x1="0" y1="0" x2="1" y2="0" gradientUnits="userSpaceOnUse" gradientTransform="matrix(0,-374.447,374.447,-0,228.986,612.978)"><stop offset="0" style="stop-color:#909035;stop-opacity:1"/><stop offset="1" style="stop-color:#305307;stop-opacity:1"/><stop offset="1" style="stop-color:#305307;stop-opacity:1"/></linearGradient><linearGradient id="_Linear9" x1="0" y1="0" x2="1" y2="0" gradientUnits="userSpaceOnUse" gradientTransform="matrix(0,-374.447,374.447,-0,361.442,612.978)"><stop offset="0" style="stop-color:#909035;stop-opacity:1"/><stop offset="1" style="stop-color:#305307;stop-opacity:1"/><stop offset="1" style="stop-color:#305307;stop-opacity:1"/></linearGradient><linearGradient id="_Linear10" x1="0" y1="0" x2="1" y2="0" gradientUnits="userSpaceOnUse" gradientTransform="matrix(0,-374.448,374.448,-0,482.147,612.979)"><stop offset="0" style="stop-color:#909035;stop-opacity:1"/><stop offset="1" style="stop-color:#305307;stop-opacity:1"/><stop offset="1" style="stop-color:#305307;stop-opacity:1"/></linearGradient><linearGradient id="_Linear11" x1="0" y1="0" x2="1" y2="0" gradientUnits="userSpaceOnUse" gradientTransform="matrix(0,-374.448,374.448,-0,542.797,612.979)"><stop offset="0" style="stop-color:#909035;stop-opacity:1"/><stop offset="1" style="stop-color:#305307;stop-opacity:1"/><stop offset="1" style="stop-color:#305307;stop-opacity:1"/></linearGradient><linearGradient id="_Linear12" x1="0" y1="0" x2="1" y2="0" gradientUnits="userSpaceOnUse" gradientTransform="matrix(0,-374.447,374.447,-0,42.4238,612.978)"><stop offset="0" style="stop-color:#909035;stop-opacity:1"/><stop offset="1" style="stop-color:#305307;stop-opacity:1"/><stop offset="1" style="stop-color:#305307;stop-opacity:1"/></linearGradient><linearGradient id="_Linear13" x1="0" y1="0" x2="1" y2="0" gradientUnits="userSpaceOnUse" gradientTransform="matrix(0,-374.448,374.448,-0,299.398,612.979)"><stop offset="0" style="stop-color:#909035;stop-opacity:1"/><stop offset="1" style="stop-color:#305307;stop-opacity:1"/><stop offset="1" style="stop-color:#305307;stop-opacity:1"/></linearGradient><linearGradient id="_Linear14" x1="0" y1="0" x2="1" y2="0" gradientUnits="userSpaceOnUse" gradientTransform="matrix(0,-374.447,374.447,-0,336.467,612.978)"><stop offset="0" style="stop-color:#909035;stop-opacity:1"/><stop offset="1" style="stop-color:#305307;stop-opacity:1"/><stop offset="1" style="stop-color:#305307;stop-opacity:1"/></linearGradient><linearGradient id="_Linear15" x1="0" y1="0" x2="1" y2="0" gradientUnits="userSpaceOnUse" gradientTransform="matrix(0,-374.447,374.447,-0,1004.02,612.978)"><stop offset="0" style="stop-color:#909035;stop-opacity:1"/><stop offset="1" style="stop-color:#305307;stop-opacity:1"/><stop offset="1" style="stop-color:#305307;stop-opacity:1"/></linearGradient><linearGradient id="_Linear16" x1="0" y1="0" x2="1" y2="0" gradientUnits="userSpaceOnUse" gradientTransform="matrix(0,-374.448,374.448,-0,1030.08,612.978)"><stop offset="0" style="stop-color:#909035;stop-opacity:1"/><stop offset="1" style="stop-color:#305307;stop-opacity:1"/><stop offset="1" style="stop-color:#305307;stop-opacity:1"/></linearGradient><linearGradient id="_Linear17" x1="0" y1="0" x2="1" y2="0" gradientUnits="userSpaceOnUse" gradientTransform="matrix(0,-374.447,374.447,-0,1254.1,612.978)"><stop offset="0" style="stop-color:#909035;stop-opacity:1"/><stop offset="1" style="stop-color:#305307;stop-opacity:1"/><stop offset="1" style="stop-color:#305307;stop-opacity:1"/></linearGradient><linearGradient id="_Linear18" x1="0" y1="0" x2="1" y2="0" gradientUnits="userSpaceOnUse" gradientTransform="matrix(0,-374.446,374.446,-0,1278.28,612.977)"><stop offset="0" style="stop-color:#909035;stop-opacity:1"/><stop offset="1" style="stop-color:#305307;stop-opacity:1"/><stop offset="1" style="stop-color:#305307;stop-opacity:1"/></linearGradient><linearGradient id="_Linear19" x1="0" y1="0" x2="1" y2="0" gradientUnits="userSpaceOnUse" gradientTransform="matrix(0,-374.447,374.447,-0,508.656,612.978)"><stop offset="0" style="stop-color:#909035;stop-opacity:1"/><stop offset="1" style="stop-color:#305307;stop-opacity:1"/><stop offset="1" style="stop-color:#305307;stop-opacity:1"/></linearGradient><linearGradient id="_Linear20" x1="0" y1="0" x2="1" y2="0" gradientUnits="userSpaceOnUse" gradientTransform="matrix(0,-374.448,374.448,-0,534.72,612.978)"><stop offset="0" style="stop-color:#909035;stop-opacity:1"/><stop offset="1" style="stop-color:#305307;stop-opacity:1"/><stop offset="1" style="stop-color:#305307;stop-opacity:1"/></linearGradient><linearGradient id="_Linear21" x1="0" y1="0" x2="1" y2="0" gradientUnits="userSpaceOnUse" gradientTransform="matrix(0,-374.447,374.447,-0,12.856,612.978)"><stop offset="0" style="stop-color:#909035;stop-opacity:1"/><stop offset="1" style="stop-color:#305307;stop-opacity:1"/><stop offset="1" style="stop-color:#305307;stop-opacity:1"/></linearGradient><linearGradient id="_Linear22" x1="0" y1="0" x2="1" y2="0" gradientUnits="userSpaceOnUse" gradientTransform="matrix(0,-374.448,374.448,-0,44.1977,612.978)"><stop offset="0" style="stop-color:#909035;stop-opacity:1"/><stop offset="1" style="stop-color:#305307;stop-opacity:1"/><stop offset="1" style="stop-color:#305307;stop-opacity:1"/></linearGradient><linearGradient id="_Linear23" x1="0" y1="0" x2="1" y2="0" gradientUnits="userSpaceOnUse" gradientTransform="matrix(0,-374.447,374.447,-0,388.816,819.978)"><stop offset="0" style="stop-color:#909035;stop-opacity:1"/><stop offset="1" style="stop-color:#305307;stop-opacity:1"/><stop offset="1" style="stop-color:#305307;stop-opacity:1"/></linearGradient><linearGradient id="_Linear24" x1="0" y1="0" x2="1" y2="0" gradientUnits="userSpaceOnUse" gradientTransform="matrix(0,-374.448,374.448,-0,1300.92,644.977)"><stop offset="0" style="stop-color:#909035;stop-opacity:1"/><stop offset="1" style="stop-color:#305307;stop-opacity:1"/><stop offset="1" style="stop-color:#305307;stop-opacity:1"/></linearGradient><linearGradient id="_Linear25" x1="0" y1="0" x2="1" y2="0" gradientUnits="userSpaceOnUse" gradientTransform="matrix(0,-374.447,374.447,-0,165.762,681.977)"><stop offset="0" style="stop-color:#909035;stop-opacity:1"/><stop offset="1" style="stop-color:#305307;stop-opacity:1"/><stop offset="1" style="stop-color:#305307;stop-opacity:1"/></linearGradient><linearGradient id="_Linear26" x1="0" y1="0" x2="1" y2="0" gradientUnits="userSpaceOnUse" gradientTransform="matrix(0,-374.447,374.447,-0,1105.1,660.979)"><stop offset="0" style="stop-color:#909035;stop-opacity:1"/><stop offset="1" style="stop-color:#305307;stop-opacity:1"/><stop offset="1" style="stop-color:#305307;stop-opacity:1"/></linearGradient><linearGradient id="_Linear27" x1="0" y1="0" x2="1" y2="0" gradientUnits="userSpaceOnUse" gradientTransform="matrix(0,-374.448,374.448,-0,1687.01,612.978)"><stop offset="0" style="stop-color:#909035;stop-opacity:1"/><stop offset="1" style="stop-color:#305307;stop-opacity:1"/><stop offset="1" style="stop-color:#305307;stop-opacity:1"/></linearGradient><linearGradient id="_Linear28" x1="0" y1="0" x2="1" y2="0" gradientUnits="userSpaceOnUse" gradientTransform="matrix(0,-374.446,374.446,-0,462.536,612.978)"><stop offset="0" style="stop-color:#909035;stop-opacity:1"/><stop offset="1" style="stop-color:#305307;stop-opacity:1"/><stop offset="1" style="stop-color:#305307;stop-opacity:1"/></linearGradient><linearGradient id="_Linear29" x1="0" y1="0" x2="1" y2="0" gradientUnits="userSpaceOnUse" gradientTransform="matrix(0,-374.448,374.448,-0,587.384,612.979)"><stop offset="0" style="stop-color:#909035;stop-opacity:1"/><stop offset="1" style="stop-color:#305307;stop-opacity:1"/><stop offset="1" style="stop-color:#305307;stop-opacity:1"/></linearGradient><linearGradient id="_Linear30" x1="0" y1="0" x2="1" y2="0" gradientUnits="userSpaceOnUse" gradientTransform="matrix(0,-374.447,374.447,-0,916.629,612.979)"><stop offset="0" style="stop-color:#909035;stop-opacity:1"/><stop offset="1" style="stop-color:#305307;stop-opacity:1"/><stop offset="1" style="stop-color:#305307;stop-opacity:1"/></linearGradient><linearGradient id="_Linear31" x1="0" y1="0" x2="1" y2="0" gradientUnits="userSpaceOnUse" gradientTransform="matrix(0,-374.446,374.446,-0,1575.59,612.977)"><stop offset="0" style="stop-color:#909035;stop-opacity:1"/><stop offset="1" style="stop-color:#305307;stop-opacity:1"/><stop offset="1" style="stop-color:#305307;stop-opacity:1"/></linearGradient></defs></svg>