<?xml version="1.0" encoding="UTF-8" standalone="no"?><!DOCTYPE svg PUBLIC "-//W3C//DTD SVG 1.1//EN" "http://www.w3.org/Graphics/SVG/1.1/DTD/svg11.dtd"><svg width="100%" height="100%" viewBox="0 0 1926 338" version="1.1" xmlns="http://www.w3.org/2000/svg" xmlns:xlink="http://www.w3.org/1999/xlink" xml:space="preserve" xmlns:serif="http://www.serif.com/" style="fill-rule:evenodd;clip-rule:evenodd;stroke-linejoin:round;stroke-miterlimit:2;"><path d="M81.582,88.941c4.269,1.05 8.556,2.083 12.917,2.967c115.471,23.655 221.854,-142.532 338.18,-76.134c8.366,4.802 16.875,8.936 25.451,12.203c26.722,44.193 58.539,65.331 90.856,77.417c27.944,10.437 56.762,21.705 84.982,24.172c33.731,2.969 67.186,-6.668 100.747,-13.703c36.454,-7.651 74.026,-13.002 110.072,6.852c35.77,19.722 71.914,35.509 108.342,45.245c70.159,18.752 142.127,19.803 212.134,-4.586c33.218,-11.551 73.711,-56.81 107.297,-60.078c35.823,-3.501 92.282,1.831 127,20c70.034,36.709 80.255,-21.575 151,-57c58.86,-29.473 130.561,-49.883 192,-43c48.404,5.419 111.855,82.582 160.226,65.645c4.406,1.083 8.813,2.117 13.226,3.051c3.031,0.599 6.063,1.134 9.108,1.683l0,243.755l-1925.12,0l0,-246.739c27.292,5.085 54.632,7.686 81.582,-1.75" style="fill:#09190a;fill-rule:nonzero;"/></svg>