<?xml version="1.0" encoding="UTF-8" standalone="no"?><!DOCTYPE svg PUBLIC "-//W3C//DTD SVG 1.1//EN" "http://www.w3.org/Graphics/SVG/1.1/DTD/svg11.dtd"><svg width="100%" height="100%" viewBox="0 0 1926 338" version="1.1" xmlns="http://www.w3.org/2000/svg" xmlns:xlink="http://www.w3.org/1999/xlink" xml:space="preserve" xmlns:serif="http://www.serif.com/" style="fill-rule:evenodd;clip-rule:evenodd;stroke-linejoin:round;stroke-miterlimit:2;"><path d="M1843.54,88.942c-4.269,1.05 -8.557,2.083 -12.917,2.967c-115.472,23.654 -221.854,-142.532 -338.181,-76.135c-8.365,4.802 -16.875,8.937 -25.451,12.204c-26.721,44.193 -58.538,65.33 -90.855,77.416c-27.944,10.438 -56.762,21.706 -84.982,24.172c-33.731,2.969 -67.186,-6.667 -100.747,-13.702c-36.454,-7.651 -74.026,-13.003 -110.072,6.852c-35.77,19.722 -71.914,35.508 -108.342,45.244c-70.159,18.753 -142.126,19.803 -212.134,-4.585c-33.218,-11.552 -66.279,-31.007 -99.865,-34.275c-35.823,-3.501 -68.35,19.239 -103.068,37.408c-70.034,36.709 -142.659,54.347 -213.404,18.922c-58.86,-29.474 -113.347,-113.659 -174.785,-106.775c-48.404,5.419 -98.03,27.223 -146.401,10.287c-4.406,1.082 -8.813,2.117 -13.226,3.051c-3.031,0.598 -6.063,1.133 -9.108,1.682l0,243.756l1925.12,0l0,-246.739c-27.293,5.085 -54.632,7.685 -81.582,-1.75" style="fill:#0d260f;fill-rule:nonzero;"/></svg>